<?xml version="1.0" encoding="utf-8" standalone="no"?>
<!DOCTYPE svg PUBLIC "-//W3C//DTD SVG 1.1//EN"
  "http://www.w3.org/Graphics/SVG/1.1/DTD/svg11.dtd">
<svg xmlns:xlink="http://www.w3.org/1999/xlink" width="864pt" height="432pt" viewBox="0 0 864 432" xmlns="http://www.w3.org/2000/svg" version="1.1">
 <metadata>
  <rdf:RDF xmlns:dc="http://purl.org/dc/elements/1.1/" xmlns:cc="http://creativecommons.org/ns#" xmlns:rdf="http://www.w3.org/1999/02/22-rdf-syntax-ns#">
   <cc:Work>
    <dc:type rdf:resource="http://purl.org/dc/dcmitype/StillImage"/>
    <dc:date>2025-06-10T18:49:16.668853</dc:date>
    <dc:format>image/svg+xml</dc:format>
    <dc:creator>
     <cc:Agent>
      <dc:title>Matplotlib v3.10.1, https://matplotlib.org/</dc:title>
     </cc:Agent>
    </dc:creator>
   </cc:Work>
  </rdf:RDF>
 </metadata>
 <defs>
  <style type="text/css">*{stroke-linejoin: round; stroke-linecap: butt}</style>
 </defs>
 <g id="figure_1">
  <g id="patch_1">
   <path d="M 0 432 
L 864 432 
L 864 0 
L 0 0 
z
" style="fill: #ffffff"/>
  </g>
  <g id="axes_1">
   <g id="patch_2">
    <path d="M 47.72 390.04 
L 756.45 390.04 
L 756.45 10.8 
L 47.72 10.8 
z
" style="fill: #ffffff"/>
   </g>
   <g id="matplotlib.axis_1">
    <g id="xtick_1">
     <g id="line2d_1">
      <path d="M 79.935 390.04 
L 79.935 10.8 
" clip-path="url(#peba7c4edc1)" style="fill: none; stroke: #b0b0b0; stroke-width: 0.8; stroke-linecap: square"/>
     </g>
     <g id="line2d_2">
      <defs>
       <path id="m76b4825a76" d="M 0 0 
L 0 3.5 
" style="stroke: #000000; stroke-width: 0.8"/>
      </defs>
      <g>
       <use xlink:href="#m76b4825a76" x="79.935" y="390.04" style="stroke: #000000; stroke-width: 0.8"/>
      </g>
     </g>
     <g id="text_1">
      <!-- 0 -->
      <g transform="translate(76.75375 404.638438) scale(0.1 -0.1)">
       <defs>
        <path id="DejaVuSans-30" d="M 2034 4250 
Q 1547 4250 1301 3770 
Q 1056 3291 1056 2328 
Q 1056 1369 1301 889 
Q 1547 409 2034 409 
Q 2525 409 2770 889 
Q 3016 1369 3016 2328 
Q 3016 3291 2770 3770 
Q 2525 4250 2034 4250 
z
M 2034 4750 
Q 2819 4750 3233 4129 
Q 3647 3509 3647 2328 
Q 3647 1150 3233 529 
Q 2819 -91 2034 -91 
Q 1250 -91 836 529 
Q 422 1150 422 2328 
Q 422 3509 836 4129 
Q 1250 4750 2034 4750 
z
" transform="scale(0.015625)"/>
       </defs>
       <use xlink:href="#DejaVuSans-30"/>
      </g>
     </g>
    </g>
    <g id="xtick_2">
     <g id="line2d_3">
      <path d="M 217.371007 390.04 
L 217.371007 10.8 
" clip-path="url(#peba7c4edc1)" style="fill: none; stroke: #b0b0b0; stroke-width: 0.8; stroke-linecap: square"/>
     </g>
     <g id="line2d_4">
      <g>
       <use xlink:href="#m76b4825a76" x="217.371007" y="390.04" style="stroke: #000000; stroke-width: 0.8"/>
      </g>
     </g>
     <g id="text_2">
      <!-- 500 -->
      <g transform="translate(207.827257 404.638438) scale(0.1 -0.1)">
       <defs>
        <path id="DejaVuSans-35" d="M 691 4666 
L 3169 4666 
L 3169 4134 
L 1269 4134 
L 1269 2991 
Q 1406 3038 1543 3061 
Q 1681 3084 1819 3084 
Q 2600 3084 3056 2656 
Q 3513 2228 3513 1497 
Q 3513 744 3044 326 
Q 2575 -91 1722 -91 
Q 1428 -91 1123 -41 
Q 819 9 494 109 
L 494 744 
Q 775 591 1075 516 
Q 1375 441 1709 441 
Q 2250 441 2565 725 
Q 2881 1009 2881 1497 
Q 2881 1984 2565 2268 
Q 2250 2553 1709 2553 
Q 1456 2553 1204 2497 
Q 953 2441 691 2322 
L 691 4666 
z
" transform="scale(0.015625)"/>
       </defs>
       <use xlink:href="#DejaVuSans-35"/>
       <use xlink:href="#DejaVuSans-30" transform="translate(63.623047 0)"/>
       <use xlink:href="#DejaVuSans-30" transform="translate(127.246094 0)"/>
      </g>
     </g>
    </g>
    <g id="xtick_3">
     <g id="line2d_5">
      <path d="M 354.807014 390.04 
L 354.807014 10.8 
" clip-path="url(#peba7c4edc1)" style="fill: none; stroke: #b0b0b0; stroke-width: 0.8; stroke-linecap: square"/>
     </g>
     <g id="line2d_6">
      <g>
       <use xlink:href="#m76b4825a76" x="354.807014" y="390.04" style="stroke: #000000; stroke-width: 0.8"/>
      </g>
     </g>
     <g id="text_3">
      <!-- 1000 -->
      <g transform="translate(342.082014 404.638438) scale(0.1 -0.1)">
       <defs>
        <path id="DejaVuSans-31" d="M 794 531 
L 1825 531 
L 1825 4091 
L 703 3866 
L 703 4441 
L 1819 4666 
L 2450 4666 
L 2450 531 
L 3481 531 
L 3481 0 
L 794 0 
L 794 531 
z
" transform="scale(0.015625)"/>
       </defs>
       <use xlink:href="#DejaVuSans-31"/>
       <use xlink:href="#DejaVuSans-30" transform="translate(63.623047 0)"/>
       <use xlink:href="#DejaVuSans-30" transform="translate(127.246094 0)"/>
       <use xlink:href="#DejaVuSans-30" transform="translate(190.869141 0)"/>
      </g>
     </g>
    </g>
    <g id="xtick_4">
     <g id="line2d_7">
      <path d="M 492.24302 390.04 
L 492.24302 10.8 
" clip-path="url(#peba7c4edc1)" style="fill: none; stroke: #b0b0b0; stroke-width: 0.8; stroke-linecap: square"/>
     </g>
     <g id="line2d_8">
      <g>
       <use xlink:href="#m76b4825a76" x="492.24302" y="390.04" style="stroke: #000000; stroke-width: 0.8"/>
      </g>
     </g>
     <g id="text_4">
      <!-- 1500 -->
      <g transform="translate(479.51802 404.638438) scale(0.1 -0.1)">
       <use xlink:href="#DejaVuSans-31"/>
       <use xlink:href="#DejaVuSans-35" transform="translate(63.623047 0)"/>
       <use xlink:href="#DejaVuSans-30" transform="translate(127.246094 0)"/>
       <use xlink:href="#DejaVuSans-30" transform="translate(190.869141 0)"/>
      </g>
     </g>
    </g>
    <g id="xtick_5">
     <g id="line2d_9">
      <path d="M 629.679027 390.04 
L 629.679027 10.8 
" clip-path="url(#peba7c4edc1)" style="fill: none; stroke: #b0b0b0; stroke-width: 0.8; stroke-linecap: square"/>
     </g>
     <g id="line2d_10">
      <g>
       <use xlink:href="#m76b4825a76" x="629.679027" y="390.04" style="stroke: #000000; stroke-width: 0.8"/>
      </g>
     </g>
     <g id="text_5">
      <!-- 2000 -->
      <g transform="translate(616.954027 404.638438) scale(0.1 -0.1)">
       <defs>
        <path id="DejaVuSans-32" d="M 1228 531 
L 3431 531 
L 3431 0 
L 469 0 
L 469 531 
Q 828 903 1448 1529 
Q 2069 2156 2228 2338 
Q 2531 2678 2651 2914 
Q 2772 3150 2772 3378 
Q 2772 3750 2511 3984 
Q 2250 4219 1831 4219 
Q 1534 4219 1204 4116 
Q 875 4013 500 3803 
L 500 4441 
Q 881 4594 1212 4672 
Q 1544 4750 1819 4750 
Q 2544 4750 2975 4387 
Q 3406 4025 3406 3419 
Q 3406 3131 3298 2873 
Q 3191 2616 2906 2266 
Q 2828 2175 2409 1742 
Q 1991 1309 1228 531 
z
" transform="scale(0.015625)"/>
       </defs>
       <use xlink:href="#DejaVuSans-32"/>
       <use xlink:href="#DejaVuSans-30" transform="translate(63.623047 0)"/>
       <use xlink:href="#DejaVuSans-30" transform="translate(127.246094 0)"/>
       <use xlink:href="#DejaVuSans-30" transform="translate(190.869141 0)"/>
      </g>
     </g>
    </g>
    <g id="text_6">
     <!-- Iteration -->
     <g transform="translate(380.876406 418.316562) scale(0.1 -0.1)">
      <defs>
       <path id="DejaVuSans-49" d="M 628 4666 
L 1259 4666 
L 1259 0 
L 628 0 
L 628 4666 
z
" transform="scale(0.015625)"/>
       <path id="DejaVuSans-74" d="M 1172 4494 
L 1172 3500 
L 2356 3500 
L 2356 3053 
L 1172 3053 
L 1172 1153 
Q 1172 725 1289 603 
Q 1406 481 1766 481 
L 2356 481 
L 2356 0 
L 1766 0 
Q 1100 0 847 248 
Q 594 497 594 1153 
L 594 3053 
L 172 3053 
L 172 3500 
L 594 3500 
L 594 4494 
L 1172 4494 
z
" transform="scale(0.015625)"/>
       <path id="DejaVuSans-65" d="M 3597 1894 
L 3597 1613 
L 953 1613 
Q 991 1019 1311 708 
Q 1631 397 2203 397 
Q 2534 397 2845 478 
Q 3156 559 3463 722 
L 3463 178 
Q 3153 47 2828 -22 
Q 2503 -91 2169 -91 
Q 1331 -91 842 396 
Q 353 884 353 1716 
Q 353 2575 817 3079 
Q 1281 3584 2069 3584 
Q 2775 3584 3186 3129 
Q 3597 2675 3597 1894 
z
M 3022 2063 
Q 3016 2534 2758 2815 
Q 2500 3097 2075 3097 
Q 1594 3097 1305 2825 
Q 1016 2553 972 2059 
L 3022 2063 
z
" transform="scale(0.015625)"/>
       <path id="DejaVuSans-72" d="M 2631 2963 
Q 2534 3019 2420 3045 
Q 2306 3072 2169 3072 
Q 1681 3072 1420 2755 
Q 1159 2438 1159 1844 
L 1159 0 
L 581 0 
L 581 3500 
L 1159 3500 
L 1159 2956 
Q 1341 3275 1631 3429 
Q 1922 3584 2338 3584 
Q 2397 3584 2469 3576 
Q 2541 3569 2628 3553 
L 2631 2963 
z
" transform="scale(0.015625)"/>
       <path id="DejaVuSans-61" d="M 2194 1759 
Q 1497 1759 1228 1600 
Q 959 1441 959 1056 
Q 959 750 1161 570 
Q 1363 391 1709 391 
Q 2188 391 2477 730 
Q 2766 1069 2766 1631 
L 2766 1759 
L 2194 1759 
z
M 3341 1997 
L 3341 0 
L 2766 0 
L 2766 531 
Q 2569 213 2275 61 
Q 1981 -91 1556 -91 
Q 1019 -91 701 211 
Q 384 513 384 1019 
Q 384 1609 779 1909 
Q 1175 2209 1959 2209 
L 2766 2209 
L 2766 2266 
Q 2766 2663 2505 2880 
Q 2244 3097 1772 3097 
Q 1472 3097 1187 3025 
Q 903 2953 641 2809 
L 641 3341 
Q 956 3463 1253 3523 
Q 1550 3584 1831 3584 
Q 2591 3584 2966 3190 
Q 3341 2797 3341 1997 
z
" transform="scale(0.015625)"/>
       <path id="DejaVuSans-69" d="M 603 3500 
L 1178 3500 
L 1178 0 
L 603 0 
L 603 3500 
z
M 603 4863 
L 1178 4863 
L 1178 4134 
L 603 4134 
L 603 4863 
z
" transform="scale(0.015625)"/>
       <path id="DejaVuSans-6f" d="M 1959 3097 
Q 1497 3097 1228 2736 
Q 959 2375 959 1747 
Q 959 1119 1226 758 
Q 1494 397 1959 397 
Q 2419 397 2687 759 
Q 2956 1122 2956 1747 
Q 2956 2369 2687 2733 
Q 2419 3097 1959 3097 
z
M 1959 3584 
Q 2709 3584 3137 3096 
Q 3566 2609 3566 1747 
Q 3566 888 3137 398 
Q 2709 -91 1959 -91 
Q 1206 -91 779 398 
Q 353 888 353 1747 
Q 353 2609 779 3096 
Q 1206 3584 1959 3584 
z
" transform="scale(0.015625)"/>
       <path id="DejaVuSans-6e" d="M 3513 2113 
L 3513 0 
L 2938 0 
L 2938 2094 
Q 2938 2591 2744 2837 
Q 2550 3084 2163 3084 
Q 1697 3084 1428 2787 
Q 1159 2491 1159 1978 
L 1159 0 
L 581 0 
L 581 3500 
L 1159 3500 
L 1159 2956 
Q 1366 3272 1645 3428 
Q 1925 3584 2291 3584 
Q 2894 3584 3203 3211 
Q 3513 2838 3513 2113 
z
" transform="scale(0.015625)"/>
      </defs>
      <use xlink:href="#DejaVuSans-49"/>
      <use xlink:href="#DejaVuSans-74" transform="translate(29.492188 0)"/>
      <use xlink:href="#DejaVuSans-65" transform="translate(68.701172 0)"/>
      <use xlink:href="#DejaVuSans-72" transform="translate(130.224609 0)"/>
      <use xlink:href="#DejaVuSans-61" transform="translate(171.337891 0)"/>
      <use xlink:href="#DejaVuSans-74" transform="translate(232.617188 0)"/>
      <use xlink:href="#DejaVuSans-69" transform="translate(271.826172 0)"/>
      <use xlink:href="#DejaVuSans-6f" transform="translate(299.609375 0)"/>
      <use xlink:href="#DejaVuSans-6e" transform="translate(360.791016 0)"/>
     </g>
    </g>
   </g>
   <g id="matplotlib.axis_2">
    <g id="ytick_1">
     <g id="line2d_11">
      <path d="M 47.72 372.801818 
L 756.45 372.801818 
" clip-path="url(#peba7c4edc1)" style="fill: none; stroke: #b0b0b0; stroke-width: 0.8; stroke-linecap: square"/>
     </g>
     <g id="line2d_12">
      <defs>
       <path id="mc794b3c4f2" d="M 0 0 
L -3.5 0 
" style="stroke: #000000; stroke-width: 0.8"/>
      </defs>
      <g>
       <use xlink:href="#mc794b3c4f2" x="47.72" y="372.801818" style="stroke: #000000; stroke-width: 0.8"/>
      </g>
     </g>
     <g id="text_7">
      <!-- 0.0 -->
      <g transform="translate(24.816875 376.601037) scale(0.1 -0.1)">
       <defs>
        <path id="DejaVuSans-2e" d="M 684 794 
L 1344 794 
L 1344 0 
L 684 0 
L 684 794 
z
" transform="scale(0.015625)"/>
       </defs>
       <use xlink:href="#DejaVuSans-30"/>
       <use xlink:href="#DejaVuSans-2e" transform="translate(63.623047 0)"/>
       <use xlink:href="#DejaVuSans-30" transform="translate(95.410156 0)"/>
      </g>
     </g>
    </g>
    <g id="ytick_2">
     <g id="line2d_13">
      <path d="M 47.72 303.849091 
L 756.45 303.849091 
" clip-path="url(#peba7c4edc1)" style="fill: none; stroke: #b0b0b0; stroke-width: 0.8; stroke-linecap: square"/>
     </g>
     <g id="line2d_14">
      <g>
       <use xlink:href="#mc794b3c4f2" x="47.72" y="303.849091" style="stroke: #000000; stroke-width: 0.8"/>
      </g>
     </g>
     <g id="text_8">
      <!-- 0.2 -->
      <g transform="translate(24.816875 307.64831) scale(0.1 -0.1)">
       <use xlink:href="#DejaVuSans-30"/>
       <use xlink:href="#DejaVuSans-2e" transform="translate(63.623047 0)"/>
       <use xlink:href="#DejaVuSans-32" transform="translate(95.410156 0)"/>
      </g>
     </g>
    </g>
    <g id="ytick_3">
     <g id="line2d_15">
      <path d="M 47.72 234.896364 
L 756.45 234.896364 
" clip-path="url(#peba7c4edc1)" style="fill: none; stroke: #b0b0b0; stroke-width: 0.8; stroke-linecap: square"/>
     </g>
     <g id="line2d_16">
      <g>
       <use xlink:href="#mc794b3c4f2" x="47.72" y="234.896364" style="stroke: #000000; stroke-width: 0.8"/>
      </g>
     </g>
     <g id="text_9">
      <!-- 0.4 -->
      <g transform="translate(24.816875 238.695582) scale(0.1 -0.1)">
       <defs>
        <path id="DejaVuSans-34" d="M 2419 4116 
L 825 1625 
L 2419 1625 
L 2419 4116 
z
M 2253 4666 
L 3047 4666 
L 3047 1625 
L 3713 1625 
L 3713 1100 
L 3047 1100 
L 3047 0 
L 2419 0 
L 2419 1100 
L 313 1100 
L 313 1709 
L 2253 4666 
z
" transform="scale(0.015625)"/>
       </defs>
       <use xlink:href="#DejaVuSans-30"/>
       <use xlink:href="#DejaVuSans-2e" transform="translate(63.623047 0)"/>
       <use xlink:href="#DejaVuSans-34" transform="translate(95.410156 0)"/>
      </g>
     </g>
    </g>
    <g id="ytick_4">
     <g id="line2d_17">
      <path d="M 47.72 165.943636 
L 756.45 165.943636 
" clip-path="url(#peba7c4edc1)" style="fill: none; stroke: #b0b0b0; stroke-width: 0.8; stroke-linecap: square"/>
     </g>
     <g id="line2d_18">
      <g>
       <use xlink:href="#mc794b3c4f2" x="47.72" y="165.943636" style="stroke: #000000; stroke-width: 0.8"/>
      </g>
     </g>
     <g id="text_10">
      <!-- 0.6 -->
      <g transform="translate(24.816875 169.742855) scale(0.1 -0.1)">
       <defs>
        <path id="DejaVuSans-36" d="M 2113 2584 
Q 1688 2584 1439 2293 
Q 1191 2003 1191 1497 
Q 1191 994 1439 701 
Q 1688 409 2113 409 
Q 2538 409 2786 701 
Q 3034 994 3034 1497 
Q 3034 2003 2786 2293 
Q 2538 2584 2113 2584 
z
M 3366 4563 
L 3366 3988 
Q 3128 4100 2886 4159 
Q 2644 4219 2406 4219 
Q 1781 4219 1451 3797 
Q 1122 3375 1075 2522 
Q 1259 2794 1537 2939 
Q 1816 3084 2150 3084 
Q 2853 3084 3261 2657 
Q 3669 2231 3669 1497 
Q 3669 778 3244 343 
Q 2819 -91 2113 -91 
Q 1303 -91 875 529 
Q 447 1150 447 2328 
Q 447 3434 972 4092 
Q 1497 4750 2381 4750 
Q 2619 4750 2861 4703 
Q 3103 4656 3366 4563 
z
" transform="scale(0.015625)"/>
       </defs>
       <use xlink:href="#DejaVuSans-30"/>
       <use xlink:href="#DejaVuSans-2e" transform="translate(63.623047 0)"/>
       <use xlink:href="#DejaVuSans-36" transform="translate(95.410156 0)"/>
      </g>
     </g>
    </g>
    <g id="ytick_5">
     <g id="line2d_19">
      <path d="M 47.72 96.990909 
L 756.45 96.990909 
" clip-path="url(#peba7c4edc1)" style="fill: none; stroke: #b0b0b0; stroke-width: 0.8; stroke-linecap: square"/>
     </g>
     <g id="line2d_20">
      <g>
       <use xlink:href="#mc794b3c4f2" x="47.72" y="96.990909" style="stroke: #000000; stroke-width: 0.8"/>
      </g>
     </g>
     <g id="text_11">
      <!-- 0.8 -->
      <g transform="translate(24.816875 100.790128) scale(0.1 -0.1)">
       <defs>
        <path id="DejaVuSans-38" d="M 2034 2216 
Q 1584 2216 1326 1975 
Q 1069 1734 1069 1313 
Q 1069 891 1326 650 
Q 1584 409 2034 409 
Q 2484 409 2743 651 
Q 3003 894 3003 1313 
Q 3003 1734 2745 1975 
Q 2488 2216 2034 2216 
z
M 1403 2484 
Q 997 2584 770 2862 
Q 544 3141 544 3541 
Q 544 4100 942 4425 
Q 1341 4750 2034 4750 
Q 2731 4750 3128 4425 
Q 3525 4100 3525 3541 
Q 3525 3141 3298 2862 
Q 3072 2584 2669 2484 
Q 3125 2378 3379 2068 
Q 3634 1759 3634 1313 
Q 3634 634 3220 271 
Q 2806 -91 2034 -91 
Q 1263 -91 848 271 
Q 434 634 434 1313 
Q 434 1759 690 2068 
Q 947 2378 1403 2484 
z
M 1172 3481 
Q 1172 3119 1398 2916 
Q 1625 2713 2034 2713 
Q 2441 2713 2670 2916 
Q 2900 3119 2900 3481 
Q 2900 3844 2670 4047 
Q 2441 4250 2034 4250 
Q 1625 4250 1398 4047 
Q 1172 3844 1172 3481 
z
" transform="scale(0.015625)"/>
       </defs>
       <use xlink:href="#DejaVuSans-30"/>
       <use xlink:href="#DejaVuSans-2e" transform="translate(63.623047 0)"/>
       <use xlink:href="#DejaVuSans-38" transform="translate(95.410156 0)"/>
      </g>
     </g>
    </g>
    <g id="ytick_6">
     <g id="line2d_21">
      <path d="M 47.72 28.038182 
L 756.45 28.038182 
" clip-path="url(#peba7c4edc1)" style="fill: none; stroke: #b0b0b0; stroke-width: 0.8; stroke-linecap: square"/>
     </g>
     <g id="line2d_22">
      <g>
       <use xlink:href="#mc794b3c4f2" x="47.72" y="28.038182" style="stroke: #000000; stroke-width: 0.8"/>
      </g>
     </g>
     <g id="text_12">
      <!-- 1.0 -->
      <g transform="translate(24.816875 31.837401) scale(0.1 -0.1)">
       <use xlink:href="#DejaVuSans-31"/>
       <use xlink:href="#DejaVuSans-2e" transform="translate(63.623047 0)"/>
       <use xlink:href="#DejaVuSans-30" transform="translate(95.410156 0)"/>
      </g>
     </g>
    </g>
    <g id="text_13">
     <!-- Residual -->
     <g transform="translate(18.737188 221.535625) rotate(-90) scale(0.1 -0.1)">
      <defs>
       <path id="DejaVuSans-52" d="M 2841 2188 
Q 3044 2119 3236 1894 
Q 3428 1669 3622 1275 
L 4263 0 
L 3584 0 
L 2988 1197 
Q 2756 1666 2539 1819 
Q 2322 1972 1947 1972 
L 1259 1972 
L 1259 0 
L 628 0 
L 628 4666 
L 2053 4666 
Q 2853 4666 3247 4331 
Q 3641 3997 3641 3322 
Q 3641 2881 3436 2590 
Q 3231 2300 2841 2188 
z
M 1259 4147 
L 1259 2491 
L 2053 2491 
Q 2509 2491 2742 2702 
Q 2975 2913 2975 3322 
Q 2975 3731 2742 3939 
Q 2509 4147 2053 4147 
L 1259 4147 
z
" transform="scale(0.015625)"/>
       <path id="DejaVuSans-73" d="M 2834 3397 
L 2834 2853 
Q 2591 2978 2328 3040 
Q 2066 3103 1784 3103 
Q 1356 3103 1142 2972 
Q 928 2841 928 2578 
Q 928 2378 1081 2264 
Q 1234 2150 1697 2047 
L 1894 2003 
Q 2506 1872 2764 1633 
Q 3022 1394 3022 966 
Q 3022 478 2636 193 
Q 2250 -91 1575 -91 
Q 1294 -91 989 -36 
Q 684 19 347 128 
L 347 722 
Q 666 556 975 473 
Q 1284 391 1588 391 
Q 1994 391 2212 530 
Q 2431 669 2431 922 
Q 2431 1156 2273 1281 
Q 2116 1406 1581 1522 
L 1381 1569 
Q 847 1681 609 1914 
Q 372 2147 372 2553 
Q 372 3047 722 3315 
Q 1072 3584 1716 3584 
Q 2034 3584 2315 3537 
Q 2597 3491 2834 3397 
z
" transform="scale(0.015625)"/>
       <path id="DejaVuSans-64" d="M 2906 2969 
L 2906 4863 
L 3481 4863 
L 3481 0 
L 2906 0 
L 2906 525 
Q 2725 213 2448 61 
Q 2172 -91 1784 -91 
Q 1150 -91 751 415 
Q 353 922 353 1747 
Q 353 2572 751 3078 
Q 1150 3584 1784 3584 
Q 2172 3584 2448 3432 
Q 2725 3281 2906 2969 
z
M 947 1747 
Q 947 1113 1208 752 
Q 1469 391 1925 391 
Q 2381 391 2643 752 
Q 2906 1113 2906 1747 
Q 2906 2381 2643 2742 
Q 2381 3103 1925 3103 
Q 1469 3103 1208 2742 
Q 947 2381 947 1747 
z
" transform="scale(0.015625)"/>
       <path id="DejaVuSans-75" d="M 544 1381 
L 544 3500 
L 1119 3500 
L 1119 1403 
Q 1119 906 1312 657 
Q 1506 409 1894 409 
Q 2359 409 2629 706 
Q 2900 1003 2900 1516 
L 2900 3500 
L 3475 3500 
L 3475 0 
L 2900 0 
L 2900 538 
Q 2691 219 2414 64 
Q 2138 -91 1772 -91 
Q 1169 -91 856 284 
Q 544 659 544 1381 
z
M 1991 3584 
L 1991 3584 
z
" transform="scale(0.015625)"/>
       <path id="DejaVuSans-6c" d="M 603 4863 
L 1178 4863 
L 1178 0 
L 603 0 
L 603 4863 
z
" transform="scale(0.015625)"/>
      </defs>
      <use xlink:href="#DejaVuSans-52"/>
      <use xlink:href="#DejaVuSans-65" transform="translate(64.982422 0)"/>
      <use xlink:href="#DejaVuSans-73" transform="translate(126.505859 0)"/>
      <use xlink:href="#DejaVuSans-69" transform="translate(178.605469 0)"/>
      <use xlink:href="#DejaVuSans-64" transform="translate(206.388672 0)"/>
      <use xlink:href="#DejaVuSans-75" transform="translate(269.865234 0)"/>
      <use xlink:href="#DejaVuSans-61" transform="translate(333.244141 0)"/>
      <use xlink:href="#DejaVuSans-6c" transform="translate(394.523438 0)"/>
     </g>
    </g>
   </g>
   <g id="line2d_23">
    <defs>
     <path id="m5f7fcd68d1" d="M 0 3 
C 0.795609 3 1.55874 2.683901 2.12132 2.12132 
C 2.683901 1.55874 3 0.795609 3 0 
C 3 -0.795609 2.683901 -1.55874 2.12132 -2.12132 
C 1.55874 -2.683901 0.795609 -3 0 -3 
C -0.795609 -3 -1.55874 -2.683901 -2.12132 -2.12132 
C -2.683901 -1.55874 -3 -0.795609 -3 0 
C -3 0.795609 -2.683901 1.55874 -2.12132 2.12132 
C -1.55874 2.683901 -0.795609 3 0 3 
z
" style="stroke: #1f77b4"/>
    </defs>
    <g clip-path="url(#peba7c4edc1)">
     <use xlink:href="#m5f7fcd68d1" x="79.935" y="372.801818" style="fill: #1f77b4; stroke: #1f77b4"/>
    </g>
   </g>
   <g id="line2d_24">
    <defs>
     <path id="mbc4c9faca2" d="M 0 3 
C 0.795609 3 1.55874 2.683901 2.12132 2.12132 
C 2.683901 1.55874 3 0.795609 3 0 
C 3 -0.795609 2.683901 -1.55874 2.12132 -2.12132 
C 1.55874 -2.683901 0.795609 -3 0 -3 
C -0.795609 -3 -1.55874 -2.683901 -2.12132 -2.12132 
C -2.683901 -1.55874 -3 -0.795609 -3 0 
C -3 0.795609 -2.683901 1.55874 -2.12132 2.12132 
C -1.55874 2.683901 -0.795609 3 0 3 
z
" style="stroke: #ff7f0e"/>
    </defs>
    <g clip-path="url(#peba7c4edc1)">
     <use xlink:href="#mbc4c9faca2" x="79.935" y="282.581892" style="fill: #ff7f0e; stroke: #ff7f0e"/>
    </g>
   </g>
   <g id="line2d_25">
    <defs>
     <path id="m93803fa3ec" d="M 0 3 
C 0.795609 3 1.55874 2.683901 2.12132 2.12132 
C 2.683901 1.55874 3 0.795609 3 0 
C 3 -0.795609 2.683901 -1.55874 2.12132 -2.12132 
C 1.55874 -2.683901 0.795609 -3 0 -3 
C -0.795609 -3 -1.55874 -2.683901 -2.12132 -2.12132 
C -2.683901 -1.55874 -3 -0.795609 -3 0 
C -3 0.795609 -2.683901 1.55874 -2.12132 2.12132 
C -1.55874 2.683901 -0.795609 3 0 3 
z
" style="stroke: #2ca02c"/>
    </defs>
    <g clip-path="url(#peba7c4edc1)">
     <use xlink:href="#m93803fa3ec" x="79.935" y="265.354963" style="fill: #2ca02c; stroke: #2ca02c"/>
    </g>
   </g>
   <g id="line2d_26">
    <defs>
     <path id="m8d856c6e1e" d="M 0 3 
C 0.795609 3 1.55874 2.683901 2.12132 2.12132 
C 2.683901 1.55874 3 0.795609 3 0 
C 3 -0.795609 2.683901 -1.55874 2.12132 -2.12132 
C 1.55874 -2.683901 0.795609 -3 0 -3 
C -0.795609 -3 -1.55874 -2.683901 -2.12132 -2.12132 
C -2.683901 -1.55874 -3 -0.795609 -3 0 
C -3 0.795609 -2.683901 1.55874 -2.12132 2.12132 
C -1.55874 2.683901 -0.795609 3 0 3 
z
" style="stroke: #d62728"/>
    </defs>
    <g clip-path="url(#peba7c4edc1)">
     <use xlink:href="#m8d856c6e1e" x="79.935" y="325.774757" style="fill: #d62728; stroke: #d62728"/>
    </g>
   </g>
   <g id="line2d_27">
    <defs>
     <path id="m1282cc8f4f" d="M 0 3 
C 0.795609 3 1.55874 2.683901 2.12132 2.12132 
C 2.683901 1.55874 3 0.795609 3 0 
C 3 -0.795609 2.683901 -1.55874 2.12132 -2.12132 
C 1.55874 -2.683901 0.795609 -3 0 -3 
C -0.795609 -3 -1.55874 -2.683901 -2.12132 -2.12132 
C -2.683901 -1.55874 -3 -0.795609 -3 0 
C -3 0.795609 -2.683901 1.55874 -2.12132 2.12132 
C -1.55874 2.683901 -0.795609 3 0 3 
z
" style="stroke: #9467bd"/>
    </defs>
    <g clip-path="url(#peba7c4edc1)">
     <use xlink:href="#m1282cc8f4f" x="79.935" y="360.044977" style="fill: #9467bd; stroke: #9467bd"/>
    </g>
   </g>
   <g id="line2d_28">
    <path d="M 79.935 28.038182 
L 80.209872 29.560609 
L 80.484744 47.307136 
L 80.759616 48.339653 
L 81.034488 64.097859 
L 81.30936 73.437629 
L 81.584232 94.007773 
L 81.859104 111.162261 
L 82.133976 130.967113 
L 82.408848 144.383296 
L 82.68372 156.703959 
L 82.958592 173.190675 
L 83.233464 188.712977 
L 83.508336 205.58113 
L 83.783208 217.566628 
L 84.05808 228.254938 
L 84.332952 238.782753 
L 84.607824 247.673234 
L 84.882696 259.318581 
L 85.157568 272.353175 
L 85.43244 287.970609 
L 85.707312 302.894745 
L 85.982184 315.374979 
L 86.257056 334.367287 
L 86.531928 346.745684 
L 86.8068 359.200072 
L 87.081672 367.455803 
L 87.356544 372.801818 
L 87.631416 372.646386 
" clip-path="url(#peba7c4edc1)" style="fill: none; stroke: #8c564b; stroke-width: 1.5; stroke-linecap: square"/>
   </g>
   <g id="line2d_29">
    <path d="M 79.935 28.038182 
L 80.759616 35.719874 
L 82.133976 47.076566 
L 82.408848 49.955738 
L 83.233464 55.134575 
L 83.508336 57.690171 
L 83.783208 58.874951 
L 84.882696 65.25484 
L 85.157568 66.612025 
L 85.43244 69.197623 
L 85.982184 71.754873 
L 89.005776 89.74453 
L 90.105265 95.127276 
L 90.929881 98.901612 
L 91.479625 102.33392 
L 91.754497 102.845604 
L 92.029369 104.613839 
L 92.304241 105.306902 
L 93.128857 110.048851 
L 93.953473 113.531879 
L 94.228345 113.955437 
L 94.503217 115.848967 
L 94.778089 116.288896 
L 95.602705 120.656684 
L 95.877577 122.210088 
L 96.152449 122.9775 
L 96.427321 124.515352 
L 96.702193 125.22258 
L 97.251937 127.818423 
L 97.801681 131.303087 
L 98.076553 131.889067 
L 101.100145 142.787041 
L 101.924761 146.420701 
L 102.199633 147.143037 
L 102.749377 149.059731 
L 103.299121 150.599771 
L 103.573993 151.914333 
L 104.948353 154.806128 
L 105.223225 155.842149 
L 105.498097 156.368967 
L 105.772969 157.280244 
L 106.047841 158.996511 
L 106.322713 159.711662 
L 107.147329 162.81478 
L 108.521689 166.563084 
L 108.796561 167.093329 
L 109.346305 168.999157 
L 109.896049 170.064483 
L 110.170922 170.602854 
L 111.820154 176.45897 
L 112.369898 178.03031 
L 112.64477 178.426025 
L 112.919642 179.052647 
L 113.194514 180.034775 
L 113.469386 180.420985 
L 114.01913 182.117567 
L 115.39349 185.004106 
L 116.218106 185.999178 
L 116.76785 187.332701 
L 117.317594 187.962089 
L 117.592466 188.791262 
L 118.417082 190.162427 
L 118.966826 191.711516 
L 121.440674 195.598663 
L 121.990418 197.185125 
L 122.26529 197.500661 
L 122.540162 198.163728 
L 123.364778 199.143977 
L 123.63965 200.24629 
L 124.189394 201.170561 
L 124.464266 201.864935 
L 124.739138 202.168819 
L 125.01401 202.64684 
L 125.288882 203.61084 
L 125.563754 204.071993 
L 125.838626 205.372212 
L 126.38837 206.521561 
L 126.938114 208.123705 
L 127.487858 208.908516 
L 127.76273 209.843638 
L 128.037602 210.061241 
L 129.13709 211.444124 
L 129.686834 213.437307 
L 129.961706 213.859393 
L 130.236578 214.586791 
L 130.511451 214.808736 
L 130.786323 215.238736 
L 131.061195 216.078274 
L 131.336067 216.35955 
L 132.160683 218.629382 
L 132.435555 218.950608 
L 132.985299 220.670888 
L 134.084787 222.790255 
L 134.359659 223.228795 
L 134.634531 223.38994 
L 135.184275 224.906365 
L 136.008891 226.200035 
L 136.283763 226.885867 
L 136.833507 227.562872 
L 137.108379 227.733715 
L 137.383251 228.315221 
L 137.932995 229.958194 
L 138.207867 230.155128 
L 138.482739 230.702279 
L 138.757611 230.907884 
L 139.032483 231.331612 
L 139.307355 231.46144 
L 139.857099 232.543678 
L 140.406843 233.234519 
L 140.681715 233.968428 
L 140.956587 234.072192 
L 141.781203 235.20628 
L 142.056075 235.712739 
L 142.330947 235.902978 
L 142.605819 236.714467 
L 142.880691 236.923472 
L 143.155563 237.85101 
L 143.980179 238.707173 
L 144.529923 239.414667 
L 145.354539 241.209941 
L 145.629411 241.582151 
L 146.179155 242.60425 
L 146.728899 243.061985 
L 147.003771 243.303174 
L 147.278643 243.720365 
L 147.553515 244.376028 
L 148.103259 245.079375 
L 148.927875 246.362737 
L 149.477619 246.706134 
L 150.302235 247.653732 
L 150.85198 249.027463 
L 151.126852 249.137549 
L 151.951468 250.579887 
L 152.22634 250.683947 
L 152.501212 251.091368 
L 152.776084 251.749801 
L 153.325828 252.328835 
L 154.700188 253.712323 
L 155.249932 254.674477 
L 155.524804 254.862062 
L 155.799676 255.419063 
L 156.074548 255.614729 
L 156.34942 256.157265 
L 156.624292 256.44519 
L 156.899164 257.150653 
L 157.448908 257.616866 
L 157.72378 259.373778 
L 157.998652 260.158551 
L 158.823268 260.837825 
L 159.09814 261.384323 
L 159.373012 261.660759 
L 159.647884 262.127465 
L 159.922756 262.288489 
L 161.022244 263.612445 
L 161.297116 264.210896 
L 161.84686 264.610631 
L 162.121732 265.004364 
L 162.946348 265.551727 
L 163.22122 265.899844 
L 163.770964 266.165288 
L 164.59558 267.306108 
L 165.420196 268.393034 
L 165.695068 268.952924 
L 166.244812 269.640769 
L 166.794556 270.642116 
L 167.069428 270.884427 
L 167.3443 271.422513 
L 168.443788 272.32716 
L 168.993532 272.905089 
L 169.543276 273.471017 
L 170.09302 274.385411 
L 170.367892 274.515514 
L 170.642765 275.690077 
L 171.742253 277.084974 
L 172.017125 277.161104 
L 172.566869 277.802395 
L 172.841741 277.906119 
L 173.941229 279.203867 
L 174.765845 280.427053 
L 175.040717 280.603045 
L 175.315589 281.23961 
L 175.590461 281.437076 
L 176.964821 283.178369 
L 177.239693 283.275311 
L 177.789437 283.810887 
L 178.339181 284.313946 
L 178.614053 284.519556 
L 178.888925 285.017944 
L 179.988413 285.952102 
L 180.813029 286.354537 
L 181.912517 287.835477 
L 182.187389 287.979185 
L 182.737133 288.529553 
L 183.286877 288.837995 
L 184.386365 289.874653 
L 184.936109 290.461199 
L 185.210981 290.683297 
L 185.485853 291.257081 
L 186.310469 291.972021 
L 186.585341 292.391875 
L 186.860213 292.514978 
L 187.135085 293.219288 
L 187.409957 293.296148 
L 188.784317 294.456698 
L 190.433549 295.691944 
L 191.533038 297.01161 
L 194.006886 299.230198 
L 194.281758 299.289148 
L 195.656118 300.445757 
L 196.205862 301.052342 
L 197.580222 302.10173 
L 197.855094 302.209289 
L 198.404838 302.828181 
L 199.504326 303.447606 
L 199.779198 303.798786 
L 200.878686 304.427719 
L 201.153558 304.811711 
L 203.627406 306.508972 
L 203.902278 307.123805 
L 204.452022 307.46324 
L 204.726894 307.644354 
L 205.001766 308.018224 
L 206.650998 309.014553 
L 207.200742 309.416987 
L 207.750486 309.580695 
L 208.30023 310.005267 
L 209.124846 310.400082 
L 209.67459 310.669886 
L 210.499206 311.183387 
L 211.048951 311.613303 
L 211.598695 311.916844 
L 211.873567 311.974759 
L 212.423311 312.444586 
L 213.522799 313.029319 
L 213.797671 313.981972 
L 218.745367 316.991661 
L 220.119727 317.622605 
L 222.043831 319.232023 
L 222.593575 319.425245 
L 222.868447 320.097171 
L 223.143319 320.215626 
L 223.418191 320.459276 
L 224.242807 320.797993 
L 224.792551 321.140988 
L 225.892039 321.609173 
L 226.166911 322.137013 
L 227.541271 322.928145 
L 228.091015 323.295706 
L 228.640759 323.53542 
L 229.740247 324.505899 
L 230.289991 324.713671 
L 231.114608 325.250532 
L 231.38948 325.755016 
L 232.488968 326.312828 
L 233.038712 326.534185 
L 233.588456 326.712748 
L 234.962816 327.287106 
L 235.787432 327.747082 
L 236.337176 328.010935 
L 237.436664 328.68833 
L 240.185384 329.763086 
L 240.735128 330.269213 
L 241.284872 330.50863 
L 241.834616 330.764556 
L 242.38436 331.748308 
L 242.659232 331.866203 
L 243.208976 332.234694 
L 244.308464 332.717218 
L 244.583336 333.045232 
L 245.407952 333.321146 
L 245.682824 333.707519 
L 247.057184 334.306558 
L 247.332056 334.380219 
L 247.606928 334.602347 
L 247.8818 334.640871 
L 248.156672 334.969516 
L 248.431544 335.501517 
L 249.531032 335.889348 
L 250.080776 336.337948 
L 250.355648 336.443072 
L 250.905392 336.833457 
L 251.455137 337.050753 
L 252.554625 337.412564 
L 253.379241 337.750549 
L 254.753601 338.310081 
L 255.028473 338.683064 
L 256.127961 339.045248 
L 256.952577 339.363321 
L 257.227449 339.721338 
L 261.075657 341.280783 
L 261.350529 341.579495 
L 262.175145 341.754201 
L 263.274633 342.497635 
L 266.298225 343.71525 
L 266.573097 343.914818 
L 266.847969 344.299777 
L 268.497201 345.027546 
L 269.871561 345.35787 
L 270.421305 345.682116 
L 282.240802 349.511136 
L 282.515674 350.192559 
L 283.890034 350.669613 
L 285.814138 351.3245 
L 286.08901 351.619306 
L 286.638754 351.753852 
L 288.287986 352.1859 
L 288.562858 352.272581 
L 288.83773 352.624132 
L 290.21209 353.062676 
L 290.486962 353.099147 
L 291.036706 353.308092 
L 291.586451 353.448619 
L 293.235683 354.028024 
L 294.335171 354.403034 
L 294.610043 354.634909 
L 294.884915 354.687885 
L 295.159787 354.997314 
L 296.809019 355.482364 
L 297.083891 355.71942 
L 297.633635 355.826386 
L 299.007995 356.593222 
L 299.557739 356.713108 
L 300.107483 357.043752 
L 300.932099 357.295661 
L 301.756715 357.764812 
L 304.230563 358.283964 
L 304.780307 358.617421 
L 305.330051 358.810259 
L 305.604923 358.850194 
L 306.154667 359.086088 
L 307.803899 359.406392 
L 308.353643 359.570563 
L 308.903387 359.766446 
L 309.453131 359.849332 
L 310.552619 360.315881 
L 311.102363 360.392926 
L 311.377235 360.58835 
L 313.30134 361.028241 
L 313.576212 361.166494 
L 313.851084 361.536353 
L 318.523908 362.791105 
L 320.17314 363.025218 
L 321.5475 363.459093 
L 322.097244 363.541706 
L 323.196732 364.138429 
L 323.471604 364.601182 
L 324.571092 364.848774 
L 326.220324 365.538308 
L 327.04494 365.683275 
L 330.893148 366.713679 
L 331.442892 367.063532 
L 332.542381 367.279164 
L 339.414181 368.93724 
L 341.338285 369.411451 
L 341.888029 369.651998 
L 342.437773 369.779703 
L 342.712645 370.012908 
L 352.058294 372.193937 
L 352.88291 372.400926 
L 354.532142 372.801818 
L 354.532142 372.801818 
" clip-path="url(#peba7c4edc1)" style="fill: none; stroke: #e377c2; stroke-width: 1.5; stroke-linecap: square"/>
   </g>
   <g id="line2d_30">
    <path d="M 79.935 28.038182 
L 80.759616 36.25916 
L 82.133976 48.413999 
L 82.408848 51.368552 
L 83.233464 56.840416 
L 83.508336 59.567371 
L 83.783208 60.777352 
L 84.607824 66.415944 
L 85.157568 69.194476 
L 85.43244 71.893642 
L 85.982184 74.559658 
L 86.257056 76.577336 
L 86.531928 77.714897 
L 86.8068 80.305039 
L 87.081672 81.532851 
L 88.730904 93.068989 
L 89.005776 93.615412 
L 90.105265 99.326015 
L 90.655009 101.76713 
L 91.479625 107.009479 
L 91.754497 107.498171 
L 92.029369 109.366477 
L 92.304241 110.107391 
L 93.128857 115.082905 
L 93.953473 118.809563 
L 94.228345 119.196501 
L 94.503217 121.188112 
L 94.778089 121.524111 
L 95.327833 124.448824 
L 95.877577 128.057789 
L 96.152449 128.781883 
L 96.427321 130.459936 
L 96.702193 131.202871 
L 98.076553 137.865813 
L 100.275529 145.722681 
L 101.924761 152.948768 
L 103.299121 157.378286 
L 103.848865 159.380159 
L 104.123737 159.819984 
L 104.398609 160.678531 
L 104.673481 161.107859 
L 104.948353 161.790408 
L 105.223225 162.999615 
L 105.772969 164.332435 
L 106.047841 166.077286 
L 108.796561 174.689791 
L 109.071433 175.370925 
L 109.621177 177.160485 
L 109.896049 177.432585 
L 110.170922 178.010646 
L 110.720666 180.042635 
L 110.995538 180.825576 
L 111.545282 183.620005 
L 111.820154 184.060504 
L 112.369898 185.561729 
L 112.64477 185.88446 
L 112.919642 186.531965 
L 113.194514 187.724396 
L 113.469386 188.076175 
L 114.01913 189.816877 
L 117.042722 195.536206 
L 117.317594 195.724822 
L 117.592466 196.671904 
L 117.867338 196.863749 
L 118.14221 197.215102 
L 118.417082 197.808127 
L 118.966826 199.5145 
L 119.241698 199.725049 
L 119.51657 200.421933 
L 119.791442 200.473201 
L 121.440674 203.401238 
L 121.715546 204.5198 
L 121.990418 205.098102 
L 122.26529 205.283108 
L 122.540162 206.002931 
L 122.815034 206.193196 
L 123.089906 206.770408 
L 123.364778 206.751346 
L 123.63965 207.987851 
L 124.189394 208.959938 
L 124.464266 209.783585 
L 125.01401 210.532801 
L 125.288882 211.24213 
L 125.563754 211.56445 
L 125.838626 213.227735 
L 126.38837 214.20751 
L 127.212986 216.217965 
L 127.487858 216.716725 
L 127.76273 217.548532 
L 128.587346 218.419588 
L 129.13709 219.043131 
L 129.686834 220.880488 
L 129.961706 221.172251 
L 130.236578 221.945325 
L 130.511451 222.003335 
L 130.786323 222.540473 
L 131.061195 223.670722 
L 131.336067 223.815216 
L 132.160683 226.1719 
L 132.435555 226.328766 
L 132.710427 227.475504 
L 134.359659 230.603411 
L 134.634531 230.609429 
L 135.184275 232.13031 
L 135.459147 232.668464 
L 135.734019 232.938394 
L 136.558635 234.417574 
L 136.833507 234.402572 
L 137.108379 234.623021 
L 137.658123 236.694973 
L 137.932995 237.164417 
L 138.207867 237.153367 
L 138.482739 237.872915 
L 139.307355 238.744028 
L 139.857099 239.76394 
L 140.131971 240.008886 
L 140.681715 241.417296 
L 140.956587 241.157666 
L 141.231459 241.486051 
L 141.506331 241.53621 
L 141.781203 242.562913 
L 142.056075 242.663707 
L 142.330947 243.042788 
L 142.605819 243.827448 
L 142.880691 244.090455 
L 143.155563 245.031304 
L 144.255051 246.133692 
L 144.529923 246.459449 
L 146.179155 249.457203 
L 146.454027 249.49617 
L 147.003771 250.25294 
L 147.278643 250.583743 
L 147.828387 251.532827 
L 148.103259 251.696671 
L 148.378131 252.599628 
L 149.202747 253.421499 
L 149.477619 253.463965 
L 150.027363 254.456609 
L 150.302235 254.387013 
L 150.85198 255.778765 
L 151.126852 255.846747 
L 151.401724 256.480927 
L 151.676596 256.809699 
L 151.951468 257.394601 
L 152.22634 257.411878 
L 152.501212 257.699294 
L 153.050956 258.788804 
L 153.325828 258.813835 
L 153.6007 258.988352 
L 154.700188 260.473358 
L 155.249932 261.056071 
L 155.524804 261.362857 
L 155.799676 261.973125 
L 156.074548 262.125936 
L 156.34942 262.610972 
L 156.624292 262.823376 
L 156.899164 263.623205 
L 157.174036 263.864229 
L 157.448908 264.429379 
L 157.72378 266.408263 
L 158.823268 267.585446 
L 159.373012 268.324687 
L 159.647884 268.477256 
L 160.747372 269.74817 
L 161.022244 269.643661 
L 161.297116 270.577261 
L 161.84686 270.75996 
L 162.396604 271.660829 
L 162.671476 271.701379 
L 163.22122 272.182177 
L 163.496092 272.620166 
L 163.770964 272.776504 
L 164.320708 273.586285 
L 164.59558 273.677061 
L 165.145324 274.422116 
L 165.420196 274.572612 
L 165.96994 275.814981 
L 166.244812 275.896375 
L 167.069428 277.047207 
L 167.3443 277.776015 
L 167.894044 278.179067 
L 168.168916 278.569913 
L 168.443788 278.577099 
L 168.71866 279.03853 
L 168.993532 278.982288 
L 169.268404 279.204867 
L 169.543276 279.731376 
L 170.09302 280.056327 
L 170.367892 280.538021 
L 170.642765 282.232665 
L 171.192509 282.687898 
L 171.467381 283.532352 
L 171.742253 283.817652 
L 172.017125 283.895942 
L 172.291997 284.504409 
L 172.566869 284.195502 
L 173.666357 284.891015 
L 175.040717 286.896357 
L 175.315589 287.512373 
L 175.590461 287.411836 
L 176.140205 287.858101 
L 176.415077 288.395002 
L 176.689949 288.404302 
L 176.964821 289.295302 
L 177.514565 289.682193 
L 177.789437 289.693563 
L 178.064309 290.121553 
L 178.339181 290.098766 
L 179.163797 291.140829 
L 179.438669 291.119327 
L 179.713541 291.540854 
L 180.263285 291.220567 
L 180.538157 291.86703 
L 181.912517 293.341966 
L 182.187389 293.887092 
L 182.462261 293.935317 
L 183.012005 294.785364 
L 183.286877 294.584 
L 183.836621 295.116989 
L 184.111493 295.497654 
L 184.386365 295.293674 
L 185.210981 295.969684 
L 185.485853 296.521776 
L 186.035597 296.931768 
L 186.310469 297.302922 
L 186.585341 297.906104 
L 186.860213 297.952183 
L 187.135085 299.162188 
L 187.409957 298.973004 
L 187.684829 299.078483 
L 187.959701 298.922582 
L 188.509445 299.42756 
L 188.784317 299.948834 
L 189.059189 300.207288 
L 189.334061 300.202945 
L 189.608933 300.698707 
L 190.158677 301.129309 
L 190.433549 300.932254 
L 191.80791 302.46865 
L 192.082782 302.431368 
L 192.357654 303.102355 
L 192.632526 303.037073 
L 193.732014 304.177509 
L 194.281758 304.085489 
L 194.55663 304.341234 
L 194.831502 304.880759 
L 195.656118 305.512304 
L 195.93099 305.422656 
L 196.480734 305.644823 
L 196.755606 305.443849 
L 197.030478 306.295193 
L 197.30535 306.316056 
L 197.855094 306.897195 
L 198.67971 307.774325 
L 198.954582 307.558503 
L 199.229454 307.802106 
L 199.504326 307.870805 
L 199.779198 308.534953 
L 200.328942 308.856942 
L 200.878686 308.536317 
L 201.153558 309.438181 
L 201.42843 309.528145 
L 201.703302 309.858238 
L 202.253046 309.864501 
L 203.077662 310.184881 
L 203.627406 310.792208 
L 204.17715 311.893643 
L 204.452022 311.747409 
L 205.001766 312.354389 
L 205.276638 312.700534 
L 205.826382 312.71978 
L 206.101254 313.003632 
L 206.376126 313.102952 
L 206.650998 313.483731 
L 206.92587 313.606506 
L 207.200742 313.586718 
L 207.475614 313.85765 
L 207.750486 313.670009 
L 208.30023 313.966044 
L 208.575102 314.079376 
L 208.849974 313.810946 
L 209.124846 314.282162 
L 209.399718 314.012053 
L 209.67459 314.441755 
L 209.949462 314.569817 
L 210.499206 315.310249 
L 212.148439 316.017154 
L 212.423311 316.345438 
L 212.973055 316.267548 
L 213.247927 316.637653 
L 213.522799 316.715224 
L 213.797671 317.965151 
L 214.072543 318.065787 
L 214.347415 318.344837 
L 214.897159 318.580511 
L 215.172031 318.974509 
L 215.721775 319.238848 
L 215.996647 319.594169 
L 216.271519 319.34878 
L 216.546391 319.377346 
L 216.821263 319.847041 
L 217.096135 319.365195 
L 217.371007 319.545496 
L 217.645879 320.021695 
L 217.920751 320.155345 
L 218.195623 320.759315 
L 218.745367 321.001523 
L 219.020239 320.797899 
L 219.295111 320.817219 
L 219.569983 320.617205 
L 220.394599 320.816348 
L 221.219215 321.733957 
L 221.768959 322.104917 
L 222.043831 322.103435 
L 222.318703 322.516368 
L 222.593575 322.239202 
L 222.868447 323.29177 
L 223.143319 323.244219 
L 223.418191 324.213141 
L 223.693063 324.441242 
L 223.967935 324.346357 
L 224.242807 324.065555 
L 224.517679 324.526901 
L 224.792551 324.221351 
L 225.892039 324.304087 
L 226.166911 324.984537 
L 226.441783 324.982472 
L 226.716655 325.284352 
L 226.991527 325.216271 
L 227.541271 325.685853 
L 228.091015 326.47968 
L 228.640759 326.558452 
L 228.915631 327.122506 
L 229.190503 326.722251 
L 229.465375 327.138401 
L 230.015119 327.387151 
L 230.564863 328.232002 
L 230.839735 328.060705 
L 231.114608 328.283286 
L 231.38948 328.748697 
L 231.664352 328.357164 
L 231.939224 328.857606 
L 232.214096 329.010461 
L 232.488968 329.425033 
L 232.76384 329.050277 
L 233.313584 329.870889 
L 233.588456 329.99568 
L 233.863328 329.843586 
L 234.1382 329.902883 
L 234.413072 329.528074 
L 234.687944 329.562825 
L 235.787432 330.610891 
L 236.337176 330.608625 
L 236.612048 330.493421 
L 236.88692 330.642422 
L 237.161792 330.547361 
L 237.436664 331.321952 
L 237.711536 331.534753 
L 237.986408 331.371184 
L 238.26128 331.66511 
L 238.536152 331.530745 
L 238.811024 331.610672 
L 239.360768 332.199459 
L 239.910512 331.92671 
L 240.185384 332.234476 
L 240.460256 331.97139 
L 240.735128 332.352343 
L 241.01 332.432954 
L 241.284872 332.336053 
L 241.834616 332.721986 
L 242.109488 333.72917 
L 242.934104 334.893539 
L 243.483848 335.076192 
L 243.75872 334.994592 
L 244.033592 335.497071 
L 244.858208 336.187532 
L 245.407952 336.13906 
L 245.957696 336.85847 
L 247.057184 336.972916 
L 247.332056 336.82706 
L 247.606928 336.845175 
L 248.156672 337.473509 
L 248.431544 338.103235 
L 248.706416 337.970825 
L 248.981288 338.025734 
L 249.25616 337.957507 
L 249.531032 338.14127 
L 249.805904 339.064019 
L 250.080776 339.01804 
L 250.355648 339.477202 
L 250.63052 339.365308 
L 251.180265 339.551563 
L 251.455137 339.926335 
L 252.004881 339.869162 
L 252.554625 340.417956 
L 252.829497 340.374131 
L 253.379241 340.818235 
L 253.928985 340.549436 
L 254.203857 340.659736 
L 254.478729 340.998155 
L 254.753601 340.88231 
L 255.028473 341.236414 
L 255.578217 341.624752 
L 256.402833 341.110542 
L 256.677705 341.372889 
L 256.952577 341.867824 
L 257.227449 342.115097 
L 257.502321 341.816391 
L 257.777193 341.821359 
L 258.601809 343.296504 
L 259.151553 343.620245 
L 259.426425 343.259952 
L 259.701297 343.311054 
L 259.976169 343.157502 
L 260.251041 343.537657 
L 260.525913 343.419721 
L 260.800785 343.854099 
L 261.075657 343.326494 
L 261.350529 343.572506 
L 261.625401 343.35488 
L 261.900273 343.54852 
L 262.175145 344.08182 
L 262.450017 344.295656 
L 262.724889 344.022593 
L 263.549505 344.396447 
L 263.824377 343.743526 
L 264.374121 343.81255 
L 264.648993 344.2099 
L 264.923865 344.897145 
L 265.198737 344.941134 
L 265.473609 345.16516 
L 265.748481 345.828639 
L 266.298225 346.325326 
L 266.573097 346.18167 
L 266.847969 346.916055 
L 267.122841 347.121729 
L 267.672585 346.987452 
L 268.497201 347.31845 
L 269.046945 347.535832 
L 269.321817 347.417117 
L 269.871561 346.810457 
L 270.146433 347.776469 
L 270.421305 347.092461 
L 270.696177 347.41661 
L 270.971049 347.288373 
L 271.520794 348.471685 
L 272.070538 348.179767 
L 272.34541 348.27088 
L 272.620282 348.206376 
L 272.895154 347.94843 
L 273.170026 348.061306 
L 273.444898 347.911362 
L 274.269514 348.511943 
L 274.819258 348.524595 
L 275.09413 348.307336 
L 275.369002 349.014093 
L 275.643874 349.245049 
L 275.918746 348.894576 
L 276.193618 349.002984 
L 276.46849 348.863053 
L 276.743362 349.177781 
L 277.018234 349.021129 
L 277.293106 349.637695 
L 277.567978 349.705755 
L 278.667466 348.938369 
L 278.942338 348.560308 
L 279.766954 348.897356 
L 280.316698 349.495709 
L 280.59157 349.612911 
L 280.866442 349.514589 
L 281.141314 349.947531 
L 281.416186 350.055627 
L 281.96593 349.943046 
L 282.240802 350.277576 
L 282.515674 351.53739 
L 282.790546 351.549397 
L 283.065418 351.851004 
L 283.34029 351.760972 
L 283.890034 352.0063 
L 284.439778 352.172618 
L 284.71465 352.80794 
L 285.264394 352.927707 
L 285.814138 352.533439 
L 286.08901 352.975645 
L 286.363882 352.748922 
L 286.638754 352.727751 
L 286.913626 352.526346 
L 287.46337 353.382639 
L 287.738242 353.236464 
L 288.013114 353.362891 
L 288.287986 352.926441 
L 288.562858 352.864785 
L 289.112602 353.952268 
L 289.387474 354.118233 
L 290.21209 354.195268 
L 291.311578 354.244267 
L 291.586451 354.588586 
L 292.136195 354.684486 
L 292.960811 355.121387 
L 293.235683 354.989621 
L 293.510555 354.987672 
L 293.785427 355.096854 
L 294.060299 355.792524 
L 294.335171 355.933594 
L 294.610043 355.898353 
L 295.434659 356.217754 
L 295.709531 356.417631 
L 296.534147 356.476751 
L 296.809019 356.846449 
L 297.083891 356.814002 
L 297.358763 357.112105 
L 298.183379 357.347953 
L 298.458251 357.593801 
L 298.733123 357.511586 
L 299.007995 357.67167 
L 299.282867 357.257973 
L 299.557739 357.421238 
L 299.832611 358.143171 
L 300.382355 358.126931 
L 300.932099 358.261024 
L 301.206971 358.464437 
L 301.481843 357.49721 
L 301.756715 357.826506 
L 302.031587 358.601747 
L 302.306459 358.762543 
L 302.856203 358.543042 
L 303.680819 359.159853 
L 303.955691 359.289014 
L 304.230563 358.798462 
L 304.505435 358.938571 
L 304.780307 359.345582 
L 305.055179 358.950383 
L 305.330051 358.920984 
L 305.879795 359.41524 
L 306.154667 359.573975 
L 306.429539 359.204019 
L 306.704411 359.548562 
L 306.979283 359.526073 
L 307.254155 359.040113 
L 307.529027 359.398142 
L 307.803899 358.775088 
L 308.078771 359.511789 
L 308.903387 360.04187 
L 309.178259 360.511595 
L 309.453131 360.248185 
L 309.728003 360.629674 
L 310.002875 359.982744 
L 310.277747 360.407234 
L 310.552619 360.068992 
L 310.827491 360.110014 
L 311.102363 360.566348 
L 311.377235 361.301432 
L 311.652108 361.490301 
L 311.92698 361.356286 
L 312.476724 361.580002 
L 312.751596 362.108983 
L 313.851084 362.621469 
L 314.125956 362.45288 
L 314.6757 361.868683 
L 314.950572 361.705776 
L 315.775188 363.195842 
L 316.05006 363.06555 
L 316.599804 362.414272 
L 317.149548 362.880576 
L 317.42442 362.708749 
L 317.699292 362.7843 
L 317.974164 363.304314 
L 318.249036 362.741565 
L 318.523908 363.583117 
L 319.073652 363.318408 
L 319.348524 363.443803 
L 319.623396 363.264559 
L 319.898268 362.644956 
L 320.448012 363.544469 
L 320.722884 363.43142 
L 320.997756 363.888811 
L 322.097244 363.802276 
L 322.646988 364.390064 
L 322.92186 364.319705 
L 323.196732 364.432983 
L 323.471604 365.149345 
L 323.746476 365.066929 
L 324.021348 365.128321 
L 324.571092 365.508276 
L 324.845964 365.22244 
L 325.120836 365.755409 
L 325.395708 365.487707 
L 325.67058 365.689672 
L 325.945452 365.744435 
L 326.220324 365.933062 
L 326.495196 366.695916 
L 326.770068 366.833485 
L 327.04494 366.819422 
L 327.594684 366.431277 
L 328.144428 366.617937 
L 328.4193 366.904206 
L 328.694172 366.958485 
L 328.969044 366.199729 
L 329.243916 365.939854 
L 329.518788 366.19382 
L 329.79366 366.19246 
L 330.068532 366.303483 
L 330.343404 366.715005 
L 330.893148 365.713442 
L 331.16802 366.022502 
L 331.442892 366.601185 
L 331.717765 366.620761 
L 331.992637 366.946228 
L 333.092125 367.120771 
L 333.641869 367.766931 
L 333.916741 367.626091 
L 334.191613 367.70818 
L 334.466485 367.627904 
L 334.741357 368.393684 
L 335.016229 368.4262 
L 335.291101 369.005206 
L 335.840845 368.927454 
L 336.115717 368.593835 
L 336.390589 368.556635 
L 336.940333 369.36998 
L 337.215205 369.612553 
L 337.490077 368.842499 
L 338.039821 368.471156 
L 338.314693 368.460419 
L 338.864437 369.38724 
L 339.139309 368.884962 
L 339.689053 368.822498 
L 339.963925 368.978604 
L 341.338285 368.22884 
L 341.613157 368.54392 
L 341.888029 369.640704 
L 342.162901 369.269608 
L 342.437773 369.672421 
L 342.987517 369.854159 
L 343.537261 370.767857 
L 343.812133 371.033036 
L 344.361877 371.124147 
L 344.911621 370.850217 
L 345.736237 371.046579 
L 346.011109 370.964791 
L 346.285981 371.462174 
L 346.560853 371.532691 
L 346.835725 372.119019 
L 347.385469 371.749388 
L 347.660341 371.541503 
L 348.210085 371.724573 
L 348.484957 371.411834 
L 348.759829 371.48803 
L 349.034701 371.274293 
L 349.309573 371.370247 
L 349.584445 370.976168 
L 349.859317 371.072369 
L 350.134189 371.310154 
L 350.409061 370.870144 
L 350.958805 371.764054 
L 351.233677 371.446939 
L 351.508549 371.850806 
L 351.783422 371.487504 
L 352.058294 371.401438 
L 352.608038 372.245777 
L 352.88291 372.801818 
L 353.157782 372.733082 
L 353.432654 372.093711 
L 353.982398 372.537935 
L 354.25727 372.385152 
L 354.532142 372.615385 
L 354.532142 372.615385 
" clip-path="url(#peba7c4edc1)" style="fill: none; stroke: #7f7f7f; stroke-width: 1.5; stroke-linecap: square"/>
   </g>
   <g id="line2d_31">
    <path d="M 79.935 28.038182 
L 82.133976 28.706225 
L 82.68372 28.77363 
L 83.508336 29.157617 
L 84.05808 29.221882 
L 84.607824 29.490915 
L 84.882696 29.935438 
L 85.157568 29.984513 
L 85.707312 30.313631 
L 86.531928 30.94086 
L 87.081672 30.983618 
L 87.356544 31.536962 
L 87.631416 31.776015 
L 87.906288 32.255205 
L 88.18116 32.287617 
L 89.005776 33.12364 
L 89.55552 34.07662 
L 90.105265 34.57649 
L 91.204753 36.509178 
L 91.754497 36.814453 
L 92.304241 37.755672 
L 92.579113 37.82068 
L 92.853985 38.008558 
L 93.678601 39.419997 
L 94.503217 40.816077 
L 94.778089 40.935629 
L 95.602705 42.044808 
L 95.877577 42.103681 
L 96.152449 42.665495 
L 96.427321 42.844037 
L 96.702193 43.345676 
L 97.526809 43.916688 
L 98.076553 43.981601 
L 98.901169 45.466619 
L 99.725785 46.809112 
L 100.825273 48.653301 
L 101.100145 48.677231 
L 101.649889 49.604333 
L 101.924761 49.616868 
L 102.474505 50.647595 
L 102.749377 50.827215 
L 103.024249 51.296647 
L 103.299121 51.303989 
L 103.573993 51.789641 
L 104.398609 52.32253 
L 106.597585 55.613203 
L 106.872457 55.752904 
L 109.346305 59.559551 
L 109.896049 59.675898 
L 110.170922 59.702528 
L 110.995538 61.066057 
L 111.27041 61.073304 
L 112.919642 63.770839 
L 113.194514 63.90285 
L 113.744258 63.909819 
L 114.568874 65.271893 
L 114.843746 65.366978 
L 115.668362 66.637219 
L 115.943234 66.637219 
L 116.492978 67.524182 
L 117.042722 68.401051 
L 117.317594 68.423219 
L 117.592466 68.876941 
L 118.14221 69.289753 
L 118.417082 69.738509 
L 118.691954 69.808389 
L 119.51657 71.143924 
L 119.791442 71.151446 
L 120.341186 72.021602 
L 120.616058 72.233907 
L 121.165802 73.162241 
L 122.26529 74.623726 
L 122.815034 75.500715 
L 123.089906 75.524697 
L 123.914522 76.863412 
L 124.739138 78.133454 
L 125.288882 78.153673 
L 125.563754 78.668233 
L 125.838626 78.739134 
L 126.38837 79.679519 
L 126.663242 79.856591 
L 126.938114 80.25377 
L 127.212986 80.373728 
L 127.76273 81.274467 
L 128.312474 81.307815 
L 128.587346 81.478756 
L 131.336067 85.785845 
L 131.610939 85.792687 
L 132.435555 86.884453 
L 132.985299 87.32808 
L 133.535043 87.335262 
L 135.459147 89.802739 
L 135.734019 89.828604 
L 136.833507 91.629596 
L 137.108379 91.648437 
L 137.383251 92.113984 
L 137.658123 92.120399 
L 138.757611 93.763985 
L 139.032483 93.770637 
L 139.307355 94.271488 
L 139.582227 94.271488 
L 140.131971 95.081111 
L 140.406843 95.081111 
L 140.681715 95.250535 
L 141.506331 96.481645 
L 142.056075 96.582256 
L 142.605819 97.466372 
L 144.255051 99.480881 
L 144.529923 99.687389 
L 144.804795 100.059822 
L 145.079667 100.217968 
L 145.904283 101.537912 
L 146.179155 101.717453 
L 147.828387 104.083786 
L 148.103259 104.150553 
L 148.927875 105.41793 
L 149.202747 105.440064 
L 150.302235 107.192693 
L 151.401724 108.715572 
L 151.951468 109.488855 
L 152.22634 109.514358 
L 152.776084 110.369939 
L 153.050956 110.369939 
L 153.6007 111.119074 
L 153.875572 111.1439 
L 154.97506 112.745707 
L 155.524804 113.457548 
L 155.799676 113.590843 
L 156.624292 114.73633 
L 158.273524 116.817349 
L 159.373012 118.424145 
L 159.922756 119.336113 
L 160.197628 119.336113 
L 160.747372 120.012376 
L 161.022244 120.120791 
L 161.571988 120.797452 
L 161.84686 120.959321 
L 162.121732 121.345533 
L 162.396604 121.345533 
L 163.770964 123.295294 
L 164.045836 123.313131 
L 165.145324 124.388738 
L 165.96994 124.397373 
L 167.619172 126.518791 
L 167.894044 126.839049 
L 168.443788 126.839049 
L 168.71866 127.253676 
L 168.993532 127.302004 
L 169.543276 127.875768 
L 169.818148 127.8897 
L 172.017125 130.884354 
L 172.566869 131.080666 
L 174.490973 133.676922 
L 177.514565 137.841709 
L 177.789437 138.183931 
L 179.163797 138.513658 
L 181.362773 141.525383 
L 181.637645 141.550035 
L 183.286877 143.482685 
L 183.836621 143.512001 
L 184.111493 143.899792 
L 184.386365 143.899792 
L 184.661237 144.294507 
L 184.936109 144.294507 
L 187.135085 146.982859 
L 187.409957 147.136545 
L 190.983294 151.390572 
L 191.533038 152.195568 
L 192.357654 152.620852 
L 192.632526 152.677055 
L 194.831502 155.411694 
L 195.106374 155.4328 
L 195.93099 156.425088 
L 196.205862 156.821714 
L 196.480734 156.821714 
L 197.030478 157.497881 
L 197.30535 157.510947 
L 198.67971 159.310188 
L 198.954582 159.310188 
L 200.05407 160.540232 
L 200.328942 160.560441 
L 200.603814 160.908574 
L 201.153558 160.922318 
L 201.42843 161.239604 
L 201.703302 161.239604 
L 203.352534 163.22359 
L 203.627406 163.375787 
L 204.17715 164.037214 
L 205.276638 165.339788 
L 205.55151 165.703337 
L 205.826382 165.703337 
L 206.376126 166.441579 
L 206.650998 166.85533 
L 206.92587 167.000285 
L 207.475614 167.693722 
L 207.750486 167.693722 
L 208.30023 168.28558 
L 208.849974 168.28558 
L 209.399718 168.917806 
L 210.224334 169.880726 
L 210.499206 169.880726 
L 212.423311 172.04344 
L 212.698183 172.337394 
L 212.973055 172.378719 
L 213.247927 172.779718 
L 213.522799 172.779718 
L 215.721775 175.199552 
L 216.546391 176.162049 
L 216.821263 176.513078 
L 217.096135 176.513078 
L 217.645879 177.170804 
L 217.920751 177.170804 
L 218.195623 177.47401 
L 218.470495 177.47401 
L 218.745367 177.824947 
L 219.020239 177.851414 
L 219.295111 178.023191 
L 220.119727 178.942147 
L 222.868447 182.013012 
L 223.418191 182.118088 
L 223.693063 182.428942 
L 223.967935 182.428942 
L 224.517679 182.950223 
L 224.792551 182.973736 
L 225.342295 183.695898 
L 225.617167 183.798293 
L 226.166911 184.224783 
L 226.441783 184.490154 
L 226.716655 184.490154 
L 227.541271 185.449498 
L 227.816143 185.459184 
L 228.365887 185.997398 
L 231.664352 189.793015 
L 231.939224 189.862711 
L 234.413072 192.278075 
L 234.687944 192.396766 
L 234.962816 192.700923 
L 235.237688 192.752311 
L 235.51256 193.100031 
L 235.787432 193.148998 
L 236.062304 193.484164 
L 236.337176 193.484164 
L 238.26128 195.417211 
L 239.360768 196.546906 
L 239.63564 196.557974 
L 240.460256 197.473934 
L 241.284872 197.869466 
L 242.934104 199.609766 
L 243.75872 199.639454 
L 244.583336 200.550003 
L 244.858208 200.569561 
L 247.057184 203.034559 
L 247.606928 203.109342 
L 248.156672 203.770948 
L 248.706416 204.062831 
L 249.25616 204.678371 
L 249.531032 204.700313 
L 250.355648 205.58265 
L 250.905392 205.66546 
L 252.004881 206.768015 
L 252.829497 207.671312 
L 253.379241 207.671312 
L 253.928985 208.303618 
L 254.203857 208.309579 
L 258.876681 212.474479 
L 259.151553 212.480218 
L 260.800785 214.262837 
L 261.075657 214.267739 
L 262.724889 215.758821 
L 262.999761 216.120753 
L 263.274633 216.120753 
L 264.099249 216.907376 
L 264.374121 216.907376 
L 264.648993 217.24238 
L 264.923865 217.24238 
L 265.473609 217.603731 
L 266.298225 218.273305 
L 266.573097 218.3639 
L 267.122841 218.941668 
L 267.672585 219.033254 
L 267.947457 219.116586 
L 268.497201 219.671238 
L 270.146433 221.359781 
L 270.421305 221.359781 
L 271.795666 222.691334 
L 272.895154 223.702289 
L 274.269514 224.217262 
L 274.819258 224.77773 
L 275.09413 224.783797 
L 275.918746 225.500999 
L 276.46849 226.05263 
L 277.018234 226.38434 
L 277.293106 226.626854 
L 277.84285 226.652779 
L 278.667466 227.493492 
L 279.492082 228.466073 
L 281.141314 229.730005 
L 281.416186 229.801253 
L 282.240802 230.37495 
L 282.790546 230.384075 
L 283.34029 230.864075 
L 283.890034 231.355003 
L 284.164906 231.377168 
L 284.71465 231.884745 
L 284.989522 231.884745 
L 285.814138 232.657476 
L 286.638754 233.339341 
L 287.188498 233.979019 
L 287.46337 234.018965 
L 288.562858 235.077023 
L 288.83773 235.077023 
L 289.387474 235.436992 
L 289.662346 235.737393 
L 289.937218 235.737393 
L 290.21209 235.9374 
L 290.486962 235.9374 
L 291.861323 237.276263 
L 292.685939 237.655162 
L 294.335171 239.160006 
L 294.610043 239.346604 
L 294.884915 239.381736 
L 295.434659 239.880863 
L 295.984403 240.249705 
L 296.534147 240.671799 
L 296.809019 240.677661 
L 298.458251 242.218014 
L 298.733123 242.218014 
L 300.107483 243.351556 
L 300.382355 243.621336 
L 300.657227 243.621336 
L 302.306459 244.895895 
L 303.405947 245.831434 
L 303.955691 246.378754 
L 304.230563 246.422062 
L 308.078771 249.181832 
L 308.353643 249.187273 
L 308.628515 249.423805 
L 308.903387 249.423805 
L 309.453131 249.845361 
L 309.728003 249.850382 
L 310.277747 250.375273 
L 310.552619 250.41303 
L 311.102363 250.921918 
L 311.92698 251.646803 
L 312.201852 251.646803 
L 312.476724 251.938743 
L 313.026468 252.228549 
L 313.30134 252.493677 
L 313.851084 252.716867 
L 314.125956 252.965757 
L 314.400828 252.965757 
L 316.05006 254.240455 
L 316.599804 254.243815 
L 317.42442 254.855801 
L 317.974164 255.253064 
L 319.898268 256.8815 
L 320.17314 256.8815 
L 320.448012 257.073849 
L 320.722884 257.073849 
L 321.5475 257.785817 
L 321.822372 257.966534 
L 322.372116 258.009456 
L 323.471604 258.851206 
L 324.021348 258.867516 
L 324.29622 259.070513 
L 324.571092 259.070513 
L 325.120836 259.583205 
L 326.220324 260.457787 
L 326.770068 260.767654 
L 328.4193 262.124258 
L 328.969044 262.153068 
L 330.068532 263.160844 
L 330.343404 263.160844 
L 331.992637 264.408484 
L 332.267509 264.422654 
L 332.542381 264.567196 
L 333.366997 264.567196 
L 334.466485 265.361489 
L 334.741357 265.361489 
L 335.291101 265.843027 
L 335.565973 266.101824 
L 336.115717 266.101824 
L 336.665461 266.381568 
L 336.940333 266.385606 
L 338.039821 267.246001 
L 338.314693 267.25354 
L 339.139309 267.94537 
L 339.414181 268.002586 
L 340.788541 268.979953 
L 341.888029 269.844479 
L 342.437773 269.986276 
L 343.262389 270.55195 
L 343.537261 270.721611 
L 343.812133 270.727449 
L 344.361877 271.15756 
L 345.736237 271.908751 
L 346.011109 271.945456 
L 348.759829 273.78961 
L 349.034701 273.78961 
L 350.134189 274.346773 
L 352.88291 276.037708 
L 353.157782 276.11719 
L 353.982398 276.74793 
L 354.532142 277.22686 
L 354.807014 277.46783 
L 355.356758 277.563504 
L 355.63163 277.764322 
L 355.906502 277.764322 
L 357.555734 278.628402 
L 358.38035 279.203123 
L 359.204966 279.74951 
L 359.479838 279.956937 
L 359.75471 279.956937 
L 362.50343 281.579643 
L 363.602918 282.50532 
L 364.152662 282.943233 
L 364.702406 283.437301 
L 366.076766 284.312042 
L 366.351638 284.50956 
L 366.62651 284.5622 
L 367.176254 285.066964 
L 367.451126 285.066964 
L 368.550614 285.940463 
L 370.74959 287.057024 
L 371.024462 287.057024 
L 371.574206 287.453179 
L 372.123951 287.706399 
L 373.498311 288.483894 
L 373.773183 288.666991 
L 374.048055 288.666991 
L 374.322927 288.910332 
L 374.597799 288.921992 
L 375.147543 289.184529 
L 375.972159 289.589546 
L 376.521903 289.89654 
L 377.896263 290.840552 
L 378.171135 291.057828 
L 378.446007 291.059843 
L 378.995751 291.391543 
L 379.545495 291.391543 
L 380.644983 292.05896 
L 381.744471 292.832764 
L 382.294215 293.349981 
L 383.668575 294.206298 
L 384.768063 294.230769 
L 385.042935 294.39081 
L 385.317807 294.39081 
L 385.592679 294.670109 
L 385.867551 294.68973 
L 386.692167 295.277023 
L 387.791655 295.673241 
L 389.440887 296.596061 
L 390.265503 296.940685 
L 390.540375 297.195086 
L 390.815247 297.199376 
L 393.563968 298.79696 
L 394.113712 299.211731 
L 394.388584 299.352912 
L 394.663456 299.352912 
L 395.2132 299.609449 
L 396.037816 299.770429 
L 396.862432 300.15831 
L 399.33628 301.400138 
L 400.160896 301.994551 
L 400.435768 301.994551 
L 400.985512 302.261862 
L 401.260384 302.384573 
L 401.535256 302.384573 
L 402.085 302.573971 
L 402.634744 302.812103 
L 403.45936 303.294474 
L 403.734232 303.418523 
L 404.009104 303.418523 
L 404.83372 303.842257 
L 405.108592 303.842257 
L 405.658336 304.204972 
L 405.933208 304.204972 
L 407.58244 305.175834 
L 408.132184 305.240051 
L 408.681928 305.551261 
L 408.9568 305.552448 
L 410.606032 306.51066 
L 410.880904 306.51066 
L 411.430648 306.853634 
L 411.980392 307.097678 
L 414.454241 308.381619 
L 415.003985 308.449608 
L 415.278857 308.510088 
L 416.378345 309.102826 
L 417.477833 309.635097 
L 417.752705 309.860189 
L 418.302449 310.052923 
L 418.577321 310.209907 
L 418.852193 310.217893 
L 419.127065 310.420384 
L 419.401937 310.435077 
L 421.051169 311.289906 
L 423.525017 312.55387 
L 424.899377 313.30961 
L 425.174249 313.317153 
L 426.548609 314.100967 
L 426.823481 314.100967 
L 427.648097 314.551029 
L 428.197841 314.893244 
L 428.472713 314.893244 
L 429.297329 315.377155 
L 429.572201 315.386944 
L 430.396817 315.829221 
L 430.671689 315.829221 
L 430.946561 315.969251 
L 431.221433 315.969251 
L 432.320922 316.498812 
L 432.595794 316.498812 
L 432.870666 316.650914 
L 433.145538 316.650914 
L 433.42041 316.856999 
L 433.970154 316.864411 
L 434.519898 317.229581 
L 434.79477 317.229581 
L 435.344514 317.470819 
L 435.894258 317.678332 
L 436.718874 318.070568 
L 437.268618 318.172919 
L 438.093234 318.61652 
L 438.368106 318.61652 
L 438.91785 318.911204 
L 440.29221 319.160332 
L 441.941442 319.90029 
L 443.04093 320.537709 
L 443.315802 320.668771 
L 443.590674 320.668771 
L 444.41529 321.061798 
L 444.965034 321.061798 
L 445.78965 321.466454 
L 446.614266 321.846791 
L 447.438882 322.371528 
L 449.362986 323.001161 
L 449.637858 323.001161 
L 450.462474 323.414663 
L 450.737346 323.414663 
L 451.561962 323.841849 
L 451.836834 323.884462 
L 452.661451 324.268083 
L 453.211195 324.403112 
L 454.310683 324.846545 
L 454.585555 325.045979 
L 454.860427 325.045979 
L 455.410171 325.392545 
L 456.509659 325.767947 
L 464.206075 328.636421 
L 465.030691 328.728718 
L 466.679923 329.401744 
L 467.229667 329.507297 
L 468.329155 329.990111 
L 469.978387 330.568242 
L 470.803003 330.568242 
L 471.627619 330.885929 
L 472.177363 330.982552 
L 473.00198 331.404501 
L 473.276852 331.417614 
L 474.101468 331.845615 
L 475.7507 332.492859 
L 476.025572 332.627477 
L 476.300444 332.627477 
L 476.575316 332.823517 
L 477.12506 332.925085 
L 477.674804 333.183829 
L 478.49942 333.22712 
L 479.049164 333.490659 
L 483.172244 334.934402 
L 483.721988 335.026884 
L 491.968148 338.17308 
L 492.24302 338.17308 
L 493.067637 338.462532 
L 493.617381 338.553929 
L 494.441997 338.759637 
L 494.716869 338.759637 
L 496.091229 339.510344 
L 496.640973 339.601512 
L 497.465589 339.946079 
L 498.015333 340.034865 
L 498.565077 340.192053 
L 499.389693 340.464249 
L 499.664565 340.60018 
L 499.939437 340.60018 
L 502.138413 341.483813 
L 504.612261 342.274244 
L 505.162005 342.570214 
L 505.986621 342.68185 
L 507.360981 343.078658 
L 507.910725 343.23547 
L 508.460469 343.496736 
L 510.384573 344.031204 
L 510.934317 344.304824 
L 514.232782 345.372265 
L 515.33227 345.453725 
L 515.882014 345.682049 
L 516.70663 345.87686 
L 518.905606 346.437017 
L 519.45535 346.646386 
L 520.005094 346.936882 
L 520.82971 347.00809 
L 521.929198 347.272009 
L 522.20407 347.272009 
L 522.753814 347.53287 
L 523.303558 347.643317 
L 524.403046 347.954599 
L 524.95279 348.163334 
L 526.052278 348.43218 
L 526.876894 348.81578 
L 528.251254 349.156507 
L 529.350742 349.411341 
L 535.397927 350.750272 
L 536.497415 351.104952 
L 537.047159 351.156795 
L 540.620495 352.074898 
L 540.895367 352.213984 
L 541.445111 352.265885 
L 545.018447 353.177075 
L 545.568191 353.253274 
L 546.392807 353.406028 
L 546.942551 353.480385 
L 547.492295 353.669117 
L 548.042039 353.829176 
L 548.866655 354.074444 
L 550.241015 354.382498 
L 551.065631 354.597688 
L 551.890247 354.826297 
L 552.439991 354.860494 
L 555.188712 355.585567 
L 556.837944 355.707498 
L 557.937432 356.050969 
L 558.762048 356.127264 
L 559.311792 356.249337 
L 560.686152 356.688636 
L 561.78564 356.975173 
L 562.335384 357.154283 
L 563.16 357.259618 
L 565.084104 357.712213 
L 565.633848 357.852785 
L 568.107696 358.19406 
L 568.932312 358.379073 
L 571.955904 359.006395 
L 573.055392 359.05688 
L 573.605137 359.233575 
L 574.979497 359.479643 
L 576.903601 360.000577 
L 577.728217 360.067557 
L 579.927193 360.497564 
L 581.301553 360.63248 
L 587.348737 361.72054 
L 588.448225 361.789383 
L 589.822585 362.106237 
L 590.922073 362.309111 
L 594.220538 362.912851 
L 594.770282 362.97113 
L 595.594898 363.064756 
L 596.694386 363.268966 
L 598.61849 363.565781 
L 599.443106 363.673721 
L 600.542594 363.946634 
L 601.916954 364.027364 
L 602.466698 364.125955 
L 603.566186 364.170751 
L 604.665674 364.47111 
L 609.338498 364.915675 
L 610.163114 365.052541 
L 614.835939 365.569714 
L 616.485171 365.817104 
L 618.959019 366.146573 
L 620.883123 366.474247 
L 621.982611 366.499185 
L 622.532355 366.585359 
L 623.082099 366.659677 
L 623.631843 366.747717 
L 628.854411 367.290825 
L 629.679027 367.503781 
L 631.053387 367.584751 
L 634.901596 367.96725 
L 636.001084 368.061147 
L 645.896476 369.065243 
L 648.920068 369.347359 
L 654.417509 369.818715 
L 656.341613 369.918596 
L 679.430862 371.492806 
L 682.454454 371.603101 
L 684.103686 371.713098 
L 686.02779 371.761751 
L 687.951894 371.762141 
L 689.601126 371.842491 
L 693.174462 371.950384 
L 697.847287 372.136796 
L 699.496519 372.148664 
L 703.894471 372.415405 
L 706.643191 372.514081 
L 708.017551 372.508504 
L 712.415503 372.59983 
L 713.240119 372.631402 
L 718.73756 372.734599 
L 720.11192 372.793348 
L 723.960128 372.798597 
L 724.235 372.798597 
L 724.235 372.798597 
" clip-path="url(#peba7c4edc1)" style="fill: none; stroke: #bcbd22; stroke-width: 1.5; stroke-linecap: square"/>
   </g>
   <g id="patch_3">
    <path d="M 47.72 390.04 
L 47.72 10.8 
" style="fill: none; stroke: #000000; stroke-width: 0.8; stroke-linejoin: miter; stroke-linecap: square"/>
   </g>
   <g id="patch_4">
    <path d="M 756.45 390.04 
L 756.45 10.8 
" style="fill: none; stroke: #000000; stroke-width: 0.8; stroke-linejoin: miter; stroke-linecap: square"/>
   </g>
   <g id="patch_5">
    <path d="M 47.72 390.04 
L 756.45 390.04 
" style="fill: none; stroke: #000000; stroke-width: 0.8; stroke-linejoin: miter; stroke-linecap: square"/>
   </g>
   <g id="patch_6">
    <path d="M 47.72 10.8 
L 756.45 10.8 
" style="fill: none; stroke: #000000; stroke-width: 0.8; stroke-linejoin: miter; stroke-linecap: square"/>
   </g>
   <g id="legend_1">
    <g id="patch_7">
     <path d="M 793.4865 118.8825 
L 853.329 118.8825 
Q 854.929 118.8825 854.929 117.2825 
L 854.929 12.4 
Q 854.929 10.8 853.329 10.8 
L 793.4865 10.8 
Q 791.8865 10.8 791.8865 12.4 
L 791.8865 117.2825 
Q 791.8865 118.8825 793.4865 118.8825 
z
" style="fill: #ffffff; opacity: 0.8; stroke: #cccccc; stroke-linejoin: miter"/>
    </g>
    <g id="line2d_32">
     <g>
      <use xlink:href="#m5f7fcd68d1" x="803.0865" y="17.27875" style="fill: #1f77b4; stroke: #1f77b4"/>
     </g>
    </g>
    <g id="text_14">
     <!-- (a) ls -->
     <g transform="translate(817.4865 20.07875) scale(0.08 -0.08)">
      <defs>
       <path id="DejaVuSans-28" d="M 1984 4856 
Q 1566 4138 1362 3434 
Q 1159 2731 1159 2009 
Q 1159 1288 1364 580 
Q 1569 -128 1984 -844 
L 1484 -844 
Q 1016 -109 783 600 
Q 550 1309 550 2009 
Q 550 2706 781 3412 
Q 1013 4119 1484 4856 
L 1984 4856 
z
" transform="scale(0.015625)"/>
       <path id="DejaVuSans-29" d="M 513 4856 
L 1013 4856 
Q 1481 4119 1714 3412 
Q 1947 2706 1947 2009 
Q 1947 1309 1714 600 
Q 1481 -109 1013 -844 
L 513 -844 
Q 928 -128 1133 580 
Q 1338 1288 1338 2009 
Q 1338 2731 1133 3434 
Q 928 4138 513 4856 
z
" transform="scale(0.015625)"/>
       <path id="DejaVuSans-20" transform="scale(0.015625)"/>
      </defs>
      <use xlink:href="#DejaVuSans-28"/>
      <use xlink:href="#DejaVuSans-61" transform="translate(39.013672 0)"/>
      <use xlink:href="#DejaVuSans-29" transform="translate(100.292969 0)"/>
      <use xlink:href="#DejaVuSans-20" transform="translate(139.306641 0)"/>
      <use xlink:href="#DejaVuSans-6c" transform="translate(171.09375 0)"/>
      <use xlink:href="#DejaVuSans-73" transform="translate(198.876953 0)"/>
     </g>
    </g>
    <g id="line2d_33">
     <g>
      <use xlink:href="#mbc4c9faca2" x="803.0865" y="29.02125" style="fill: #ff7f0e; stroke: #ff7f0e"/>
     </g>
    </g>
    <g id="text_15">
     <!-- (b) ls -->
     <g transform="translate(817.4865 31.82125) scale(0.08 -0.08)">
      <defs>
       <path id="DejaVuSans-62" d="M 3116 1747 
Q 3116 2381 2855 2742 
Q 2594 3103 2138 3103 
Q 1681 3103 1420 2742 
Q 1159 2381 1159 1747 
Q 1159 1113 1420 752 
Q 1681 391 2138 391 
Q 2594 391 2855 752 
Q 3116 1113 3116 1747 
z
M 1159 2969 
Q 1341 3281 1617 3432 
Q 1894 3584 2278 3584 
Q 2916 3584 3314 3078 
Q 3713 2572 3713 1747 
Q 3713 922 3314 415 
Q 2916 -91 2278 -91 
Q 1894 -91 1617 61 
Q 1341 213 1159 525 
L 1159 0 
L 581 0 
L 581 4863 
L 1159 4863 
L 1159 2969 
z
" transform="scale(0.015625)"/>
      </defs>
      <use xlink:href="#DejaVuSans-28"/>
      <use xlink:href="#DejaVuSans-62" transform="translate(39.013672 0)"/>
      <use xlink:href="#DejaVuSans-29" transform="translate(102.490234 0)"/>
      <use xlink:href="#DejaVuSans-20" transform="translate(141.503906 0)"/>
      <use xlink:href="#DejaVuSans-6c" transform="translate(173.291016 0)"/>
      <use xlink:href="#DejaVuSans-73" transform="translate(201.074219 0)"/>
     </g>
    </g>
    <g id="line2d_34">
     <g>
      <use xlink:href="#m93803fa3ec" x="803.0865" y="40.76375" style="fill: #2ca02c; stroke: #2ca02c"/>
     </g>
    </g>
    <g id="text_16">
     <!-- (c) lls -->
     <g transform="translate(817.4865 43.56375) scale(0.08 -0.08)">
      <defs>
       <path id="DejaVuSans-63" d="M 3122 3366 
L 3122 2828 
Q 2878 2963 2633 3030 
Q 2388 3097 2138 3097 
Q 1578 3097 1268 2742 
Q 959 2388 959 1747 
Q 959 1106 1268 751 
Q 1578 397 2138 397 
Q 2388 397 2633 464 
Q 2878 531 3122 666 
L 3122 134 
Q 2881 22 2623 -34 
Q 2366 -91 2075 -91 
Q 1284 -91 818 406 
Q 353 903 353 1747 
Q 353 2603 823 3093 
Q 1294 3584 2113 3584 
Q 2378 3584 2631 3529 
Q 2884 3475 3122 3366 
z
" transform="scale(0.015625)"/>
      </defs>
      <use xlink:href="#DejaVuSans-28"/>
      <use xlink:href="#DejaVuSans-63" transform="translate(39.013672 0)"/>
      <use xlink:href="#DejaVuSans-29" transform="translate(93.994141 0)"/>
      <use xlink:href="#DejaVuSans-20" transform="translate(133.007812 0)"/>
      <use xlink:href="#DejaVuSans-6c" transform="translate(164.794922 0)"/>
      <use xlink:href="#DejaVuSans-6c" transform="translate(192.578125 0)"/>
      <use xlink:href="#DejaVuSans-73" transform="translate(220.361328 0)"/>
     </g>
    </g>
    <g id="line2d_35">
     <g>
      <use xlink:href="#m8d856c6e1e" x="803.0865" y="52.50625" style="fill: #d62728; stroke: #d62728"/>
     </g>
    </g>
    <g id="text_17">
     <!-- (d) lls -->
     <g transform="translate(817.4865 55.30625) scale(0.08 -0.08)">
      <use xlink:href="#DejaVuSans-28"/>
      <use xlink:href="#DejaVuSans-64" transform="translate(39.013672 0)"/>
      <use xlink:href="#DejaVuSans-29" transform="translate(102.490234 0)"/>
      <use xlink:href="#DejaVuSans-20" transform="translate(141.503906 0)"/>
      <use xlink:href="#DejaVuSans-6c" transform="translate(173.291016 0)"/>
      <use xlink:href="#DejaVuSans-6c" transform="translate(201.074219 0)"/>
      <use xlink:href="#DejaVuSans-73" transform="translate(228.857422 0)"/>
     </g>
    </g>
    <g id="line2d_36">
     <g>
      <use xlink:href="#m1282cc8f4f" x="803.0865" y="64.24875" style="fill: #9467bd; stroke: #9467bd"/>
     </g>
    </g>
    <g id="text_18">
     <!-- (e) lsr -->
     <g transform="translate(817.4865 67.04875) scale(0.08 -0.08)">
      <use xlink:href="#DejaVuSans-28"/>
      <use xlink:href="#DejaVuSans-65" transform="translate(39.013672 0)"/>
      <use xlink:href="#DejaVuSans-29" transform="translate(100.537109 0)"/>
      <use xlink:href="#DejaVuSans-20" transform="translate(139.550781 0)"/>
      <use xlink:href="#DejaVuSans-6c" transform="translate(171.337891 0)"/>
      <use xlink:href="#DejaVuSans-73" transform="translate(199.121094 0)"/>
      <use xlink:href="#DejaVuSans-72" transform="translate(251.220703 0)"/>
     </g>
    </g>
    <g id="line2d_37">
     <path d="M 795.0865 75.99125 
L 803.0865 75.99125 
L 811.0865 75.99125 
" style="fill: none; stroke: #8c564b; stroke-width: 1.5; stroke-linecap: square"/>
    </g>
    <g id="text_19">
     <!-- (f) bpls -->
     <g transform="translate(817.4865 78.79125) scale(0.08 -0.08)">
      <defs>
       <path id="DejaVuSans-66" d="M 2375 4863 
L 2375 4384 
L 1825 4384 
Q 1516 4384 1395 4259 
Q 1275 4134 1275 3809 
L 1275 3500 
L 2222 3500 
L 2222 3053 
L 1275 3053 
L 1275 0 
L 697 0 
L 697 3053 
L 147 3053 
L 147 3500 
L 697 3500 
L 697 3744 
Q 697 4328 969 4595 
Q 1241 4863 1831 4863 
L 2375 4863 
z
" transform="scale(0.015625)"/>
       <path id="DejaVuSans-70" d="M 1159 525 
L 1159 -1331 
L 581 -1331 
L 581 3500 
L 1159 3500 
L 1159 2969 
Q 1341 3281 1617 3432 
Q 1894 3584 2278 3584 
Q 2916 3584 3314 3078 
Q 3713 2572 3713 1747 
Q 3713 922 3314 415 
Q 2916 -91 2278 -91 
Q 1894 -91 1617 61 
Q 1341 213 1159 525 
z
M 3116 1747 
Q 3116 2381 2855 2742 
Q 2594 3103 2138 3103 
Q 1681 3103 1420 2742 
Q 1159 2381 1159 1747 
Q 1159 1113 1420 752 
Q 1681 391 2138 391 
Q 2594 391 2855 752 
Q 3116 1113 3116 1747 
z
" transform="scale(0.015625)"/>
      </defs>
      <use xlink:href="#DejaVuSans-28"/>
      <use xlink:href="#DejaVuSans-66" transform="translate(39.013672 0)"/>
      <use xlink:href="#DejaVuSans-29" transform="translate(74.21875 0)"/>
      <use xlink:href="#DejaVuSans-20" transform="translate(113.232422 0)"/>
      <use xlink:href="#DejaVuSans-62" transform="translate(145.019531 0)"/>
      <use xlink:href="#DejaVuSans-70" transform="translate(208.496094 0)"/>
      <use xlink:href="#DejaVuSans-6c" transform="translate(271.972656 0)"/>
      <use xlink:href="#DejaVuSans-73" transform="translate(299.755859 0)"/>
     </g>
    </g>
    <g id="line2d_38">
     <path d="M 795.0865 87.73375 
L 803.0865 87.73375 
L 811.0865 87.73375 
" style="fill: none; stroke: #e377c2; stroke-width: 1.5; stroke-linecap: square"/>
    </g>
    <g id="text_20">
     <!-- (g) mp -->
     <g transform="translate(817.4865 90.53375) scale(0.08 -0.08)">
      <defs>
       <path id="DejaVuSans-67" d="M 2906 1791 
Q 2906 2416 2648 2759 
Q 2391 3103 1925 3103 
Q 1463 3103 1205 2759 
Q 947 2416 947 1791 
Q 947 1169 1205 825 
Q 1463 481 1925 481 
Q 2391 481 2648 825 
Q 2906 1169 2906 1791 
z
M 3481 434 
Q 3481 -459 3084 -895 
Q 2688 -1331 1869 -1331 
Q 1566 -1331 1297 -1286 
Q 1028 -1241 775 -1147 
L 775 -588 
Q 1028 -725 1275 -790 
Q 1522 -856 1778 -856 
Q 2344 -856 2625 -561 
Q 2906 -266 2906 331 
L 2906 616 
Q 2728 306 2450 153 
Q 2172 0 1784 0 
Q 1141 0 747 490 
Q 353 981 353 1791 
Q 353 2603 747 3093 
Q 1141 3584 1784 3584 
Q 2172 3584 2450 3431 
Q 2728 3278 2906 2969 
L 2906 3500 
L 3481 3500 
L 3481 434 
z
" transform="scale(0.015625)"/>
       <path id="DejaVuSans-6d" d="M 3328 2828 
Q 3544 3216 3844 3400 
Q 4144 3584 4550 3584 
Q 5097 3584 5394 3201 
Q 5691 2819 5691 2113 
L 5691 0 
L 5113 0 
L 5113 2094 
Q 5113 2597 4934 2840 
Q 4756 3084 4391 3084 
Q 3944 3084 3684 2787 
Q 3425 2491 3425 1978 
L 3425 0 
L 2847 0 
L 2847 2094 
Q 2847 2600 2669 2842 
Q 2491 3084 2119 3084 
Q 1678 3084 1418 2786 
Q 1159 2488 1159 1978 
L 1159 0 
L 581 0 
L 581 3500 
L 1159 3500 
L 1159 2956 
Q 1356 3278 1631 3431 
Q 1906 3584 2284 3584 
Q 2666 3584 2933 3390 
Q 3200 3197 3328 2828 
z
" transform="scale(0.015625)"/>
      </defs>
      <use xlink:href="#DejaVuSans-28"/>
      <use xlink:href="#DejaVuSans-67" transform="translate(39.013672 0)"/>
      <use xlink:href="#DejaVuSans-29" transform="translate(102.490234 0)"/>
      <use xlink:href="#DejaVuSans-20" transform="translate(141.503906 0)"/>
      <use xlink:href="#DejaVuSans-6d" transform="translate(173.291016 0)"/>
      <use xlink:href="#DejaVuSans-70" transform="translate(270.703125 0)"/>
     </g>
    </g>
    <g id="line2d_39">
     <path d="M 795.0865 99.47625 
L 803.0865 99.47625 
L 811.0865 99.47625 
" style="fill: none; stroke: #7f7f7f; stroke-width: 1.5; stroke-linecap: square"/>
    </g>
    <g id="text_21">
     <!-- (h) mp -->
     <g transform="translate(817.4865 102.27625) scale(0.08 -0.08)">
      <defs>
       <path id="DejaVuSans-68" d="M 3513 2113 
L 3513 0 
L 2938 0 
L 2938 2094 
Q 2938 2591 2744 2837 
Q 2550 3084 2163 3084 
Q 1697 3084 1428 2787 
Q 1159 2491 1159 1978 
L 1159 0 
L 581 0 
L 581 4863 
L 1159 4863 
L 1159 2956 
Q 1366 3272 1645 3428 
Q 1925 3584 2291 3584 
Q 2894 3584 3203 3211 
Q 3513 2838 3513 2113 
z
" transform="scale(0.015625)"/>
      </defs>
      <use xlink:href="#DejaVuSans-28"/>
      <use xlink:href="#DejaVuSans-68" transform="translate(39.013672 0)"/>
      <use xlink:href="#DejaVuSans-29" transform="translate(102.392578 0)"/>
      <use xlink:href="#DejaVuSans-20" transform="translate(141.40625 0)"/>
      <use xlink:href="#DejaVuSans-6d" transform="translate(173.193359 0)"/>
      <use xlink:href="#DejaVuSans-70" transform="translate(270.605469 0)"/>
     </g>
    </g>
    <g id="line2d_40">
     <path d="M 795.0865 111.21875 
L 803.0865 111.21875 
L 811.0865 111.21875 
" style="fill: none; stroke: #bcbd22; stroke-width: 1.5; stroke-linecap: square"/>
    </g>
    <g id="text_22">
     <!-- (i) radon -->
     <g transform="translate(817.4865 114.01875) scale(0.08 -0.08)">
      <use xlink:href="#DejaVuSans-28"/>
      <use xlink:href="#DejaVuSans-69" transform="translate(39.013672 0)"/>
      <use xlink:href="#DejaVuSans-29" transform="translate(66.796875 0)"/>
      <use xlink:href="#DejaVuSans-20" transform="translate(105.810547 0)"/>
      <use xlink:href="#DejaVuSans-72" transform="translate(137.597656 0)"/>
      <use xlink:href="#DejaVuSans-61" transform="translate(178.710938 0)"/>
      <use xlink:href="#DejaVuSans-64" transform="translate(239.990234 0)"/>
      <use xlink:href="#DejaVuSans-6f" transform="translate(303.466797 0)"/>
      <use xlink:href="#DejaVuSans-6e" transform="translate(364.648438 0)"/>
     </g>
    </g>
   </g>
  </g>
 </g>
 <defs>
  <clipPath id="peba7c4edc1">
   <rect x="47.72" y="10.8" width="708.73" height="379.24"/>
  </clipPath>
 </defs>
</svg>
