<?xml version="1.0" encoding="utf-8" standalone="no"?>
<!DOCTYPE svg PUBLIC "-//W3C//DTD SVG 1.1//EN"
  "http://www.w3.org/Graphics/SVG/1.1/DTD/svg11.dtd">
<svg xmlns:xlink="http://www.w3.org/1999/xlink" width="864pt" height="432pt" viewBox="0 0 864 432" xmlns="http://www.w3.org/2000/svg" version="1.1">
 <metadata>
  <rdf:RDF xmlns:dc="http://purl.org/dc/elements/1.1/" xmlns:cc="http://creativecommons.org/ns#" xmlns:rdf="http://www.w3.org/1999/02/22-rdf-syntax-ns#">
   <cc:Work>
    <dc:type rdf:resource="http://purl.org/dc/dcmitype/StillImage"/>
    <dc:date>2025-06-10T18:49:16.493529</dc:date>
    <dc:format>image/svg+xml</dc:format>
    <dc:creator>
     <cc:Agent>
      <dc:title>Matplotlib v3.10.1, https://matplotlib.org/</dc:title>
     </cc:Agent>
    </dc:creator>
   </cc:Work>
  </rdf:RDF>
 </metadata>
 <defs>
  <style type="text/css">*{stroke-linejoin: round; stroke-linecap: butt}</style>
 </defs>
 <g id="figure_1">
  <g id="patch_1">
   <path d="M 0 432 
L 864 432 
L 864 0 
L 0 0 
z
" style="fill: #ffffff"/>
  </g>
  <g id="axes_1">
   <g id="patch_2">
    <path d="M 50.96 390.04 
L 756.45 390.04 
L 756.45 10.8 
L 50.96 10.8 
z
" style="fill: #ffffff"/>
   </g>
   <g id="matplotlib.axis_1">
    <g id="xtick_1">
     <g id="line2d_1">
      <path d="M 83.027727 390.04 
L 83.027727 10.8 
" clip-path="url(#p258db37e1c)" style="fill: none; stroke: #b0b0b0; stroke-width: 0.8; stroke-linecap: square"/>
     </g>
     <g id="line2d_2">
      <defs>
       <path id="m0985d7e6c3" d="M 0 0 
L 0 3.5 
" style="stroke: #000000; stroke-width: 0.8"/>
      </defs>
      <g>
       <use xlink:href="#m0985d7e6c3" x="83.027727" y="390.04" style="stroke: #000000; stroke-width: 0.8"/>
      </g>
     </g>
     <g id="text_1">
      <!-- 0 -->
      <g transform="translate(79.846477 404.638438) scale(0.1 -0.1)">
       <defs>
        <path id="DejaVuSans-30" d="M 2034 4250 
Q 1547 4250 1301 3770 
Q 1056 3291 1056 2328 
Q 1056 1369 1301 889 
Q 1547 409 2034 409 
Q 2525 409 2770 889 
Q 3016 1369 3016 2328 
Q 3016 3291 2770 3770 
Q 2525 4250 2034 4250 
z
M 2034 4750 
Q 2819 4750 3233 4129 
Q 3647 3509 3647 2328 
Q 3647 1150 3233 529 
Q 2819 -91 2034 -91 
Q 1250 -91 836 529 
Q 422 1150 422 2328 
Q 422 3509 836 4129 
Q 1250 4750 2034 4750 
z
" transform="scale(0.015625)"/>
       </defs>
       <use xlink:href="#DejaVuSans-30"/>
      </g>
     </g>
    </g>
    <g id="xtick_2">
     <g id="line2d_3">
      <path d="M 219.835437 390.04 
L 219.835437 10.8 
" clip-path="url(#p258db37e1c)" style="fill: none; stroke: #b0b0b0; stroke-width: 0.8; stroke-linecap: square"/>
     </g>
     <g id="line2d_4">
      <g>
       <use xlink:href="#m0985d7e6c3" x="219.835437" y="390.04" style="stroke: #000000; stroke-width: 0.8"/>
      </g>
     </g>
     <g id="text_2">
      <!-- 500 -->
      <g transform="translate(210.291687 404.638438) scale(0.1 -0.1)">
       <defs>
        <path id="DejaVuSans-35" d="M 691 4666 
L 3169 4666 
L 3169 4134 
L 1269 4134 
L 1269 2991 
Q 1406 3038 1543 3061 
Q 1681 3084 1819 3084 
Q 2600 3084 3056 2656 
Q 3513 2228 3513 1497 
Q 3513 744 3044 326 
Q 2575 -91 1722 -91 
Q 1428 -91 1123 -41 
Q 819 9 494 109 
L 494 744 
Q 775 591 1075 516 
Q 1375 441 1709 441 
Q 2250 441 2565 725 
Q 2881 1009 2881 1497 
Q 2881 1984 2565 2268 
Q 2250 2553 1709 2553 
Q 1456 2553 1204 2497 
Q 953 2441 691 2322 
L 691 4666 
z
" transform="scale(0.015625)"/>
       </defs>
       <use xlink:href="#DejaVuSans-35"/>
       <use xlink:href="#DejaVuSans-30" transform="translate(63.623047 0)"/>
       <use xlink:href="#DejaVuSans-30" transform="translate(127.246094 0)"/>
      </g>
     </g>
    </g>
    <g id="xtick_3">
     <g id="line2d_5">
      <path d="M 356.643148 390.04 
L 356.643148 10.8 
" clip-path="url(#p258db37e1c)" style="fill: none; stroke: #b0b0b0; stroke-width: 0.8; stroke-linecap: square"/>
     </g>
     <g id="line2d_6">
      <g>
       <use xlink:href="#m0985d7e6c3" x="356.643148" y="390.04" style="stroke: #000000; stroke-width: 0.8"/>
      </g>
     </g>
     <g id="text_3">
      <!-- 1000 -->
      <g transform="translate(343.918148 404.638438) scale(0.1 -0.1)">
       <defs>
        <path id="DejaVuSans-31" d="M 794 531 
L 1825 531 
L 1825 4091 
L 703 3866 
L 703 4441 
L 1819 4666 
L 2450 4666 
L 2450 531 
L 3481 531 
L 3481 0 
L 794 0 
L 794 531 
z
" transform="scale(0.015625)"/>
       </defs>
       <use xlink:href="#DejaVuSans-31"/>
       <use xlink:href="#DejaVuSans-30" transform="translate(63.623047 0)"/>
       <use xlink:href="#DejaVuSans-30" transform="translate(127.246094 0)"/>
       <use xlink:href="#DejaVuSans-30" transform="translate(190.869141 0)"/>
      </g>
     </g>
    </g>
    <g id="xtick_4">
     <g id="line2d_7">
      <path d="M 493.450858 390.04 
L 493.450858 10.8 
" clip-path="url(#p258db37e1c)" style="fill: none; stroke: #b0b0b0; stroke-width: 0.8; stroke-linecap: square"/>
     </g>
     <g id="line2d_8">
      <g>
       <use xlink:href="#m0985d7e6c3" x="493.450858" y="390.04" style="stroke: #000000; stroke-width: 0.8"/>
      </g>
     </g>
     <g id="text_4">
      <!-- 1500 -->
      <g transform="translate(480.725858 404.638438) scale(0.1 -0.1)">
       <use xlink:href="#DejaVuSans-31"/>
       <use xlink:href="#DejaVuSans-35" transform="translate(63.623047 0)"/>
       <use xlink:href="#DejaVuSans-30" transform="translate(127.246094 0)"/>
       <use xlink:href="#DejaVuSans-30" transform="translate(190.869141 0)"/>
      </g>
     </g>
    </g>
    <g id="xtick_5">
     <g id="line2d_9">
      <path d="M 630.258568 390.04 
L 630.258568 10.8 
" clip-path="url(#p258db37e1c)" style="fill: none; stroke: #b0b0b0; stroke-width: 0.8; stroke-linecap: square"/>
     </g>
     <g id="line2d_10">
      <g>
       <use xlink:href="#m0985d7e6c3" x="630.258568" y="390.04" style="stroke: #000000; stroke-width: 0.8"/>
      </g>
     </g>
     <g id="text_5">
      <!-- 2000 -->
      <g transform="translate(617.533568 404.638438) scale(0.1 -0.1)">
       <defs>
        <path id="DejaVuSans-32" d="M 1228 531 
L 3431 531 
L 3431 0 
L 469 0 
L 469 531 
Q 828 903 1448 1529 
Q 2069 2156 2228 2338 
Q 2531 2678 2651 2914 
Q 2772 3150 2772 3378 
Q 2772 3750 2511 3984 
Q 2250 4219 1831 4219 
Q 1534 4219 1204 4116 
Q 875 4013 500 3803 
L 500 4441 
Q 881 4594 1212 4672 
Q 1544 4750 1819 4750 
Q 2544 4750 2975 4387 
Q 3406 4025 3406 3419 
Q 3406 3131 3298 2873 
Q 3191 2616 2906 2266 
Q 2828 2175 2409 1742 
Q 1991 1309 1228 531 
z
" transform="scale(0.015625)"/>
       </defs>
       <use xlink:href="#DejaVuSans-32"/>
       <use xlink:href="#DejaVuSans-30" transform="translate(63.623047 0)"/>
       <use xlink:href="#DejaVuSans-30" transform="translate(127.246094 0)"/>
       <use xlink:href="#DejaVuSans-30" transform="translate(190.869141 0)"/>
      </g>
     </g>
    </g>
    <g id="text_6">
     <!-- Iteration -->
     <g transform="translate(382.496406 418.316562) scale(0.1 -0.1)">
      <defs>
       <path id="DejaVuSans-49" d="M 628 4666 
L 1259 4666 
L 1259 0 
L 628 0 
L 628 4666 
z
" transform="scale(0.015625)"/>
       <path id="DejaVuSans-74" d="M 1172 4494 
L 1172 3500 
L 2356 3500 
L 2356 3053 
L 1172 3053 
L 1172 1153 
Q 1172 725 1289 603 
Q 1406 481 1766 481 
L 2356 481 
L 2356 0 
L 1766 0 
Q 1100 0 847 248 
Q 594 497 594 1153 
L 594 3053 
L 172 3053 
L 172 3500 
L 594 3500 
L 594 4494 
L 1172 4494 
z
" transform="scale(0.015625)"/>
       <path id="DejaVuSans-65" d="M 3597 1894 
L 3597 1613 
L 953 1613 
Q 991 1019 1311 708 
Q 1631 397 2203 397 
Q 2534 397 2845 478 
Q 3156 559 3463 722 
L 3463 178 
Q 3153 47 2828 -22 
Q 2503 -91 2169 -91 
Q 1331 -91 842 396 
Q 353 884 353 1716 
Q 353 2575 817 3079 
Q 1281 3584 2069 3584 
Q 2775 3584 3186 3129 
Q 3597 2675 3597 1894 
z
M 3022 2063 
Q 3016 2534 2758 2815 
Q 2500 3097 2075 3097 
Q 1594 3097 1305 2825 
Q 1016 2553 972 2059 
L 3022 2063 
z
" transform="scale(0.015625)"/>
       <path id="DejaVuSans-72" d="M 2631 2963 
Q 2534 3019 2420 3045 
Q 2306 3072 2169 3072 
Q 1681 3072 1420 2755 
Q 1159 2438 1159 1844 
L 1159 0 
L 581 0 
L 581 3500 
L 1159 3500 
L 1159 2956 
Q 1341 3275 1631 3429 
Q 1922 3584 2338 3584 
Q 2397 3584 2469 3576 
Q 2541 3569 2628 3553 
L 2631 2963 
z
" transform="scale(0.015625)"/>
       <path id="DejaVuSans-61" d="M 2194 1759 
Q 1497 1759 1228 1600 
Q 959 1441 959 1056 
Q 959 750 1161 570 
Q 1363 391 1709 391 
Q 2188 391 2477 730 
Q 2766 1069 2766 1631 
L 2766 1759 
L 2194 1759 
z
M 3341 1997 
L 3341 0 
L 2766 0 
L 2766 531 
Q 2569 213 2275 61 
Q 1981 -91 1556 -91 
Q 1019 -91 701 211 
Q 384 513 384 1019 
Q 384 1609 779 1909 
Q 1175 2209 1959 2209 
L 2766 2209 
L 2766 2266 
Q 2766 2663 2505 2880 
Q 2244 3097 1772 3097 
Q 1472 3097 1187 3025 
Q 903 2953 641 2809 
L 641 3341 
Q 956 3463 1253 3523 
Q 1550 3584 1831 3584 
Q 2591 3584 2966 3190 
Q 3341 2797 3341 1997 
z
" transform="scale(0.015625)"/>
       <path id="DejaVuSans-69" d="M 603 3500 
L 1178 3500 
L 1178 0 
L 603 0 
L 603 3500 
z
M 603 4863 
L 1178 4863 
L 1178 4134 
L 603 4134 
L 603 4863 
z
" transform="scale(0.015625)"/>
       <path id="DejaVuSans-6f" d="M 1959 3097 
Q 1497 3097 1228 2736 
Q 959 2375 959 1747 
Q 959 1119 1226 758 
Q 1494 397 1959 397 
Q 2419 397 2687 759 
Q 2956 1122 2956 1747 
Q 2956 2369 2687 2733 
Q 2419 3097 1959 3097 
z
M 1959 3584 
Q 2709 3584 3137 3096 
Q 3566 2609 3566 1747 
Q 3566 888 3137 398 
Q 2709 -91 1959 -91 
Q 1206 -91 779 398 
Q 353 888 353 1747 
Q 353 2609 779 3096 
Q 1206 3584 1959 3584 
z
" transform="scale(0.015625)"/>
       <path id="DejaVuSans-6e" d="M 3513 2113 
L 3513 0 
L 2938 0 
L 2938 2094 
Q 2938 2591 2744 2837 
Q 2550 3084 2163 3084 
Q 1697 3084 1428 2787 
Q 1159 2491 1159 1978 
L 1159 0 
L 581 0 
L 581 3500 
L 1159 3500 
L 1159 2956 
Q 1366 3272 1645 3428 
Q 1925 3584 2291 3584 
Q 2894 3584 3203 3211 
Q 3513 2838 3513 2113 
z
" transform="scale(0.015625)"/>
      </defs>
      <use xlink:href="#DejaVuSans-49"/>
      <use xlink:href="#DejaVuSans-74" transform="translate(29.492188 0)"/>
      <use xlink:href="#DejaVuSans-65" transform="translate(68.701172 0)"/>
      <use xlink:href="#DejaVuSans-72" transform="translate(130.224609 0)"/>
      <use xlink:href="#DejaVuSans-61" transform="translate(171.337891 0)"/>
      <use xlink:href="#DejaVuSans-74" transform="translate(232.617188 0)"/>
      <use xlink:href="#DejaVuSans-69" transform="translate(271.826172 0)"/>
      <use xlink:href="#DejaVuSans-6f" transform="translate(299.609375 0)"/>
      <use xlink:href="#DejaVuSans-6e" transform="translate(360.791016 0)"/>
     </g>
    </g>
   </g>
   <g id="matplotlib.axis_2">
    <g id="ytick_1">
     <g id="line2d_11">
      <path d="M 50.96 316.742644 
L 756.45 316.742644 
" clip-path="url(#p258db37e1c)" style="fill: none; stroke: #b0b0b0; stroke-width: 0.8; stroke-linecap: square"/>
     </g>
     <g id="line2d_12">
      <defs>
       <path id="mc60574b4fa" d="M 0 0 
L -3.5 0 
" style="stroke: #000000; stroke-width: 0.8"/>
      </defs>
      <g>
       <use xlink:href="#mc60574b4fa" x="50.96" y="316.742644" style="stroke: #000000; stroke-width: 0.8"/>
      </g>
     </g>
     <g id="text_7">
      <!-- 120 -->
      <g transform="translate(24.8725 320.541863) scale(0.1 -0.1)">
       <use xlink:href="#DejaVuSans-31"/>
       <use xlink:href="#DejaVuSans-32" transform="translate(63.623047 0)"/>
       <use xlink:href="#DejaVuSans-30" transform="translate(127.246094 0)"/>
      </g>
     </g>
    </g>
    <g id="ytick_2">
     <g id="line2d_13">
      <path d="M 50.96 235.173106 
L 756.45 235.173106 
" clip-path="url(#p258db37e1c)" style="fill: none; stroke: #b0b0b0; stroke-width: 0.8; stroke-linecap: square"/>
     </g>
     <g id="line2d_14">
      <g>
       <use xlink:href="#mc60574b4fa" x="50.96" y="235.173106" style="stroke: #000000; stroke-width: 0.8"/>
      </g>
     </g>
     <g id="text_8">
      <!-- 140 -->
      <g transform="translate(24.8725 238.972324) scale(0.1 -0.1)">
       <defs>
        <path id="DejaVuSans-34" d="M 2419 4116 
L 825 1625 
L 2419 1625 
L 2419 4116 
z
M 2253 4666 
L 3047 4666 
L 3047 1625 
L 3713 1625 
L 3713 1100 
L 3047 1100 
L 3047 0 
L 2419 0 
L 2419 1100 
L 313 1100 
L 313 1709 
L 2253 4666 
z
" transform="scale(0.015625)"/>
       </defs>
       <use xlink:href="#DejaVuSans-31"/>
       <use xlink:href="#DejaVuSans-34" transform="translate(63.623047 0)"/>
       <use xlink:href="#DejaVuSans-30" transform="translate(127.246094 0)"/>
      </g>
     </g>
    </g>
    <g id="ytick_3">
     <g id="line2d_15">
      <path d="M 50.96 153.603567 
L 756.45 153.603567 
" clip-path="url(#p258db37e1c)" style="fill: none; stroke: #b0b0b0; stroke-width: 0.8; stroke-linecap: square"/>
     </g>
     <g id="line2d_16">
      <g>
       <use xlink:href="#mc60574b4fa" x="50.96" y="153.603567" style="stroke: #000000; stroke-width: 0.8"/>
      </g>
     </g>
     <g id="text_9">
      <!-- 160 -->
      <g transform="translate(24.8725 157.402786) scale(0.1 -0.1)">
       <defs>
        <path id="DejaVuSans-36" d="M 2113 2584 
Q 1688 2584 1439 2293 
Q 1191 2003 1191 1497 
Q 1191 994 1439 701 
Q 1688 409 2113 409 
Q 2538 409 2786 701 
Q 3034 994 3034 1497 
Q 3034 2003 2786 2293 
Q 2538 2584 2113 2584 
z
M 3366 4563 
L 3366 3988 
Q 3128 4100 2886 4159 
Q 2644 4219 2406 4219 
Q 1781 4219 1451 3797 
Q 1122 3375 1075 2522 
Q 1259 2794 1537 2939 
Q 1816 3084 2150 3084 
Q 2853 3084 3261 2657 
Q 3669 2231 3669 1497 
Q 3669 778 3244 343 
Q 2819 -91 2113 -91 
Q 1303 -91 875 529 
Q 447 1150 447 2328 
Q 447 3434 972 4092 
Q 1497 4750 2381 4750 
Q 2619 4750 2861 4703 
Q 3103 4656 3366 4563 
z
" transform="scale(0.015625)"/>
       </defs>
       <use xlink:href="#DejaVuSans-31"/>
       <use xlink:href="#DejaVuSans-36" transform="translate(63.623047 0)"/>
       <use xlink:href="#DejaVuSans-30" transform="translate(127.246094 0)"/>
      </g>
     </g>
    </g>
    <g id="ytick_4">
     <g id="line2d_17">
      <path d="M 50.96 72.034029 
L 756.45 72.034029 
" clip-path="url(#p258db37e1c)" style="fill: none; stroke: #b0b0b0; stroke-width: 0.8; stroke-linecap: square"/>
     </g>
     <g id="line2d_18">
      <g>
       <use xlink:href="#mc60574b4fa" x="50.96" y="72.034029" style="stroke: #000000; stroke-width: 0.8"/>
      </g>
     </g>
     <g id="text_10">
      <!-- 180 -->
      <g transform="translate(24.8725 75.833248) scale(0.1 -0.1)">
       <defs>
        <path id="DejaVuSans-38" d="M 2034 2216 
Q 1584 2216 1326 1975 
Q 1069 1734 1069 1313 
Q 1069 891 1326 650 
Q 1584 409 2034 409 
Q 2484 409 2743 651 
Q 3003 894 3003 1313 
Q 3003 1734 2745 1975 
Q 2488 2216 2034 2216 
z
M 1403 2484 
Q 997 2584 770 2862 
Q 544 3141 544 3541 
Q 544 4100 942 4425 
Q 1341 4750 2034 4750 
Q 2731 4750 3128 4425 
Q 3525 4100 3525 3541 
Q 3525 3141 3298 2862 
Q 3072 2584 2669 2484 
Q 3125 2378 3379 2068 
Q 3634 1759 3634 1313 
Q 3634 634 3220 271 
Q 2806 -91 2034 -91 
Q 1263 -91 848 271 
Q 434 634 434 1313 
Q 434 1759 690 2068 
Q 947 2378 1403 2484 
z
M 1172 3481 
Q 1172 3119 1398 2916 
Q 1625 2713 2034 2713 
Q 2441 2713 2670 2916 
Q 2900 3119 2900 3481 
Q 2900 3844 2670 4047 
Q 2441 4250 2034 4250 
Q 1625 4250 1398 4047 
Q 1172 3844 1172 3481 
z
" transform="scale(0.015625)"/>
       </defs>
       <use xlink:href="#DejaVuSans-31"/>
       <use xlink:href="#DejaVuSans-38" transform="translate(63.623047 0)"/>
       <use xlink:href="#DejaVuSans-30" transform="translate(127.246094 0)"/>
      </g>
     </g>
    </g>
    <g id="text_11">
     <!-- Residual -->
     <g transform="translate(18.792813 221.535625) rotate(-90) scale(0.1 -0.1)">
      <defs>
       <path id="DejaVuSans-52" d="M 2841 2188 
Q 3044 2119 3236 1894 
Q 3428 1669 3622 1275 
L 4263 0 
L 3584 0 
L 2988 1197 
Q 2756 1666 2539 1819 
Q 2322 1972 1947 1972 
L 1259 1972 
L 1259 0 
L 628 0 
L 628 4666 
L 2053 4666 
Q 2853 4666 3247 4331 
Q 3641 3997 3641 3322 
Q 3641 2881 3436 2590 
Q 3231 2300 2841 2188 
z
M 1259 4147 
L 1259 2491 
L 2053 2491 
Q 2509 2491 2742 2702 
Q 2975 2913 2975 3322 
Q 2975 3731 2742 3939 
Q 2509 4147 2053 4147 
L 1259 4147 
z
" transform="scale(0.015625)"/>
       <path id="DejaVuSans-73" d="M 2834 3397 
L 2834 2853 
Q 2591 2978 2328 3040 
Q 2066 3103 1784 3103 
Q 1356 3103 1142 2972 
Q 928 2841 928 2578 
Q 928 2378 1081 2264 
Q 1234 2150 1697 2047 
L 1894 2003 
Q 2506 1872 2764 1633 
Q 3022 1394 3022 966 
Q 3022 478 2636 193 
Q 2250 -91 1575 -91 
Q 1294 -91 989 -36 
Q 684 19 347 128 
L 347 722 
Q 666 556 975 473 
Q 1284 391 1588 391 
Q 1994 391 2212 530 
Q 2431 669 2431 922 
Q 2431 1156 2273 1281 
Q 2116 1406 1581 1522 
L 1381 1569 
Q 847 1681 609 1914 
Q 372 2147 372 2553 
Q 372 3047 722 3315 
Q 1072 3584 1716 3584 
Q 2034 3584 2315 3537 
Q 2597 3491 2834 3397 
z
" transform="scale(0.015625)"/>
       <path id="DejaVuSans-64" d="M 2906 2969 
L 2906 4863 
L 3481 4863 
L 3481 0 
L 2906 0 
L 2906 525 
Q 2725 213 2448 61 
Q 2172 -91 1784 -91 
Q 1150 -91 751 415 
Q 353 922 353 1747 
Q 353 2572 751 3078 
Q 1150 3584 1784 3584 
Q 2172 3584 2448 3432 
Q 2725 3281 2906 2969 
z
M 947 1747 
Q 947 1113 1208 752 
Q 1469 391 1925 391 
Q 2381 391 2643 752 
Q 2906 1113 2906 1747 
Q 2906 2381 2643 2742 
Q 2381 3103 1925 3103 
Q 1469 3103 1208 2742 
Q 947 2381 947 1747 
z
" transform="scale(0.015625)"/>
       <path id="DejaVuSans-75" d="M 544 1381 
L 544 3500 
L 1119 3500 
L 1119 1403 
Q 1119 906 1312 657 
Q 1506 409 1894 409 
Q 2359 409 2629 706 
Q 2900 1003 2900 1516 
L 2900 3500 
L 3475 3500 
L 3475 0 
L 2900 0 
L 2900 538 
Q 2691 219 2414 64 
Q 2138 -91 1772 -91 
Q 1169 -91 856 284 
Q 544 659 544 1381 
z
M 1991 3584 
L 1991 3584 
z
" transform="scale(0.015625)"/>
       <path id="DejaVuSans-6c" d="M 603 4863 
L 1178 4863 
L 1178 0 
L 603 0 
L 603 4863 
z
" transform="scale(0.015625)"/>
      </defs>
      <use xlink:href="#DejaVuSans-52"/>
      <use xlink:href="#DejaVuSans-65" transform="translate(64.982422 0)"/>
      <use xlink:href="#DejaVuSans-73" transform="translate(126.505859 0)"/>
      <use xlink:href="#DejaVuSans-69" transform="translate(178.605469 0)"/>
      <use xlink:href="#DejaVuSans-64" transform="translate(206.388672 0)"/>
      <use xlink:href="#DejaVuSans-75" transform="translate(269.865234 0)"/>
      <use xlink:href="#DejaVuSans-61" transform="translate(333.244141 0)"/>
      <use xlink:href="#DejaVuSans-6c" transform="translate(394.523438 0)"/>
     </g>
    </g>
   </g>
   <g id="line2d_19">
    <defs>
     <path id="m0a46ff1c68" d="M 0 3 
C 0.795609 3 1.55874 2.683901 2.12132 2.12132 
C 2.683901 1.55874 3 0.795609 3 0 
C 3 -0.795609 2.683901 -1.55874 2.12132 -2.12132 
C 1.55874 -2.683901 0.795609 -3 0 -3 
C -0.795609 -3 -1.55874 -2.683901 -2.12132 -2.12132 
C -2.683901 -1.55874 -3 -0.795609 -3 0 
C -3 0.795609 -2.683901 1.55874 -2.12132 2.12132 
C -1.55874 2.683901 -0.795609 3 0 3 
z
" style="stroke: #1f77b4"/>
    </defs>
    <g clip-path="url(#p258db37e1c)">
     <use xlink:href="#m0a46ff1c68" x="83.027727" y="372.801818" style="fill: #1f77b4; stroke: #1f77b4"/>
    </g>
   </g>
   <g id="line2d_20">
    <defs>
     <path id="maa47bbeb2c" d="M 0 3 
C 0.795609 3 1.55874 2.683901 2.12132 2.12132 
C 2.683901 1.55874 3 0.795609 3 0 
C 3 -0.795609 2.683901 -1.55874 2.12132 -2.12132 
C 1.55874 -2.683901 0.795609 -3 0 -3 
C -0.795609 -3 -1.55874 -2.683901 -2.12132 -2.12132 
C -2.683901 -1.55874 -3 -0.795609 -3 0 
C -3 0.795609 -2.683901 1.55874 -2.12132 2.12132 
C -1.55874 2.683901 -0.795609 3 0 3 
z
" style="stroke: #ff7f0e"/>
    </defs>
    <g clip-path="url(#p258db37e1c)">
     <use xlink:href="#maa47bbeb2c" x="83.027727" y="282.581892" style="fill: #ff7f0e; stroke: #ff7f0e"/>
    </g>
   </g>
   <g id="line2d_21">
    <defs>
     <path id="m520f727a23" d="M 0 3 
C 0.795609 3 1.55874 2.683901 2.12132 2.12132 
C 2.683901 1.55874 3 0.795609 3 0 
C 3 -0.795609 2.683901 -1.55874 2.12132 -2.12132 
C 1.55874 -2.683901 0.795609 -3 0 -3 
C -0.795609 -3 -1.55874 -2.683901 -2.12132 -2.12132 
C -2.683901 -1.55874 -3 -0.795609 -3 0 
C -3 0.795609 -2.683901 1.55874 -2.12132 2.12132 
C -1.55874 2.683901 -0.795609 3 0 3 
z
" style="stroke: #2ca02c"/>
    </defs>
    <g clip-path="url(#p258db37e1c)">
     <use xlink:href="#m520f727a23" x="83.027727" y="265.354963" style="fill: #2ca02c; stroke: #2ca02c"/>
    </g>
   </g>
   <g id="line2d_22">
    <defs>
     <path id="m707050d103" d="M 0 3 
C 0.795609 3 1.55874 2.683901 2.12132 2.12132 
C 2.683901 1.55874 3 0.795609 3 0 
C 3 -0.795609 2.683901 -1.55874 2.12132 -2.12132 
C 1.55874 -2.683901 0.795609 -3 0 -3 
C -0.795609 -3 -1.55874 -2.683901 -2.12132 -2.12132 
C -2.683901 -1.55874 -3 -0.795609 -3 0 
C -3 0.795609 -2.683901 1.55874 -2.12132 2.12132 
C -1.55874 2.683901 -0.795609 3 0 3 
z
" style="stroke: #d62728"/>
    </defs>
    <g clip-path="url(#p258db37e1c)">
     <use xlink:href="#m707050d103" x="83.027727" y="325.774757" style="fill: #d62728; stroke: #d62728"/>
    </g>
   </g>
   <g id="line2d_23">
    <defs>
     <path id="m7fcf823800" d="M 0 3 
C 0.795609 3 1.55874 2.683901 2.12132 2.12132 
C 2.683901 1.55874 3 0.795609 3 0 
C 3 -0.795609 2.683901 -1.55874 2.12132 -2.12132 
C 1.55874 -2.683901 0.795609 -3 0 -3 
C -0.795609 -3 -1.55874 -2.683901 -2.12132 -2.12132 
C -2.683901 -1.55874 -3 -0.795609 -3 0 
C -3 0.795609 -2.683901 1.55874 -2.12132 2.12132 
C -1.55874 2.683901 -0.795609 3 0 3 
z
" style="stroke: #9467bd"/>
    </defs>
    <g clip-path="url(#p258db37e1c)">
     <use xlink:href="#m7fcf823800" x="83.027727" y="360.044977" style="fill: #9467bd; stroke: #9467bd"/>
    </g>
   </g>
   <g id="line2d_24">
    <path d="M 83.027727 36.161411 
L 83.301343 36.673189 
L 83.574958 42.638848 
L 83.848574 42.985938 
L 84.122189 48.283204 
L 84.395804 51.422853 
L 84.66942 58.337697 
L 84.943035 64.104336 
L 85.216651 70.761919 
L 85.490266 75.271892 
L 85.763881 79.413596 
L 86.037497 84.955758 
L 86.311112 90.173723 
L 86.584728 95.844107 
L 86.858343 99.873143 
L 87.131959 103.466117 
L 87.405574 107.005138 
L 87.679189 109.993755 
L 87.952805 113.908446 
L 88.22642 118.290145 
L 88.500036 123.540089 
L 88.773651 128.556975 
L 89.047267 132.75232 
L 89.320882 139.136759 
L 89.594497 143.297871 
L 89.868113 147.484529 
L 90.141728 150.259769 
L 90.415344 152.056881 
L 90.688959 152.004631 
" clip-path="url(#p258db37e1c)" style="fill: none; stroke: #8c564b; stroke-width: 1.5; stroke-linecap: square"/>
   </g>
   <g id="line2d_25">
    <path d="M 83.027727 30.651425 
L 83.848574 37.223928 
L 85.216651 46.940784 
L 85.490266 49.404221 
L 86.311112 53.835266 
L 86.584728 56.021849 
L 86.858343 57.035555 
L 87.952805 62.494227 
L 88.22642 63.655443 
L 88.500036 65.867696 
L 89.047267 68.055695 
L 92.057036 83.447757 
L 93.151498 88.053267 
L 93.972344 91.282613 
L 94.519575 94.219316 
L 94.79319 94.657116 
L 95.066806 96.170029 
L 95.340421 96.763018 
L 96.161267 100.820259 
L 96.982114 103.800359 
L 97.255729 104.162758 
L 97.529345 105.782874 
L 97.80296 106.15928 
L 98.623806 109.896386 
L 98.897422 111.225488 
L 99.171037 111.88209 
L 99.444652 113.197886 
L 99.718268 113.802995 
L 101.086345 119.506882 
L 104.096115 128.831256 
L 104.916961 131.940238 
L 105.190576 132.558273 
L 105.737807 134.198208 
L 106.285038 135.515876 
L 106.558653 136.640623 
L 107.926731 139.114861 
L 108.200346 140.001286 
L 108.473961 140.452036 
L 108.747577 141.23173 
L 109.021192 142.700179 
L 109.294808 143.312066 
L 110.115654 145.967113 
L 111.483731 149.174185 
L 111.757346 149.627866 
L 112.304577 151.258504 
L 112.851808 152.170003 
L 113.125424 152.630637 
L 114.767116 157.641166 
L 115.314347 158.985614 
L 115.587962 159.32419 
L 115.861578 159.860332 
L 116.135193 160.700647 
L 116.408809 161.03109 
L 116.956039 162.482697 
L 118.324117 164.952437 
L 119.144963 165.803827 
L 119.692194 166.944798 
L 120.239424 167.483306 
L 120.51304 168.192751 
L 121.333886 169.365928 
L 121.881117 170.691338 
L 124.343656 174.017205 
L 124.890887 175.374592 
L 125.164502 175.644567 
L 125.438117 176.211891 
L 126.258964 177.050598 
L 126.532579 177.993744 
L 127.07981 178.784556 
L 127.353425 179.378667 
L 127.900656 180.047669 
L 128.174272 180.872474 
L 128.447887 181.267039 
L 128.721502 182.379514 
L 129.268733 183.362904 
L 129.815964 184.733708 
L 130.363195 185.405197 
L 130.63681 186.205293 
L 131.184041 186.707012 
L 132.004888 187.574679 
L 132.552118 189.280059 
L 132.825734 189.641199 
L 133.099349 190.263565 
L 133.372965 190.453462 
L 133.64658 190.821373 
L 133.920195 191.539687 
L 134.193811 191.780349 
L 135.014657 193.722431 
L 135.288273 193.997273 
L 135.835503 195.469155 
L 136.929965 197.282499 
L 137.203581 197.657716 
L 137.477196 197.795593 
L 138.024427 199.093056 
L 138.845273 200.199928 
L 139.118888 200.78673 
L 139.666119 201.36598 
L 139.939735 201.512154 
L 140.21335 202.009694 
L 140.760581 203.415432 
L 141.034196 203.583929 
L 141.307812 204.052076 
L 141.581427 204.227993 
L 141.855043 204.590537 
L 142.128658 204.701619 
L 142.675889 205.627588 
L 143.22312 206.218675 
L 143.496735 206.846613 
L 143.770351 206.935394 
L 144.591197 207.905726 
L 144.864812 208.339056 
L 145.138428 208.501826 
L 145.412043 209.19614 
L 145.685659 209.374966 
L 145.959274 210.168574 
L 146.78012 210.901112 
L 147.327351 211.506448 
L 148.148197 213.042496 
L 148.421813 213.360961 
L 148.969044 214.235475 
L 149.516274 214.627116 
L 149.78989 214.833479 
L 150.063505 215.19043 
L 150.337121 215.751419 
L 150.884352 216.353207 
L 151.705198 217.45126 
L 152.252429 217.745073 
L 153.073275 218.555844 
L 153.620506 219.731216 
L 153.894121 219.825406 
L 154.714967 221.059479 
L 154.988583 221.148514 
L 155.262198 221.497106 
L 155.809429 222.370979 
L 156.903891 223.193116 
L 159.36643 226.077869 
L 159.640045 226.681468 
L 160.187276 227.080362 
L 160.460891 228.583587 
L 160.734507 229.255044 
L 161.555353 229.836234 
L 161.828968 230.303822 
L 162.102584 230.540342 
L 162.376199 230.939658 
L 162.649815 231.077431 
L 163.744276 232.210217 
L 164.017892 232.722255 
L 165.112353 233.551353 
L 165.385969 233.800313 
L 165.659584 233.869478 
L 166.206815 234.304493 
L 166.48043 234.394444 
L 167.301277 235.370537 
L 168.122123 236.300518 
L 168.395738 236.779564 
L 168.942969 237.368088 
L 169.4902 238.224846 
L 169.763816 238.43217 
L 170.037431 238.892559 
L 171.131893 239.666581 
L 171.679123 240.16106 
L 172.226354 240.645271 
L 172.773585 241.427632 
L 173.047201 241.538949 
L 173.320816 242.543913 
L 174.688893 243.802533 
L 175.509739 244.439972 
L 176.604201 245.550333 
L 177.425047 246.596899 
L 177.698663 246.747478 
L 177.972278 247.292128 
L 178.245894 247.461081 
L 179.613971 248.950942 
L 180.161202 249.229027 
L 180.982048 249.922548 
L 181.255663 250.09847 
L 181.529279 250.524893 
L 182.62374 251.324164 
L 183.444587 251.66849 
L 184.539048 252.935592 
L 184.812664 253.05855 
L 185.359895 253.529448 
L 185.907125 253.793352 
L 187.001587 254.680324 
L 187.548818 255.182176 
L 187.822433 255.372204 
L 188.096049 255.863138 
L 188.916895 256.474844 
L 189.19051 256.834074 
L 189.464126 256.939402 
L 189.737741 257.542014 
L 190.011357 257.607776 
L 191.379434 258.600749 
L 193.021126 259.657634 
L 194.115588 260.786748 
L 196.578127 262.684985 
L 196.851742 262.735424 
L 198.219819 263.725025 
L 198.76705 264.244023 
L 200.135127 265.141886 
L 200.408743 265.233914 
L 200.955973 265.763442 
L 202.050435 266.293426 
L 202.324051 266.593898 
L 203.418512 267.132017 
L 203.692128 267.460563 
L 206.154666 268.912749 
L 206.428282 269.438805 
L 206.975513 269.729227 
L 207.249128 269.884189 
L 207.522744 270.204075 
L 209.164436 271.05654 
L 209.711667 271.400865 
L 210.258898 271.540934 
L 211.079744 272.036584 
L 211.90059 272.321954 
L 216.004822 274.491599 
L 216.278437 275.306695 
L 221.203515 277.881803 
L 223.118823 278.723549 
L 224.213284 279.635202 
L 224.760515 279.872325 
L 225.03413 279.963992 
L 225.307746 280.538896 
L 226.675823 281.138524 
L 227.223054 281.431992 
L 228.317516 281.832575 
L 228.591131 282.284198 
L 231.05367 283.480683 
L 232.421747 284.372944 
L 233.516209 284.948144 
L 233.789824 285.379783 
L 238.441286 287.177201 
L 240.630209 288.21077 
L 241.451056 288.425848 
L 242.545517 288.809113 
L 243.092748 289.242158 
L 243.639979 289.447005 
L 244.18721 289.665977 
L 244.734441 290.507681 
L 246.102518 291.083457 
L 246.923364 291.617337 
L 247.74421 291.853411 
L 248.017826 292.183994 
L 249.385903 292.696536 
L 249.659518 292.75956 
L 249.933134 292.949614 
L 250.206749 292.982575 
L 250.480365 293.263766 
L 250.75398 293.718949 
L 251.848442 294.050781 
L 252.395673 294.434605 
L 252.942903 294.730655 
L 253.76375 295.044486 
L 254.858211 295.354053 
L 255.679058 295.643236 
L 257.047135 296.121974 
L 257.32075 296.441101 
L 258.688827 296.83218 
L 260.604135 297.70631 
L 262.245828 298.251636 
L 263.340289 298.663726 
L 263.613905 298.919306 
L 264.434751 299.068785 
L 265.529213 299.704872 
L 268.538982 300.74667 
L 268.812598 300.917422 
L 269.086213 301.246795 
L 271.275137 302.032888 
L 272.095983 302.152106 
L 272.916829 302.507637 
L 275.105752 303.161349 
L 279.209984 304.288452 
L 279.757215 304.453192 
L 281.125292 304.835266 
L 281.672522 304.986276 
L 282.219753 305.203677 
L 283.0406 305.45978 
L 284.408677 305.705666 
L 284.682292 306.288696 
L 286.050369 306.696866 
L 287.965677 307.257191 
L 288.239293 307.50943 
L 289.060139 307.671321 
L 290.701831 308.068375 
L 290.975447 308.369164 
L 292.343524 308.744385 
L 292.890755 308.908921 
L 293.985216 309.171278 
L 294.806063 309.489263 
L 296.17414 309.754219 
L 297.815832 310.513334 
L 298.910294 310.814686 
L 299.183909 311.017512 
L 299.73114 311.109033 
L 301.099217 311.765142 
L 301.646448 311.867718 
L 302.193679 312.150619 
L 303.014525 312.366154 
L 303.835372 312.767562 
L 306.29791 313.211752 
L 306.845141 313.49706 
L 307.392372 313.662053 
L 307.665987 313.696222 
L 308.213218 313.898054 
L 309.854911 314.172108 
L 310.402142 314.312574 
L 310.949372 314.480173 
L 311.496603 314.55109 
L 312.591065 314.950272 
L 313.138296 315.016193 
L 313.685527 315.226016 
L 315.600835 315.678062 
L 315.87445 315.994515 
L 320.799528 317.094475 
L 322.44122 317.359171 
L 324.082913 317.710308 
L 325.177374 318.220868 
L 325.45099 318.616803 
L 326.545451 318.828644 
L 328.187144 319.418613 
L 329.00799 319.542648 
L 333.112222 320.574358 
L 333.659452 320.750786 
L 336.942837 321.460238 
L 337.763684 321.703305 
L 344.330454 323.047577 
L 344.604069 323.247109 
L 355.001455 325.360925 
L 356.369532 325.633317 
L 356.369532 325.633317 
" clip-path="url(#p258db37e1c)" style="fill: none; stroke: #e377c2; stroke-width: 1.5; stroke-linecap: square"/>
   </g>
   <g id="line2d_26">
    <path d="M 83.027727 29.084985 
L 83.848574 31.810796 
L 85.216651 35.840948 
L 85.763881 37.395036 
L 88.773651 44.018611 
L 89.594497 45.556181 
L 89.868113 46.414988 
L 90.141728 46.822091 
L 91.783421 50.647102 
L 92.057036 50.828279 
L 93.151498 52.72173 
L 93.698729 53.531125 
L 94.519575 55.269319 
L 94.79319 55.431353 
L 95.066806 56.050823 
L 95.340421 56.296487 
L 96.161267 57.946207 
L 96.982114 59.181846 
L 97.255729 59.310142 
L 97.529345 59.970496 
L 97.80296 60.081903 
L 98.350191 61.051643 
L 98.897422 62.248259 
L 99.171037 62.488346 
L 99.444652 63.044734 
L 99.718268 63.291067 
L 101.35996 65.820862 
L 101.633576 66.008164 
L 102.728038 67.555465 
L 103.548884 68.520829 
L 104.916961 70.501305 
L 107.653115 73.206596 
L 107.926731 73.432907 
L 108.200346 73.833841 
L 108.747577 74.275761 
L 109.021192 74.854298 
L 112.578193 78.529129 
L 113.125424 78.811015 
L 113.672654 79.484757 
L 113.94627 79.744355 
L 114.493501 80.670897 
L 114.767116 80.816953 
L 115.314347 81.31471 
L 115.861578 81.636409 
L 116.135193 82.031781 
L 116.408809 82.14842 
L 116.956039 82.72558 
L 124.07004 87.088138 
L 124.343656 87.229716 
L 124.890887 87.792341 
L 125.164502 87.853683 
L 125.438117 88.092353 
L 125.711733 88.155439 
L 125.985348 88.346824 
L 126.258964 88.340504 
L 126.532579 88.750489 
L 128.447887 89.936374 
L 128.721502 90.487865 
L 129.268733 90.812727 
L 130.08958 91.479329 
L 131.457657 92.209316 
L 132.004888 92.416063 
L 132.552118 93.025271 
L 132.825734 93.12201 
L 133.099349 93.378337 
L 133.372965 93.397571 
L 133.64658 93.575669 
L 133.920195 93.950423 
L 134.193811 93.998332 
L 135.014657 94.779733 
L 135.288273 94.831745 
L 135.561888 95.211966 
L 137.203581 96.249079 
L 137.477196 96.251074 
L 138.298042 96.933784 
L 138.845273 97.180471 
L 139.392504 97.513732 
L 139.939735 97.581852 
L 140.486966 98.268844 
L 140.760581 98.424497 
L 141.034196 98.420833 
L 141.307812 98.659412 
L 142.128658 98.948245 
L 143.496735 99.834614 
L 143.770351 99.748529 
L 144.317581 99.874042 
L 144.591197 100.214464 
L 145.138428 100.373575 
L 145.412043 100.633743 
L 145.685659 100.720947 
L 145.959274 101.032902 
L 147.327351 101.506429 
L 148.969044 102.500388 
L 149.242659 102.513308 
L 150.610736 103.188598 
L 150.884352 103.242923 
L 151.157967 103.542315 
L 153.34689 104.394234 
L 153.620506 104.596414 
L 153.894121 104.618954 
L 154.714967 105.132173 
L 155.262198 105.233199 
L 155.809429 105.594445 
L 156.35666 105.660609 
L 157.451122 106.152989 
L 158.271968 106.447919 
L 158.545583 106.650264 
L 159.092814 106.861753 
L 159.36643 106.932179 
L 159.640045 107.197377 
L 160.187276 107.464678 
L 160.460891 108.120812 
L 162.92343 108.958202 
L 163.470661 109.228218 
L 163.744276 109.193566 
L 164.017892 109.503118 
L 164.565123 109.563695 
L 165.112353 109.862394 
L 165.659584 109.958549 
L 166.754046 110.378972 
L 167.848508 110.777947 
L 168.122123 110.827847 
L 168.669354 111.239776 
L 169.216585 111.392796 
L 169.763816 111.648343 
L 170.037431 111.889992 
L 171.952739 112.363753 
L 172.49997 112.607228 
L 172.773585 112.64607 
L 173.047201 112.805784 
L 173.320816 113.367673 
L 173.868047 113.518614 
L 174.141662 113.798608 
L 174.962509 114.120911 
L 175.236124 114.018487 
L 176.604201 114.373286 
L 177.151432 114.596783 
L 177.972278 115.118254 
L 178.245894 115.084919 
L 179.340355 115.413989 
L 179.613971 115.709416 
L 181.529279 116.239192 
L 182.350125 116.453969 
L 182.897356 116.347772 
L 183.444587 116.651772 
L 184.539048 117.051159 
L 184.812664 117.231905 
L 185.086279 117.247895 
L 185.63351 117.529743 
L 185.907125 117.462978 
L 188.916895 118.364484 
L 189.19051 118.56448 
L 189.464126 118.579758 
L 189.737741 118.980957 
L 190.558587 118.901511 
L 196.304511 120.643876 
L 196.851742 120.613365 
L 198.76705 121.111777 
L 199.314281 121.063753 
L 199.587896 121.346031 
L 200.135127 121.425819 
L 201.229589 121.836464 
L 201.503204 121.764904 
L 202.871281 122.195425 
L 203.418512 122.089115 
L 203.692128 122.388145 
L 205.607436 122.635726 
L 206.428282 123.062433 
L 206.701897 123.202297 
L 206.975513 123.15381 
L 209.438052 123.770227 
L 210.532513 123.853505 
L 211.079744 123.927015 
L 211.353359 123.838012 
L 211.626975 123.994252 
L 211.90059 123.904693 
L 212.721437 124.211115 
L 213.268667 124.376639 
L 216.004822 124.800977 
L 216.278437 125.215413 
L 217.372899 125.419446 
L 217.92013 125.601355 
L 219.288207 125.839387 
L 219.561822 125.679622 
L 220.382668 125.941611 
L 220.656284 126.141867 
L 221.47713 126.154661 
L 223.118823 126.278451 
L 223.939669 126.524065 
L 224.760515 126.72445 
L 225.03413 126.63255 
L 225.307746 126.981548 
L 225.581361 126.965781 
L 225.854977 127.287045 
L 226.402208 127.331215 
L 226.675823 127.23811 
L 226.949438 127.391077 
L 227.496669 127.301519 
L 228.317516 127.317199 
L 228.591131 127.542815 
L 229.411977 127.61965 
L 231.327285 128.251696 
L 231.600901 128.118985 
L 232.148131 128.303388 
L 232.695362 128.484818 
L 232.968978 128.619569 
L 233.242593 128.562773 
L 233.789824 128.790889 
L 234.063439 128.661069 
L 234.61067 128.877681 
L 234.884286 129.01514 
L 235.157901 128.890883 
L 235.705132 129.162971 
L 236.252363 129.153918 
L 236.525978 129.17358 
L 236.799594 129.049305 
L 237.346824 129.159919 
L 237.894055 129.323113 
L 238.441286 129.420456 
L 239.535748 129.387267 
L 239.809363 129.644097 
L 240.082979 129.714655 
L 240.356594 129.660421 
L 240.630209 129.757877 
L 241.17744 129.739827 
L 241.724671 129.93505 
L 242.271902 129.844615 
L 242.545517 129.946661 
L 242.819133 129.859429 
L 243.366364 130.012469 
L 243.913594 130.042039 
L 244.18721 130.108303 
L 244.460825 130.442253 
L 245.281672 130.82832 
L 245.828902 130.888882 
L 246.102518 130.861826 
L 246.649749 131.104233 
L 247.19698 131.257366 
L 247.74421 131.241295 
L 248.291441 131.479828 
L 250.206749 131.558978 
L 251.027595 131.848649 
L 251.848442 131.905163 
L 252.122057 132.211116 
L 252.395673 132.195871 
L 252.669288 132.348115 
L 253.216519 132.352069 
L 254.584596 132.559216 
L 255.131827 132.645507 
L 255.952673 132.734341 
L 256.499904 132.740205 
L 256.773519 132.852414 
L 257.047135 132.814003 
L 257.867981 133.060173 
L 258.688827 132.889677 
L 259.783289 133.123714 
L 260.056904 133.125362 
L 261.151366 133.661602 
L 261.424981 133.721814 
L 261.698597 133.602353 
L 262.793058 133.655327 
L 263.066674 133.799352 
L 263.340289 133.624416 
L 263.613905 133.705985 
L 263.88752 133.633828 
L 264.434751 133.874857 
L 264.708366 133.945759 
L 264.981982 133.85522 
L 265.802828 133.979178 
L 266.076444 133.76269 
L 266.623674 133.785576 
L 268.538982 134.618732 
L 268.812598 134.5711 
L 269.086213 134.814598 
L 269.633444 134.860589 
L 270.45429 134.869668 
L 271.275137 135.020097 
L 271.822367 134.879937 
L 272.095983 134.779585 
L 272.369598 135.099884 
L 272.643214 134.873089 
L 272.916829 134.980566 
L 273.190444 134.938047 
L 273.737675 135.330395 
L 274.558522 135.263815 
L 275.926599 135.210864 
L 276.47383 135.343743 
L 277.294676 135.275902 
L 277.568291 135.51024 
L 277.841907 135.586818 
L 278.115522 135.470612 
L 280.03083 135.675653 
L 281.398907 135.397554 
L 283.58783 135.855579 
L 284.408677 135.92917 
L 284.682292 136.346884 
L 285.776754 136.467508 
L 286.5976 136.557505 
L 286.871215 136.768157 
L 287.418446 136.807868 
L 287.965677 136.677142 
L 288.239293 136.823763 
L 289.060139 136.67479 
L 289.60737 136.958709 
L 290.701831 136.787005 
L 291.249062 137.14758 
L 291.796293 137.202309 
L 292.617139 137.240569 
L 293.16437 137.235557 
L 293.985216 137.365255 
L 295.900524 137.527087 
L 296.17414 137.757749 
L 297.815832 137.965014 
L 298.636679 137.984616 
L 298.910294 138.107197 
L 299.457525 138.19528 
L 301.646448 138.297778 
L 301.920064 138.537148 
L 302.74091 138.537985 
L 303.288141 138.643669 
L 303.561756 138.322968 
L 303.835372 138.432152 
L 304.108987 138.689197 
L 304.656218 138.706443 
L 305.203449 138.744525 
L 305.750679 138.874247 
L 306.024295 138.917072 
L 306.29791 138.754421 
L 307.118757 138.804793 
L 307.392372 138.795045 
L 308.213218 139.011556 
L 308.486834 138.888891 
L 308.760449 139.00313 
L 309.034065 138.995673 
L 309.30768 138.834545 
L 309.581295 138.953256 
L 309.854911 138.746671 
L 310.128526 138.990937 
L 310.949372 139.166695 
L 311.222988 139.322441 
L 311.496603 139.235102 
L 311.770219 139.361592 
L 312.043834 139.147091 
L 312.31745 139.287838 
L 312.591065 139.175688 
L 312.86468 139.189289 
L 313.685527 139.646948 
L 314.232758 139.621877 
L 314.506373 139.67669 
L 314.779988 139.852083 
L 316.148065 139.966108 
L 316.968912 139.718393 
L 317.789758 140.21245 
L 318.336989 140.050517 
L 318.610604 139.953307 
L 319.431451 140.050946 
L 319.705066 140.075996 
L 319.978681 140.248416 
L 320.252297 140.061827 
L 320.525912 140.340858 
L 322.167605 140.173053 
L 322.44122 140.328044 
L 322.714836 140.290561 
L 322.988451 140.442217 
L 324.082913 140.413524 
L 324.903759 140.585087 
L 325.177374 140.622646 
L 325.45099 140.860169 
L 325.998221 140.853198 
L 326.545451 140.979179 
L 326.819067 140.884405 
L 327.092682 141.06112 
L 327.366298 140.972359 
L 328.187144 141.120024 
L 328.460759 141.372962 
L 329.00799 141.413913 
L 329.828836 141.313378 
L 330.649683 141.460021 
L 330.923298 141.208442 
L 331.196914 141.122276 
L 331.744144 141.206032 
L 332.291375 141.379291 
L 332.838606 141.047205 
L 334.206683 141.462513 
L 335.301145 141.611017 
L 335.57476 141.728076 
L 336.395607 141.681979 
L 336.669222 141.935887 
L 336.942837 141.946668 
L 337.216453 142.138648 
L 338.310915 141.989916 
L 338.858145 142.259595 
L 339.131761 142.340025 
L 339.405376 142.0847 
L 339.952607 141.961574 
L 340.226222 141.958014 
L 340.773453 142.265318 
L 341.047069 142.098779 
L 343.509608 141.9857 
L 343.783223 142.349359 
L 344.056838 142.226315 
L 344.604069 142.383637 
L 344.877685 142.420133 
L 345.698531 142.811011 
L 346.519377 142.778141 
L 347.340223 142.796296 
L 348.434685 142.976681 
L 348.7083 143.171088 
L 349.529147 142.979602 
L 350.076378 143.040302 
L 350.349993 142.936608 
L 351.170839 142.922819 
L 351.444455 142.792156 
L 351.991686 142.902894 
L 352.265301 142.757001 
L 352.812532 143.053393 
L 353.086147 142.948248 
L 353.359763 143.082157 
L 353.906993 142.933161 
L 355.001455 143.374691 
L 355.275071 143.162697 
L 356.369532 143.335667 
L 356.369532 143.335667 
" clip-path="url(#p258db37e1c)" style="fill: none; stroke: #7f7f7f; stroke-width: 1.5; stroke-linecap: square"/>
   </g>
   <g id="line2d_27">
    <path d="M 83.027727 28.038182 
L 85.216651 28.687428 
L 85.763881 28.752936 
L 86.584728 29.126118 
L 87.131959 29.188575 
L 87.679189 29.450038 
L 87.952805 29.882053 
L 88.22642 29.929748 
L 89.320882 30.716623 
L 89.868113 30.881818 
L 90.141728 30.900739 
L 90.415344 31.438513 
L 90.688959 31.67084 
L 90.962574 32.136546 
L 91.23619 32.168046 
L 92.057036 32.980546 
L 92.604267 33.906711 
L 93.151498 34.392516 
L 94.24596 36.270821 
L 95.066806 37.00845 
L 95.340421 37.482242 
L 95.614037 37.54542 
L 95.887652 37.728012 
L 96.708498 39.099736 
L 97.529345 40.456533 
L 97.80296 40.572721 
L 98.623806 41.65069 
L 98.897422 41.707906 
L 99.171037 42.253912 
L 99.444652 42.42743 
L 99.718268 42.914954 
L 100.539114 43.469898 
L 101.086345 43.532985 
L 101.907191 44.976218 
L 102.728038 46.280936 
L 103.822499 48.073233 
L 104.096115 48.09649 
L 104.643345 48.997505 
L 104.916961 49.009687 
L 105.464192 50.011412 
L 105.737807 50.185978 
L 106.011423 50.642201 
L 106.285038 50.649336 
L 106.558653 51.121323 
L 107.3795 51.639217 
L 109.568423 54.837298 
L 109.842038 54.973067 
L 112.304577 58.672604 
L 112.851808 58.785676 
L 113.125424 58.811557 
L 113.94627 60.136719 
L 114.219885 60.143763 
L 115.861578 62.765394 
L 116.408809 62.900463 
L 116.682424 62.900463 
L 117.50327 64.224211 
L 117.776886 64.316621 
L 118.597732 65.551119 
L 118.871347 65.551119 
L 119.418578 66.413126 
L 119.965809 67.265321 
L 120.239424 67.286865 
L 120.51304 67.72782 
L 121.060271 68.129017 
L 121.333886 68.565146 
L 121.607502 68.633059 
L 122.428348 69.931016 
L 122.701963 69.938326 
L 123.249194 70.783997 
L 123.522809 70.990329 
L 124.343656 72.213108 
L 124.617271 72.627261 
L 124.890887 72.781848 
L 125.711733 74.165215 
L 125.985348 74.188522 
L 126.806195 75.489568 
L 127.627041 76.723874 
L 128.174272 76.743524 
L 128.447887 77.243606 
L 128.721502 77.312512 
L 129.268733 78.226435 
L 129.542349 78.398525 
L 129.815964 78.784528 
L 130.08958 78.901111 
L 130.63681 79.776505 
L 131.184041 79.808915 
L 131.457657 79.975046 
L 134.193811 84.160942 
L 134.467426 84.167591 
L 135.288273 85.228637 
L 135.835503 85.659782 
L 136.382734 85.666761 
L 138.298042 88.064808 
L 138.571658 88.089946 
L 139.666119 89.840262 
L 139.939735 89.858573 
L 140.21335 90.31102 
L 140.486966 90.317254 
L 141.581427 91.914594 
L 141.855043 91.921058 
L 142.128658 92.407816 
L 142.402274 92.407816 
L 142.949504 93.194658 
L 143.22312 93.194658 
L 143.496735 93.359314 
L 144.317581 94.555784 
L 144.864812 94.653564 
L 145.412043 95.512802 
L 147.053736 97.470627 
L 147.327351 97.671325 
L 147.600966 98.033278 
L 147.874582 98.186975 
L 148.695428 99.469778 
L 148.969044 99.644267 
L 150.610736 101.944016 
L 150.884352 102.008904 
L 151.705198 103.24062 
L 151.978813 103.262131 
L 153.073275 104.965444 
L 154.167737 106.445473 
L 154.714967 107.196997 
L 154.988583 107.221783 
L 155.535814 108.053289 
L 155.809429 108.053289 
L 156.35666 108.781345 
L 156.630275 108.805472 
L 157.724737 110.362208 
L 158.271968 111.05402 
L 158.545583 111.183564 
L 159.36643 112.296818 
L 161.008122 114.319283 
L 162.102584 115.880866 
L 162.649815 116.767173 
L 162.92343 116.767173 
L 163.470661 117.424408 
L 163.744276 117.529772 
L 164.291507 118.187393 
L 164.565123 118.344707 
L 164.838738 118.720052 
L 165.112353 118.720052 
L 166.48043 120.614951 
L 166.754046 120.632286 
L 167.848508 121.677628 
L 168.669354 121.68602 
L 170.311046 123.747746 
L 170.584662 124.058992 
L 171.131893 124.058992 
L 171.405508 124.461952 
L 171.679123 124.50892 
L 172.226354 125.066539 
L 172.49997 125.08008 
L 174.688893 127.99047 
L 175.236124 128.181258 
L 177.151432 130.704461 
L 180.161202 134.752059 
L 180.434817 135.084651 
L 181.802894 135.4051 
L 183.991817 138.332082 
L 184.265433 138.35604 
L 185.907125 140.23431 
L 186.454356 140.262801 
L 186.727972 140.639679 
L 187.001587 140.639679 
L 187.275202 141.023288 
L 187.548818 141.023288 
L 189.737741 143.635996 
L 190.011357 143.785357 
L 193.568357 147.919685 
L 194.115588 148.70203 
L 194.936434 149.115347 
L 195.21005 149.169969 
L 197.398973 151.82766 
L 197.672588 151.848172 
L 198.493435 152.812539 
L 198.76705 153.198005 
L 199.040666 153.198005 
L 199.587896 153.855146 
L 199.861512 153.867845 
L 201.229589 155.616459 
L 201.503204 155.616459 
L 202.597666 156.811892 
L 202.871281 156.831532 
L 203.144897 157.169869 
L 203.692128 157.183226 
L 203.965743 157.491584 
L 204.239359 157.491584 
L 205.881051 159.419745 
L 206.154666 159.567659 
L 206.701897 160.210475 
L 207.796359 161.476398 
L 208.069974 161.829717 
L 208.34359 161.829717 
L 208.890821 162.547186 
L 209.164436 162.949295 
L 209.438052 163.090171 
L 209.985282 163.764096 
L 210.258898 163.764096 
L 210.806129 164.339301 
L 211.353359 164.339301 
L 211.90059 164.953738 
L 212.721437 165.889562 
L 212.995052 165.889562 
L 214.91036 167.991422 
L 215.183975 168.277105 
L 215.457591 168.317267 
L 215.731206 168.706983 
L 216.004822 168.706983 
L 219.288207 172.335294 
L 219.561822 172.335294 
L 220.109053 172.974512 
L 220.382668 172.974512 
L 220.656284 173.269187 
L 220.929899 173.269187 
L 221.203515 173.61025 
L 221.47713 173.635971 
L 221.750745 173.802915 
L 222.845207 175.003069 
L 224.760515 177.136489 
L 225.307746 177.680471 
L 225.854977 177.78259 
L 226.128592 178.084697 
L 226.402208 178.084697 
L 226.949438 178.59131 
L 227.223054 178.614162 
L 227.770285 179.316003 
L 228.0439 179.415517 
L 228.591131 179.830007 
L 228.864746 180.087911 
L 229.138362 180.087911 
L 229.959208 181.020261 
L 230.232823 181.029674 
L 230.780054 181.552744 
L 234.063439 185.24156 
L 234.337055 185.309295 
L 236.799594 187.656696 
L 237.073209 187.772047 
L 237.346824 188.067646 
L 237.62044 188.117588 
L 237.894055 188.455523 
L 238.167671 188.503112 
L 238.441286 188.828847 
L 238.714901 188.828847 
L 240.630209 190.707503 
L 241.724671 191.80541 
L 241.998287 191.816167 
L 242.819133 192.706354 
L 243.639979 193.090756 
L 245.281672 194.782087 
L 246.102518 194.81094 
L 246.923364 195.695868 
L 247.19698 195.714876 
L 249.385903 198.110514 
L 249.933134 198.183192 
L 250.480365 198.826182 
L 251.027595 199.109853 
L 251.574826 199.708072 
L 251.848442 199.729396 
L 252.669288 200.586907 
L 253.216519 200.667386 
L 254.31098 201.738918 
L 255.131827 202.616797 
L 255.679058 202.616797 
L 256.226288 203.231312 
L 256.499904 203.237105 
L 261.151366 207.284813 
L 261.424981 207.290391 
L 263.066674 209.022851 
L 263.340289 209.027614 
L 264.981982 210.476741 
L 265.255597 210.828489 
L 265.529213 210.828489 
L 266.350059 211.592978 
L 266.623674 211.592978 
L 266.89729 211.918555 
L 267.170905 211.918555 
L 267.718136 212.269738 
L 268.538982 212.920472 
L 268.812598 213.008518 
L 269.359829 213.570029 
L 269.907059 213.659038 
L 270.180675 213.740024 
L 270.727906 214.27907 
L 272.369598 215.920101 
L 272.643214 215.920101 
L 274.011291 217.214186 
L 275.105752 218.196695 
L 276.47383 218.697178 
L 277.02106 219.241876 
L 277.294676 219.247772 
L 278.115522 219.944793 
L 278.662753 220.480903 
L 279.209984 220.803278 
L 279.483599 221.038969 
L 280.03083 221.064164 
L 280.851676 221.881221 
L 281.672522 222.826436 
L 283.314215 224.054804 
L 283.861446 224.305642 
L 284.408677 224.681602 
L 284.955908 224.690469 
L 285.503138 225.156963 
L 286.050369 225.634077 
L 286.323985 225.655619 
L 286.871215 226.148914 
L 287.144831 226.148914 
L 287.965677 226.899902 
L 288.786523 227.56258 
L 289.333754 228.184259 
L 289.60737 228.223081 
L 290.701831 229.251367 
L 290.975447 229.251367 
L 291.522678 229.601208 
L 291.796293 229.893155 
L 292.069908 229.893155 
L 292.343524 230.087535 
L 292.617139 230.087535 
L 293.985216 231.388725 
L 294.806063 231.756963 
L 296.447755 233.219464 
L 296.721371 233.400811 
L 296.994986 233.434955 
L 297.542217 233.920037 
L 298.089448 234.278501 
L 298.636679 234.688718 
L 298.910294 234.694415 
L 300.551987 236.191425 
L 300.825602 236.191425 
L 302.193679 237.293072 
L 302.467294 237.555261 
L 302.74091 237.555261 
L 304.382602 238.793956 
L 305.477064 239.703171 
L 306.024295 240.23509 
L 306.29791 240.27718 
L 310.128526 242.959295 
L 310.402142 242.964583 
L 310.675757 243.194459 
L 310.949372 243.194459 
L 311.496603 243.604154 
L 311.770219 243.609034 
L 312.31745 244.119155 
L 312.591065 244.15585 
L 313.138296 244.650419 
L 313.959142 245.354907 
L 314.232758 245.354907 
L 314.506373 245.638632 
L 315.053604 245.920284 
L 315.327219 246.177952 
L 315.87445 246.394861 
L 316.148065 246.636749 
L 316.421681 246.636749 
L 318.063373 247.875579 
L 318.610604 247.878844 
L 319.431451 248.47361 
L 319.978681 248.859695 
L 321.893989 250.44231 
L 322.167605 250.44231 
L 322.44122 250.629247 
L 322.714836 250.629247 
L 323.535682 251.321182 
L 323.809297 251.496813 
L 324.356528 251.538528 
L 325.45099 252.356593 
L 325.998221 252.372444 
L 326.271836 252.569728 
L 326.545451 252.569728 
L 327.092682 253.067995 
L 328.187144 253.917967 
L 328.734375 254.219116 
L 330.376067 255.537548 
L 330.923298 255.565547 
L 332.01776 256.544966 
L 332.291375 256.544966 
L 333.933068 257.7575 
L 334.206683 257.771271 
L 334.480299 257.911746 
L 335.301145 257.911746 
L 336.395607 258.683689 
L 336.669222 258.683689 
L 337.216453 259.151678 
L 337.490068 259.403193 
L 338.037299 259.403193 
L 338.58453 259.675065 
L 338.858145 259.67899 
L 339.952607 260.515175 
L 340.226222 260.522502 
L 341.047069 261.194865 
L 341.320684 261.250471 
L 342.688761 262.200337 
L 343.783223 263.040537 
L 344.330454 263.178345 
L 345.1513 263.728101 
L 345.424915 263.892988 
L 345.698531 263.898662 
L 346.245762 264.316671 
L 347.613839 265.046725 
L 347.887454 265.082397 
L 350.623608 266.87466 
L 350.897224 266.87466 
L 351.991686 267.416146 
L 354.72784 269.059501 
L 355.001455 269.136747 
L 355.822301 269.749739 
L 356.369532 270.215193 
L 356.643148 270.449382 
L 357.190379 270.542364 
L 357.463994 270.737532 
L 357.737609 270.737532 
L 359.379302 271.577298 
L 360.200148 272.135848 
L 361.020994 272.66686 
L 361.29461 272.868451 
L 361.568225 272.868451 
L 364.304379 274.445497 
L 365.398841 275.345127 
L 365.946072 275.770719 
L 366.493303 276.250885 
L 367.86138 277.101012 
L 368.134995 277.292972 
L 368.408611 277.344131 
L 368.955842 277.834692 
L 369.229457 277.834692 
L 370.323919 278.683612 
L 372.512842 279.768755 
L 372.786457 279.768755 
L 373.333688 280.153764 
L 374.154535 280.534363 
L 375.522612 281.333421 
L 375.796227 281.333421 
L 376.069843 281.569916 
L 376.343458 281.581247 
L 376.890689 281.836397 
L 377.711535 282.230018 
L 378.258766 282.528373 
L 379.626843 283.445823 
L 379.900458 283.656986 
L 380.174074 283.658944 
L 380.721305 283.981311 
L 381.268536 283.981311 
L 382.362997 284.629948 
L 383.457459 285.381978 
L 384.00469 285.884642 
L 385.372767 286.716864 
L 386.467229 286.740646 
L 386.740844 286.896184 
L 387.014459 286.896184 
L 387.288075 287.167624 
L 387.56169 287.186693 
L 388.382536 287.757461 
L 389.476998 288.142529 
L 391.118691 289.039383 
L 391.939537 289.37431 
L 392.213152 289.621553 
L 392.486768 289.625722 
L 395.496537 291.410007 
L 396.043768 291.718662 
L 396.317384 291.718662 
L 396.864614 291.967981 
L 397.685461 292.124431 
L 398.506307 292.501398 
L 400.968846 293.708283 
L 401.789692 294.28597 
L 402.063307 294.28597 
L 402.610538 294.54576 
L 403.431385 294.810313 
L 403.978615 294.913222 
L 405.346693 295.669875 
L 405.620308 295.669875 
L 406.441154 296.081687 
L 406.71477 296.081687 
L 407.262 296.434195 
L 407.535616 296.434195 
L 409.177308 297.377739 
L 409.724539 297.440149 
L 410.27177 297.742602 
L 410.545386 297.743756 
L 412.187078 298.675006 
L 412.460693 298.675006 
L 413.007924 299.008329 
L 413.555155 299.245506 
L 416.017694 300.49332 
L 416.564925 300.559395 
L 416.83854 300.618174 
L 417.933002 301.194234 
L 419.027464 301.711528 
L 419.301079 301.930286 
L 419.84831 302.117597 
L 420.121925 302.270163 
L 420.395541 302.277925 
L 420.669156 302.474717 
L 420.942771 302.488997 
L 422.584464 303.319773 
L 425.320618 304.697792 
L 426.41508 305.282647 
L 426.688695 305.289978 
L 428.056772 306.051737 
L 428.604003 306.162056 
L 429.698465 306.82172 
L 429.97208 306.82172 
L 430.792927 307.292015 
L 431.066542 307.301529 
L 431.887388 307.731361 
L 432.161004 307.731361 
L 432.434619 307.867451 
L 432.708235 307.867451 
L 433.802696 308.382111 
L 434.076312 308.382111 
L 434.349927 308.529933 
L 434.623543 308.529933 
L 434.897158 308.730219 
L 435.444389 308.737423 
L 435.99162 309.092318 
L 436.265235 309.092318 
L 436.812466 309.326768 
L 437.359697 309.528442 
L 438.180543 309.909641 
L 438.727774 310.009113 
L 439.54862 310.440232 
L 439.822235 310.440232 
L 440.369466 310.726623 
L 441.737543 310.968742 
L 443.379236 311.687878 
L 444.473698 312.307362 
L 444.747313 312.434736 
L 445.020928 312.434736 
L 445.841775 312.816704 
L 446.389006 312.816704 
L 447.209852 313.209974 
L 448.030698 313.579608 
L 448.851544 314.08958 
L 450.766852 314.701498 
L 451.040468 314.701498 
L 451.861314 315.103364 
L 452.134929 315.103364 
L 452.955776 315.51853 
L 453.229391 315.559944 
L 454.050237 315.932771 
L 454.597468 316.064 
L 455.69193 316.494955 
L 455.965545 316.688778 
L 456.239161 316.688778 
L 456.786392 317.025592 
L 457.880853 317.390431 
L 465.542085 320.178192 
L 466.362931 320.267892 
L 468.004624 320.921981 
L 468.551855 321.024564 
L 469.646316 321.493792 
L 471.288009 322.055655 
L 472.108855 322.055655 
L 472.929701 322.364404 
L 473.476932 322.458308 
L 474.297778 322.868384 
L 474.571394 322.881128 
L 475.39224 323.297086 
L 477.033933 323.926118 
L 477.307548 324.056948 
L 477.581164 324.056948 
L 477.854779 324.247472 
L 478.40201 324.346182 
L 478.949241 324.597645 
L 479.770087 324.639718 
L 480.317318 324.895842 
L 484.421549 326.29896 
L 484.96878 326.388841 
L 493.177242 329.446509 
L 493.450858 329.446509 
L 494.271704 329.727816 
L 494.818935 329.816642 
L 495.639781 330.016561 
L 495.913397 330.016561 
L 497.281474 330.746145 
L 497.828705 330.834748 
L 498.649551 331.16962 
L 499.196782 331.255907 
L 500.017628 331.470704 
L 505.216321 333.271657 
L 505.489936 333.271657 
L 506.310783 333.719917 
L 507.131629 333.828411 
L 508.499706 334.214054 
L 509.046937 334.366454 
L 509.594168 334.620368 
L 511.509476 335.139797 
L 512.056706 335.405718 
L 515.340092 336.443123 
L 516.434553 336.522291 
L 516.981784 336.744191 
L 518.076246 337.014076 
L 518.897092 337.27322 
L 519.170707 337.412667 
L 519.991554 337.477915 
L 520.538785 337.681394 
L 521.086015 337.963715 
L 521.906862 338.032919 
L 523.001323 338.289412 
L 523.274939 338.289412 
L 523.82217 338.542933 
L 524.3694 338.650273 
L 525.463862 338.952796 
L 526.011093 339.155657 
L 527.105555 339.416939 
L 527.926401 339.789744 
L 529.294478 340.120884 
L 530.38894 340.368548 
L 536.408479 341.669804 
L 537.502941 342.014504 
L 538.050171 342.064889 
L 541.607172 342.957158 
L 541.880787 343.09233 
L 542.428018 343.142771 
L 545.985019 344.028322 
L 546.532249 344.102377 
L 547.353096 344.250832 
L 547.900327 344.323097 
L 548.447557 344.506519 
L 548.994788 344.662074 
L 549.815635 344.900441 
L 551.183712 345.199826 
L 552.004558 345.408962 
L 552.825404 345.631138 
L 553.64625 345.740631 
L 556.929635 346.384883 
L 557.750482 346.487543 
L 558.844943 346.82135 
L 559.66579 346.895499 
L 560.21302 347.014137 
L 561.581098 347.441075 
L 562.675559 347.719549 
L 563.22279 347.89362 
L 564.043636 347.99599 
L 565.958944 348.43585 
L 566.506175 348.572467 
L 568.968714 348.904139 
L 569.78956 349.083946 
L 572.79933 349.693616 
L 573.893791 349.742681 
L 574.441022 349.914404 
L 575.809099 350.153548 
L 577.724407 350.659824 
L 578.545254 350.72492 
L 580.734177 351.142827 
L 582.37587 351.325804 
L 585.93287 351.988125 
L 586.753716 352.202287 
L 589.763486 352.564965 
L 591.952409 352.958539 
L 597.971948 353.912157 
L 600.160872 354.229614 
L 601.255334 354.494847 
L 602.623411 354.573305 
L 603.170641 354.669123 
L 604.265103 354.712658 
L 605.359565 355.004566 
L 610.011027 355.436621 
L 610.831873 355.569636 
L 615.483335 356.072257 
L 617.125028 356.312686 
L 619.587567 356.632884 
L 621.502875 356.951338 
L 623.144567 357.059324 
L 624.239029 357.217113 
L 629.437722 357.744939 
L 630.258568 357.951904 
L 631.626645 358.030595 
L 635.457261 358.402331 
L 636.551723 358.493586 
L 646.401878 359.469428 
L 649.411648 359.743607 
L 654.883956 360.201699 
L 656.799264 360.29877 
L 680.056575 361.828685 
L 683.33996 361.938474 
L 685.255268 362.084717 
L 690.453961 362.16853 
L 691.548422 362.24066 
L 701.945808 362.555466 
L 702.766655 362.677555 
L 706.59727 362.795248 
L 707.965348 362.832618 
L 709.333425 362.814521 
L 710.427886 362.887807 
L 714.258502 362.93199 
L 715.352964 362.983451 
L 716.994656 363.014867 
L 723.561426 363.088786 
L 724.382273 363.097734 
L 724.382273 363.097734 
" clip-path="url(#p258db37e1c)" style="fill: none; stroke: #bcbd22; stroke-width: 1.5; stroke-linecap: square"/>
   </g>
   <g id="patch_3">
    <path d="M 50.96 390.04 
L 50.96 10.8 
" style="fill: none; stroke: #000000; stroke-width: 0.8; stroke-linejoin: miter; stroke-linecap: square"/>
   </g>
   <g id="patch_4">
    <path d="M 756.45 390.04 
L 756.45 10.8 
" style="fill: none; stroke: #000000; stroke-width: 0.8; stroke-linejoin: miter; stroke-linecap: square"/>
   </g>
   <g id="patch_5">
    <path d="M 50.96 390.04 
L 756.45 390.04 
" style="fill: none; stroke: #000000; stroke-width: 0.8; stroke-linejoin: miter; stroke-linecap: square"/>
   </g>
   <g id="patch_6">
    <path d="M 50.96 10.8 
L 756.45 10.8 
" style="fill: none; stroke: #000000; stroke-width: 0.8; stroke-linejoin: miter; stroke-linecap: square"/>
   </g>
   <g id="legend_1">
    <g id="patch_7">
     <path d="M 793.3245 118.8825 
L 853.167 118.8825 
Q 854.767 118.8825 854.767 117.2825 
L 854.767 12.4 
Q 854.767 10.8 853.167 10.8 
L 793.3245 10.8 
Q 791.7245 10.8 791.7245 12.4 
L 791.7245 117.2825 
Q 791.7245 118.8825 793.3245 118.8825 
z
" style="fill: #ffffff; opacity: 0.8; stroke: #cccccc; stroke-linejoin: miter"/>
    </g>
    <g id="line2d_28">
     <g>
      <use xlink:href="#m0a46ff1c68" x="802.9245" y="17.27875" style="fill: #1f77b4; stroke: #1f77b4"/>
     </g>
    </g>
    <g id="text_12">
     <!-- (a) ls -->
     <g transform="translate(817.3245 20.07875) scale(0.08 -0.08)">
      <defs>
       <path id="DejaVuSans-28" d="M 1984 4856 
Q 1566 4138 1362 3434 
Q 1159 2731 1159 2009 
Q 1159 1288 1364 580 
Q 1569 -128 1984 -844 
L 1484 -844 
Q 1016 -109 783 600 
Q 550 1309 550 2009 
Q 550 2706 781 3412 
Q 1013 4119 1484 4856 
L 1984 4856 
z
" transform="scale(0.015625)"/>
       <path id="DejaVuSans-29" d="M 513 4856 
L 1013 4856 
Q 1481 4119 1714 3412 
Q 1947 2706 1947 2009 
Q 1947 1309 1714 600 
Q 1481 -109 1013 -844 
L 513 -844 
Q 928 -128 1133 580 
Q 1338 1288 1338 2009 
Q 1338 2731 1133 3434 
Q 928 4138 513 4856 
z
" transform="scale(0.015625)"/>
       <path id="DejaVuSans-20" transform="scale(0.015625)"/>
      </defs>
      <use xlink:href="#DejaVuSans-28"/>
      <use xlink:href="#DejaVuSans-61" transform="translate(39.013672 0)"/>
      <use xlink:href="#DejaVuSans-29" transform="translate(100.292969 0)"/>
      <use xlink:href="#DejaVuSans-20" transform="translate(139.306641 0)"/>
      <use xlink:href="#DejaVuSans-6c" transform="translate(171.09375 0)"/>
      <use xlink:href="#DejaVuSans-73" transform="translate(198.876953 0)"/>
     </g>
    </g>
    <g id="line2d_29">
     <g>
      <use xlink:href="#maa47bbeb2c" x="802.9245" y="29.02125" style="fill: #ff7f0e; stroke: #ff7f0e"/>
     </g>
    </g>
    <g id="text_13">
     <!-- (b) ls -->
     <g transform="translate(817.3245 31.82125) scale(0.08 -0.08)">
      <defs>
       <path id="DejaVuSans-62" d="M 3116 1747 
Q 3116 2381 2855 2742 
Q 2594 3103 2138 3103 
Q 1681 3103 1420 2742 
Q 1159 2381 1159 1747 
Q 1159 1113 1420 752 
Q 1681 391 2138 391 
Q 2594 391 2855 752 
Q 3116 1113 3116 1747 
z
M 1159 2969 
Q 1341 3281 1617 3432 
Q 1894 3584 2278 3584 
Q 2916 3584 3314 3078 
Q 3713 2572 3713 1747 
Q 3713 922 3314 415 
Q 2916 -91 2278 -91 
Q 1894 -91 1617 61 
Q 1341 213 1159 525 
L 1159 0 
L 581 0 
L 581 4863 
L 1159 4863 
L 1159 2969 
z
" transform="scale(0.015625)"/>
      </defs>
      <use xlink:href="#DejaVuSans-28"/>
      <use xlink:href="#DejaVuSans-62" transform="translate(39.013672 0)"/>
      <use xlink:href="#DejaVuSans-29" transform="translate(102.490234 0)"/>
      <use xlink:href="#DejaVuSans-20" transform="translate(141.503906 0)"/>
      <use xlink:href="#DejaVuSans-6c" transform="translate(173.291016 0)"/>
      <use xlink:href="#DejaVuSans-73" transform="translate(201.074219 0)"/>
     </g>
    </g>
    <g id="line2d_30">
     <g>
      <use xlink:href="#m520f727a23" x="802.9245" y="40.76375" style="fill: #2ca02c; stroke: #2ca02c"/>
     </g>
    </g>
    <g id="text_14">
     <!-- (c) lls -->
     <g transform="translate(817.3245 43.56375) scale(0.08 -0.08)">
      <defs>
       <path id="DejaVuSans-63" d="M 3122 3366 
L 3122 2828 
Q 2878 2963 2633 3030 
Q 2388 3097 2138 3097 
Q 1578 3097 1268 2742 
Q 959 2388 959 1747 
Q 959 1106 1268 751 
Q 1578 397 2138 397 
Q 2388 397 2633 464 
Q 2878 531 3122 666 
L 3122 134 
Q 2881 22 2623 -34 
Q 2366 -91 2075 -91 
Q 1284 -91 818 406 
Q 353 903 353 1747 
Q 353 2603 823 3093 
Q 1294 3584 2113 3584 
Q 2378 3584 2631 3529 
Q 2884 3475 3122 3366 
z
" transform="scale(0.015625)"/>
      </defs>
      <use xlink:href="#DejaVuSans-28"/>
      <use xlink:href="#DejaVuSans-63" transform="translate(39.013672 0)"/>
      <use xlink:href="#DejaVuSans-29" transform="translate(93.994141 0)"/>
      <use xlink:href="#DejaVuSans-20" transform="translate(133.007812 0)"/>
      <use xlink:href="#DejaVuSans-6c" transform="translate(164.794922 0)"/>
      <use xlink:href="#DejaVuSans-6c" transform="translate(192.578125 0)"/>
      <use xlink:href="#DejaVuSans-73" transform="translate(220.361328 0)"/>
     </g>
    </g>
    <g id="line2d_31">
     <g>
      <use xlink:href="#m707050d103" x="802.9245" y="52.50625" style="fill: #d62728; stroke: #d62728"/>
     </g>
    </g>
    <g id="text_15">
     <!-- (d) lls -->
     <g transform="translate(817.3245 55.30625) scale(0.08 -0.08)">
      <use xlink:href="#DejaVuSans-28"/>
      <use xlink:href="#DejaVuSans-64" transform="translate(39.013672 0)"/>
      <use xlink:href="#DejaVuSans-29" transform="translate(102.490234 0)"/>
      <use xlink:href="#DejaVuSans-20" transform="translate(141.503906 0)"/>
      <use xlink:href="#DejaVuSans-6c" transform="translate(173.291016 0)"/>
      <use xlink:href="#DejaVuSans-6c" transform="translate(201.074219 0)"/>
      <use xlink:href="#DejaVuSans-73" transform="translate(228.857422 0)"/>
     </g>
    </g>
    <g id="line2d_32">
     <g>
      <use xlink:href="#m7fcf823800" x="802.9245" y="64.24875" style="fill: #9467bd; stroke: #9467bd"/>
     </g>
    </g>
    <g id="text_16">
     <!-- (e) lsr -->
     <g transform="translate(817.3245 67.04875) scale(0.08 -0.08)">
      <use xlink:href="#DejaVuSans-28"/>
      <use xlink:href="#DejaVuSans-65" transform="translate(39.013672 0)"/>
      <use xlink:href="#DejaVuSans-29" transform="translate(100.537109 0)"/>
      <use xlink:href="#DejaVuSans-20" transform="translate(139.550781 0)"/>
      <use xlink:href="#DejaVuSans-6c" transform="translate(171.337891 0)"/>
      <use xlink:href="#DejaVuSans-73" transform="translate(199.121094 0)"/>
      <use xlink:href="#DejaVuSans-72" transform="translate(251.220703 0)"/>
     </g>
    </g>
    <g id="line2d_33">
     <path d="M 794.9245 75.99125 
L 802.9245 75.99125 
L 810.9245 75.99125 
" style="fill: none; stroke: #8c564b; stroke-width: 1.5; stroke-linecap: square"/>
    </g>
    <g id="text_17">
     <!-- (f) bpls -->
     <g transform="translate(817.3245 78.79125) scale(0.08 -0.08)">
      <defs>
       <path id="DejaVuSans-66" d="M 2375 4863 
L 2375 4384 
L 1825 4384 
Q 1516 4384 1395 4259 
Q 1275 4134 1275 3809 
L 1275 3500 
L 2222 3500 
L 2222 3053 
L 1275 3053 
L 1275 0 
L 697 0 
L 697 3053 
L 147 3053 
L 147 3500 
L 697 3500 
L 697 3744 
Q 697 4328 969 4595 
Q 1241 4863 1831 4863 
L 2375 4863 
z
" transform="scale(0.015625)"/>
       <path id="DejaVuSans-70" d="M 1159 525 
L 1159 -1331 
L 581 -1331 
L 581 3500 
L 1159 3500 
L 1159 2969 
Q 1341 3281 1617 3432 
Q 1894 3584 2278 3584 
Q 2916 3584 3314 3078 
Q 3713 2572 3713 1747 
Q 3713 922 3314 415 
Q 2916 -91 2278 -91 
Q 1894 -91 1617 61 
Q 1341 213 1159 525 
z
M 3116 1747 
Q 3116 2381 2855 2742 
Q 2594 3103 2138 3103 
Q 1681 3103 1420 2742 
Q 1159 2381 1159 1747 
Q 1159 1113 1420 752 
Q 1681 391 2138 391 
Q 2594 391 2855 752 
Q 3116 1113 3116 1747 
z
" transform="scale(0.015625)"/>
      </defs>
      <use xlink:href="#DejaVuSans-28"/>
      <use xlink:href="#DejaVuSans-66" transform="translate(39.013672 0)"/>
      <use xlink:href="#DejaVuSans-29" transform="translate(74.21875 0)"/>
      <use xlink:href="#DejaVuSans-20" transform="translate(113.232422 0)"/>
      <use xlink:href="#DejaVuSans-62" transform="translate(145.019531 0)"/>
      <use xlink:href="#DejaVuSans-70" transform="translate(208.496094 0)"/>
      <use xlink:href="#DejaVuSans-6c" transform="translate(271.972656 0)"/>
      <use xlink:href="#DejaVuSans-73" transform="translate(299.755859 0)"/>
     </g>
    </g>
    <g id="line2d_34">
     <path d="M 794.9245 87.73375 
L 802.9245 87.73375 
L 810.9245 87.73375 
" style="fill: none; stroke: #e377c2; stroke-width: 1.5; stroke-linecap: square"/>
    </g>
    <g id="text_18">
     <!-- (g) mp -->
     <g transform="translate(817.3245 90.53375) scale(0.08 -0.08)">
      <defs>
       <path id="DejaVuSans-67" d="M 2906 1791 
Q 2906 2416 2648 2759 
Q 2391 3103 1925 3103 
Q 1463 3103 1205 2759 
Q 947 2416 947 1791 
Q 947 1169 1205 825 
Q 1463 481 1925 481 
Q 2391 481 2648 825 
Q 2906 1169 2906 1791 
z
M 3481 434 
Q 3481 -459 3084 -895 
Q 2688 -1331 1869 -1331 
Q 1566 -1331 1297 -1286 
Q 1028 -1241 775 -1147 
L 775 -588 
Q 1028 -725 1275 -790 
Q 1522 -856 1778 -856 
Q 2344 -856 2625 -561 
Q 2906 -266 2906 331 
L 2906 616 
Q 2728 306 2450 153 
Q 2172 0 1784 0 
Q 1141 0 747 490 
Q 353 981 353 1791 
Q 353 2603 747 3093 
Q 1141 3584 1784 3584 
Q 2172 3584 2450 3431 
Q 2728 3278 2906 2969 
L 2906 3500 
L 3481 3500 
L 3481 434 
z
" transform="scale(0.015625)"/>
       <path id="DejaVuSans-6d" d="M 3328 2828 
Q 3544 3216 3844 3400 
Q 4144 3584 4550 3584 
Q 5097 3584 5394 3201 
Q 5691 2819 5691 2113 
L 5691 0 
L 5113 0 
L 5113 2094 
Q 5113 2597 4934 2840 
Q 4756 3084 4391 3084 
Q 3944 3084 3684 2787 
Q 3425 2491 3425 1978 
L 3425 0 
L 2847 0 
L 2847 2094 
Q 2847 2600 2669 2842 
Q 2491 3084 2119 3084 
Q 1678 3084 1418 2786 
Q 1159 2488 1159 1978 
L 1159 0 
L 581 0 
L 581 3500 
L 1159 3500 
L 1159 2956 
Q 1356 3278 1631 3431 
Q 1906 3584 2284 3584 
Q 2666 3584 2933 3390 
Q 3200 3197 3328 2828 
z
" transform="scale(0.015625)"/>
      </defs>
      <use xlink:href="#DejaVuSans-28"/>
      <use xlink:href="#DejaVuSans-67" transform="translate(39.013672 0)"/>
      <use xlink:href="#DejaVuSans-29" transform="translate(102.490234 0)"/>
      <use xlink:href="#DejaVuSans-20" transform="translate(141.503906 0)"/>
      <use xlink:href="#DejaVuSans-6d" transform="translate(173.291016 0)"/>
      <use xlink:href="#DejaVuSans-70" transform="translate(270.703125 0)"/>
     </g>
    </g>
    <g id="line2d_35">
     <path d="M 794.9245 99.47625 
L 802.9245 99.47625 
L 810.9245 99.47625 
" style="fill: none; stroke: #7f7f7f; stroke-width: 1.5; stroke-linecap: square"/>
    </g>
    <g id="text_19">
     <!-- (h) mp -->
     <g transform="translate(817.3245 102.27625) scale(0.08 -0.08)">
      <defs>
       <path id="DejaVuSans-68" d="M 3513 2113 
L 3513 0 
L 2938 0 
L 2938 2094 
Q 2938 2591 2744 2837 
Q 2550 3084 2163 3084 
Q 1697 3084 1428 2787 
Q 1159 2491 1159 1978 
L 1159 0 
L 581 0 
L 581 4863 
L 1159 4863 
L 1159 2956 
Q 1366 3272 1645 3428 
Q 1925 3584 2291 3584 
Q 2894 3584 3203 3211 
Q 3513 2838 3513 2113 
z
" transform="scale(0.015625)"/>
      </defs>
      <use xlink:href="#DejaVuSans-28"/>
      <use xlink:href="#DejaVuSans-68" transform="translate(39.013672 0)"/>
      <use xlink:href="#DejaVuSans-29" transform="translate(102.392578 0)"/>
      <use xlink:href="#DejaVuSans-20" transform="translate(141.40625 0)"/>
      <use xlink:href="#DejaVuSans-6d" transform="translate(173.193359 0)"/>
      <use xlink:href="#DejaVuSans-70" transform="translate(270.605469 0)"/>
     </g>
    </g>
    <g id="line2d_36">
     <path d="M 794.9245 111.21875 
L 802.9245 111.21875 
L 810.9245 111.21875 
" style="fill: none; stroke: #bcbd22; stroke-width: 1.5; stroke-linecap: square"/>
    </g>
    <g id="text_20">
     <!-- (i) radon -->
     <g transform="translate(817.3245 114.01875) scale(0.08 -0.08)">
      <use xlink:href="#DejaVuSans-28"/>
      <use xlink:href="#DejaVuSans-69" transform="translate(39.013672 0)"/>
      <use xlink:href="#DejaVuSans-29" transform="translate(66.796875 0)"/>
      <use xlink:href="#DejaVuSans-20" transform="translate(105.810547 0)"/>
      <use xlink:href="#DejaVuSans-72" transform="translate(137.597656 0)"/>
      <use xlink:href="#DejaVuSans-61" transform="translate(178.710938 0)"/>
      <use xlink:href="#DejaVuSans-64" transform="translate(239.990234 0)"/>
      <use xlink:href="#DejaVuSans-6f" transform="translate(303.466797 0)"/>
      <use xlink:href="#DejaVuSans-6e" transform="translate(364.648438 0)"/>
     </g>
    </g>
   </g>
  </g>
 </g>
 <defs>
  <clipPath id="p258db37e1c">
   <rect x="50.96" y="10.8" width="705.49" height="379.24"/>
  </clipPath>
 </defs>
</svg>
