<?xml version="1.0" encoding="UTF-8" standalone="no"?>
<!DOCTYPE svg PUBLIC "-//W3C//DTD SVG 1.1//EN" "http://www.w3.org/Graphics/SVG/1.1/DTD/svg11.dtd">
<svg xmlns:xlink="http://www.w3.org/1999/xlink" width="460.8pt" height="345.6pt" viewBox="0 0 460.8 345.6" xmlns="http://www.w3.org/2000/svg" version="1.1">
 <metadata>
  <rdf:RDF xmlns:dc="http://purl.org/dc/elements/1.1/" xmlns:cc="http://creativecommons.org/ns#" xmlns:rdf="http://www.w3.org/1999/02/22-rdf-syntax-ns#">
   <cc:Work>
    <dc:type rdf:resource="http://purl.org/dc/dcmitype/StillImage"/>
    <dc:date>2025-06-10T17:25:23.280376</dc:date>
    <dc:format>image/svg+xml</dc:format>
    <dc:creator>
     <cc:Agent>
      <dc:title>Matplotlib v3.7.5, https://matplotlib.org/</dc:title>
     </cc:Agent>
    </dc:creator>
   </cc:Work>
  </rdf:RDF>
 </metadata>
 <defs>
  <style type="text/css">*{stroke-linejoin: round; stroke-linecap: butt}</style>
 </defs>
 <g id="figure_1">
  <g id="patch_1">
   <path d="M 0 345.6  L 460.8 345.6  L 460.8 0  L 0 0  z " style="fill: #ffffff"/>
  </g>
  <g id="axes_1">
   <g id="patch_2">
    <path d="M 57.6 307.584  L 414.72 307.584  L 414.72 41.472  L 57.6 41.472  z " style="fill: #ffffff"/>
   </g>
   <g id="matplotlib.axis_1">
    <g id="xtick_1">
     <g id="line2d_1">
      <path d="M 73.832727 307.584  L 73.832727 41.472  " clip-path="url(#p1f95ca8d83)" style="fill: none; stroke: #b0b0b0; stroke-width: 0.8; stroke-linecap: square"/>
     </g>
     <g id="line2d_2">
      <defs>
       <path id="mf0ee0234f3" d="M 0 0  L 0 3.5  " style="stroke: #000000; stroke-width: 0.8"/>
      </defs>
      <g>
       <use xlink:href="#mf0ee0234f3" x="73.832727" y="307.584" style="stroke: #000000; stroke-width: 0.8"/>
      </g>
     </g>
     <g id="text_1">
      <!-- 0 -->
      <g transform="translate(70.651477 322.182437) scale(0.1 -0.1)">
       <defs>
        <path id="DejaVuSans-30" d="M 2034 4250  Q 1547 4250 1301 3770  Q 1056 3291 1056 2328  Q 1056 1369 1301 889  Q 1547 409 2034 409  Q 2525 409 2770 889  Q 3016 1369 3016 2328  Q 3016 3291 2770 3770  Q 2525 4250 2034 4250  z M 2034 4750  Q 2819 4750 3233 4129  Q 3647 3509 3647 2328  Q 3647 1150 3233 529  Q 2819 -91 2034 -91  Q 1250 -91 836 529  Q 422 1150 422 2328  Q 422 3509 836 4129  Q 1250 4750 2034 4750  z " transform="scale(0.015625)"/>
       </defs>
       <use xlink:href="#DejaVuSans-30"/>
      </g>
     </g>
    </g>
    <g id="xtick_2">
     <g id="line2d_3">
      <path d="M 125.529311 307.584  L 125.529311 41.472  " clip-path="url(#p1f95ca8d83)" style="fill: none; stroke: #b0b0b0; stroke-width: 0.8; stroke-linecap: square"/>
     </g>
     <g id="line2d_4">
      <g>
       <use xlink:href="#mf0ee0234f3" x="125.529311" y="307.584" style="stroke: #000000; stroke-width: 0.8"/>
      </g>
     </g>
     <g id="text_2">
      <!-- 50 -->
      <g transform="translate(119.166811 322.182437) scale(0.1 -0.1)">
       <defs>
        <path id="DejaVuSans-35" d="M 691 4666  L 3169 4666  L 3169 4134  L 1269 4134  L 1269 2991  Q 1406 3038 1543 3061  Q 1681 3084 1819 3084  Q 2600 3084 3056 2656  Q 3513 2228 3513 1497  Q 3513 744 3044 326  Q 2575 -91 1722 -91  Q 1428 -91 1123 -41  Q 819 9 494 109  L 494 744  Q 775 591 1075 516  Q 1375 441 1709 441  Q 2250 441 2565 725  Q 2881 1009 2881 1497  Q 2881 1984 2565 2268  Q 2250 2553 1709 2553  Q 1456 2553 1204 2497  Q 953 2441 691 2322  L 691 4666  z " transform="scale(0.015625)"/>
       </defs>
       <use xlink:href="#DejaVuSans-35"/>
       <use xlink:href="#DejaVuSans-30" x="63.623047"/>
      </g>
     </g>
    </g>
    <g id="xtick_3">
     <g id="line2d_5">
      <path d="M 177.225895 307.584  L 177.225895 41.472  " clip-path="url(#p1f95ca8d83)" style="fill: none; stroke: #b0b0b0; stroke-width: 0.8; stroke-linecap: square"/>
     </g>
     <g id="line2d_6">
      <g>
       <use xlink:href="#mf0ee0234f3" x="177.225895" y="307.584" style="stroke: #000000; stroke-width: 0.8"/>
      </g>
     </g>
     <g id="text_3">
      <!-- 100 -->
      <g transform="translate(167.682145 322.182437) scale(0.1 -0.1)">
       <defs>
        <path id="DejaVuSans-31" d="M 794 531  L 1825 531  L 1825 4091  L 703 3866  L 703 4441  L 1819 4666  L 2450 4666  L 2450 531  L 3481 531  L 3481 0  L 794 0  L 794 531  z " transform="scale(0.015625)"/>
       </defs>
       <use xlink:href="#DejaVuSans-31"/>
       <use xlink:href="#DejaVuSans-30" x="63.623047"/>
       <use xlink:href="#DejaVuSans-30" x="127.246094"/>
      </g>
     </g>
    </g>
    <g id="xtick_4">
     <g id="line2d_7">
      <path d="M 228.922478 307.584  L 228.922478 41.472  " clip-path="url(#p1f95ca8d83)" style="fill: none; stroke: #b0b0b0; stroke-width: 0.8; stroke-linecap: square"/>
     </g>
     <g id="line2d_8">
      <g>
       <use xlink:href="#mf0ee0234f3" x="228.922478" y="307.584" style="stroke: #000000; stroke-width: 0.8"/>
      </g>
     </g>
     <g id="text_4">
      <!-- 150 -->
      <g transform="translate(219.378728 322.182437) scale(0.1 -0.1)">
       <use xlink:href="#DejaVuSans-31"/>
       <use xlink:href="#DejaVuSans-35" x="63.623047"/>
       <use xlink:href="#DejaVuSans-30" x="127.246094"/>
      </g>
     </g>
    </g>
    <g id="xtick_5">
     <g id="line2d_9">
      <path d="M 280.619062 307.584  L 280.619062 41.472  " clip-path="url(#p1f95ca8d83)" style="fill: none; stroke: #b0b0b0; stroke-width: 0.8; stroke-linecap: square"/>
     </g>
     <g id="line2d_10">
      <g>
       <use xlink:href="#mf0ee0234f3" x="280.619062" y="307.584" style="stroke: #000000; stroke-width: 0.8"/>
      </g>
     </g>
     <g id="text_5">
      <!-- 200 -->
      <g transform="translate(271.075312 322.182437) scale(0.1 -0.1)">
       <defs>
        <path id="DejaVuSans-32" d="M 1228 531  L 3431 531  L 3431 0  L 469 0  L 469 531  Q 828 903 1448 1529  Q 2069 2156 2228 2338  Q 2531 2678 2651 2914  Q 2772 3150 2772 3378  Q 2772 3750 2511 3984  Q 2250 4219 1831 4219  Q 1534 4219 1204 4116  Q 875 4013 500 3803  L 500 4441  Q 881 4594 1212 4672  Q 1544 4750 1819 4750  Q 2544 4750 2975 4387  Q 3406 4025 3406 3419  Q 3406 3131 3298 2873  Q 3191 2616 2906 2266  Q 2828 2175 2409 1742  Q 1991 1309 1228 531  z " transform="scale(0.015625)"/>
       </defs>
       <use xlink:href="#DejaVuSans-32"/>
       <use xlink:href="#DejaVuSans-30" x="63.623047"/>
       <use xlink:href="#DejaVuSans-30" x="127.246094"/>
      </g>
     </g>
    </g>
    <g id="xtick_6">
     <g id="line2d_11">
      <path d="M 332.315646 307.584  L 332.315646 41.472  " clip-path="url(#p1f95ca8d83)" style="fill: none; stroke: #b0b0b0; stroke-width: 0.8; stroke-linecap: square"/>
     </g>
     <g id="line2d_12">
      <g>
       <use xlink:href="#mf0ee0234f3" x="332.315646" y="307.584" style="stroke: #000000; stroke-width: 0.8"/>
      </g>
     </g>
     <g id="text_6">
      <!-- 250 -->
      <g transform="translate(322.771896 322.182437) scale(0.1 -0.1)">
       <use xlink:href="#DejaVuSans-32"/>
       <use xlink:href="#DejaVuSans-35" x="63.623047"/>
       <use xlink:href="#DejaVuSans-30" x="127.246094"/>
      </g>
     </g>
    </g>
    <g id="xtick_7">
     <g id="line2d_13">
      <path d="M 384.012229 307.584  L 384.012229 41.472  " clip-path="url(#p1f95ca8d83)" style="fill: none; stroke: #b0b0b0; stroke-width: 0.8; stroke-linecap: square"/>
     </g>
     <g id="line2d_14">
      <g>
       <use xlink:href="#mf0ee0234f3" x="384.012229" y="307.584" style="stroke: #000000; stroke-width: 0.8"/>
      </g>
     </g>
     <g id="text_7">
      <!-- 300 -->
      <g transform="translate(374.468479 322.182437) scale(0.1 -0.1)">
       <defs>
        <path id="DejaVuSans-33" d="M 2597 2516  Q 3050 2419 3304 2112  Q 3559 1806 3559 1356  Q 3559 666 3084 287  Q 2609 -91 1734 -91  Q 1441 -91 1130 -33  Q 819 25 488 141  L 488 750  Q 750 597 1062 519  Q 1375 441 1716 441  Q 2309 441 2620 675  Q 2931 909 2931 1356  Q 2931 1769 2642 2001  Q 2353 2234 1838 2234  L 1294 2234  L 1294 2753  L 1863 2753  Q 2328 2753 2575 2939  Q 2822 3125 2822 3475  Q 2822 3834 2567 4026  Q 2313 4219 1838 4219  Q 1578 4219 1281 4162  Q 984 4106 628 3988  L 628 4550  Q 988 4650 1302 4700  Q 1616 4750 1894 4750  Q 2613 4750 3031 4423  Q 3450 4097 3450 3541  Q 3450 3153 3228 2886  Q 3006 2619 2597 2516  z " transform="scale(0.015625)"/>
       </defs>
       <use xlink:href="#DejaVuSans-33"/>
       <use xlink:href="#DejaVuSans-30" x="63.623047"/>
       <use xlink:href="#DejaVuSans-30" x="127.246094"/>
      </g>
     </g>
    </g>
    <g id="text_8">
     <!-- Epoch -->
     <g transform="translate(220.849063 335.860562) scale(0.1 -0.1)">
      <defs>
       <path id="DejaVuSans-45" d="M 628 4666  L 3578 4666  L 3578 4134  L 1259 4134  L 1259 2753  L 3481 2753  L 3481 2222  L 1259 2222  L 1259 531  L 3634 531  L 3634 0  L 628 0  L 628 4666  z " transform="scale(0.015625)"/>
       <path id="DejaVuSans-70" d="M 1159 525  L 1159 -1331  L 581 -1331  L 581 3500  L 1159 3500  L 1159 2969  Q 1341 3281 1617 3432  Q 1894 3584 2278 3584  Q 2916 3584 3314 3078  Q 3713 2572 3713 1747  Q 3713 922 3314 415  Q 2916 -91 2278 -91  Q 1894 -91 1617 61  Q 1341 213 1159 525  z M 3116 1747  Q 3116 2381 2855 2742  Q 2594 3103 2138 3103  Q 1681 3103 1420 2742  Q 1159 2381 1159 1747  Q 1159 1113 1420 752  Q 1681 391 2138 391  Q 2594 391 2855 752  Q 3116 1113 3116 1747  z " transform="scale(0.015625)"/>
       <path id="DejaVuSans-6f" d="M 1959 3097  Q 1497 3097 1228 2736  Q 959 2375 959 1747  Q 959 1119 1226 758  Q 1494 397 1959 397  Q 2419 397 2687 759  Q 2956 1122 2956 1747  Q 2956 2369 2687 2733  Q 2419 3097 1959 3097  z M 1959 3584  Q 2709 3584 3137 3096  Q 3566 2609 3566 1747  Q 3566 888 3137 398  Q 2709 -91 1959 -91  Q 1206 -91 779 398  Q 353 888 353 1747  Q 353 2609 779 3096  Q 1206 3584 1959 3584  z " transform="scale(0.015625)"/>
       <path id="DejaVuSans-63" d="M 3122 3366  L 3122 2828  Q 2878 2963 2633 3030  Q 2388 3097 2138 3097  Q 1578 3097 1268 2742  Q 959 2388 959 1747  Q 959 1106 1268 751  Q 1578 397 2138 397  Q 2388 397 2633 464  Q 2878 531 3122 666  L 3122 134  Q 2881 22 2623 -34  Q 2366 -91 2075 -91  Q 1284 -91 818 406  Q 353 903 353 1747  Q 353 2603 823 3093  Q 1294 3584 2113 3584  Q 2378 3584 2631 3529  Q 2884 3475 3122 3366  z " transform="scale(0.015625)"/>
       <path id="DejaVuSans-68" d="M 3513 2113  L 3513 0  L 2938 0  L 2938 2094  Q 2938 2591 2744 2837  Q 2550 3084 2163 3084  Q 1697 3084 1428 2787  Q 1159 2491 1159 1978  L 1159 0  L 581 0  L 581 4863  L 1159 4863  L 1159 2956  Q 1366 3272 1645 3428  Q 1925 3584 2291 3584  Q 2894 3584 3203 3211  Q 3513 2838 3513 2113  z " transform="scale(0.015625)"/>
      </defs>
      <use xlink:href="#DejaVuSans-45"/>
      <use xlink:href="#DejaVuSans-70" x="63.183594"/>
      <use xlink:href="#DejaVuSans-6f" x="126.660156"/>
      <use xlink:href="#DejaVuSans-63" x="187.841797"/>
      <use xlink:href="#DejaVuSans-68" x="242.822266"/>
     </g>
    </g>
   </g>
   <g id="matplotlib.axis_2">
    <g id="ytick_1">
     <g id="line2d_15">
      <path d="M 57.6 300.569267  L 414.72 300.569267  " clip-path="url(#p1f95ca8d83)" style="fill: none; stroke: #b0b0b0; stroke-width: 0.8; stroke-linecap: square"/>
     </g>
     <g id="line2d_16">
      <defs>
       <path id="mdb7cfbe493" d="M 0 0  L -3.5 0  " style="stroke: #000000; stroke-width: 0.8"/>
      </defs>
      <g>
       <use xlink:href="#mdb7cfbe493" x="57.6" y="300.569267" style="stroke: #000000; stroke-width: 0.8"/>
      </g>
     </g>
     <g id="text_9">
      <!-- 5 -->
      <g transform="translate(44.2375 304.368485) scale(0.1 -0.1)">
       <use xlink:href="#DejaVuSans-35"/>
      </g>
     </g>
    </g>
    <g id="ytick_2">
     <g id="line2d_17">
      <path d="M 57.6 266.063073  L 414.72 266.063073  " clip-path="url(#p1f95ca8d83)" style="fill: none; stroke: #b0b0b0; stroke-width: 0.8; stroke-linecap: square"/>
     </g>
     <g id="line2d_18">
      <g>
       <use xlink:href="#mdb7cfbe493" x="57.6" y="266.063073" style="stroke: #000000; stroke-width: 0.8"/>
      </g>
     </g>
     <g id="text_10">
      <!-- 10 -->
      <g transform="translate(37.875 269.862292) scale(0.1 -0.1)">
       <use xlink:href="#DejaVuSans-31"/>
       <use xlink:href="#DejaVuSans-30" x="63.623047"/>
      </g>
     </g>
    </g>
    <g id="ytick_3">
     <g id="line2d_19">
      <path d="M 57.6 231.55688  L 414.72 231.55688  " clip-path="url(#p1f95ca8d83)" style="fill: none; stroke: #b0b0b0; stroke-width: 0.8; stroke-linecap: square"/>
     </g>
     <g id="line2d_20">
      <g>
       <use xlink:href="#mdb7cfbe493" x="57.6" y="231.55688" style="stroke: #000000; stroke-width: 0.8"/>
      </g>
     </g>
     <g id="text_11">
      <!-- 15 -->
      <g transform="translate(37.875 235.356099) scale(0.1 -0.1)">
       <use xlink:href="#DejaVuSans-31"/>
       <use xlink:href="#DejaVuSans-35" x="63.623047"/>
      </g>
     </g>
    </g>
    <g id="ytick_4">
     <g id="line2d_21">
      <path d="M 57.6 197.050686  L 414.72 197.050686  " clip-path="url(#p1f95ca8d83)" style="fill: none; stroke: #b0b0b0; stroke-width: 0.8; stroke-linecap: square"/>
     </g>
     <g id="line2d_22">
      <g>
       <use xlink:href="#mdb7cfbe493" x="57.6" y="197.050686" style="stroke: #000000; stroke-width: 0.8"/>
      </g>
     </g>
     <g id="text_12">
      <!-- 20 -->
      <g transform="translate(37.875 200.849905) scale(0.1 -0.1)">
       <use xlink:href="#DejaVuSans-32"/>
       <use xlink:href="#DejaVuSans-30" x="63.623047"/>
      </g>
     </g>
    </g>
    <g id="ytick_5">
     <g id="line2d_23">
      <path d="M 57.6 162.544493  L 414.72 162.544493  " clip-path="url(#p1f95ca8d83)" style="fill: none; stroke: #b0b0b0; stroke-width: 0.8; stroke-linecap: square"/>
     </g>
     <g id="line2d_24">
      <g>
       <use xlink:href="#mdb7cfbe493" x="57.6" y="162.544493" style="stroke: #000000; stroke-width: 0.8"/>
      </g>
     </g>
     <g id="text_13">
      <!-- 25 -->
      <g transform="translate(37.875 166.343712) scale(0.1 -0.1)">
       <use xlink:href="#DejaVuSans-32"/>
       <use xlink:href="#DejaVuSans-35" x="63.623047"/>
      </g>
     </g>
    </g>
    <g id="ytick_6">
     <g id="line2d_25">
      <path d="M 57.6 128.0383  L 414.72 128.0383  " clip-path="url(#p1f95ca8d83)" style="fill: none; stroke: #b0b0b0; stroke-width: 0.8; stroke-linecap: square"/>
     </g>
     <g id="line2d_26">
      <g>
       <use xlink:href="#mdb7cfbe493" x="57.6" y="128.0383" style="stroke: #000000; stroke-width: 0.8"/>
      </g>
     </g>
     <g id="text_14">
      <!-- 30 -->
      <g transform="translate(37.875 131.837518) scale(0.1 -0.1)">
       <use xlink:href="#DejaVuSans-33"/>
       <use xlink:href="#DejaVuSans-30" x="63.623047"/>
      </g>
     </g>
    </g>
    <g id="ytick_7">
     <g id="line2d_27">
      <path d="M 57.6 93.532106  L 414.72 93.532106  " clip-path="url(#p1f95ca8d83)" style="fill: none; stroke: #b0b0b0; stroke-width: 0.8; stroke-linecap: square"/>
     </g>
     <g id="line2d_28">
      <g>
       <use xlink:href="#mdb7cfbe493" x="57.6" y="93.532106" style="stroke: #000000; stroke-width: 0.8"/>
      </g>
     </g>
     <g id="text_15">
      <!-- 35 -->
      <g transform="translate(37.875 97.331325) scale(0.1 -0.1)">
       <use xlink:href="#DejaVuSans-33"/>
       <use xlink:href="#DejaVuSans-35" x="63.623047"/>
      </g>
     </g>
    </g>
    <g id="ytick_8">
     <g id="line2d_29">
      <path d="M 57.6 59.025913  L 414.72 59.025913  " clip-path="url(#p1f95ca8d83)" style="fill: none; stroke: #b0b0b0; stroke-width: 0.8; stroke-linecap: square"/>
     </g>
     <g id="line2d_30">
      <g>
       <use xlink:href="#mdb7cfbe493" x="57.6" y="59.025913" style="stroke: #000000; stroke-width: 0.8"/>
      </g>
     </g>
     <g id="text_16">
      <!-- 40 -->
      <g transform="translate(37.875 62.825131) scale(0.1 -0.1)">
       <defs>
        <path id="DejaVuSans-34" d="M 2419 4116  L 825 1625  L 2419 1625  L 2419 4116  z M 2253 4666  L 3047 4666  L 3047 1625  L 3713 1625  L 3713 1100  L 3047 1100  L 3047 0  L 2419 0  L 2419 1100  L 313 1100  L 313 1709  L 2253 4666  z " transform="scale(0.015625)"/>
       </defs>
       <use xlink:href="#DejaVuSans-34"/>
       <use xlink:href="#DejaVuSans-30" x="63.623047"/>
      </g>
     </g>
    </g>
    <g id="text_17">
     <!-- Loss -->
     <g transform="translate(31.795313 185.495187) rotate(-90) scale(0.1 -0.1)">
      <defs>
       <path id="DejaVuSans-4c" d="M 628 4666  L 1259 4666  L 1259 531  L 3531 531  L 3531 0  L 628 0  L 628 4666  z " transform="scale(0.015625)"/>
       <path id="DejaVuSans-73" d="M 2834 3397  L 2834 2853  Q 2591 2978 2328 3040  Q 2066 3103 1784 3103  Q 1356 3103 1142 2972  Q 928 2841 928 2578  Q 928 2378 1081 2264  Q 1234 2150 1697 2047  L 1894 2003  Q 2506 1872 2764 1633  Q 3022 1394 3022 966  Q 3022 478 2636 193  Q 2250 -91 1575 -91  Q 1294 -91 989 -36  Q 684 19 347 128  L 347 722  Q 666 556 975 473  Q 1284 391 1588 391  Q 1994 391 2212 530  Q 2431 669 2431 922  Q 2431 1156 2273 1281  Q 2116 1406 1581 1522  L 1381 1569  Q 847 1681 609 1914  Q 372 2147 372 2553  Q 372 3047 722 3315  Q 1072 3584 1716 3584  Q 2034 3584 2315 3537  Q 2597 3491 2834 3397  z " transform="scale(0.015625)"/>
      </defs>
      <use xlink:href="#DejaVuSans-4c"/>
      <use xlink:href="#DejaVuSans-6f" x="53.962891"/>
      <use xlink:href="#DejaVuSans-73" x="115.144531"/>
      <use xlink:href="#DejaVuSans-73" x="167.244141"/>
     </g>
    </g>
   </g>
   <g id="line2d_31">
    <path d="M 73.832727 261.470192  L 75.900591 267.27217  L 76.934522 269.710504  L 77.968454 271.11727  L 80.036317 273.459181  L 81.070249 273.998691  L 84.172044 274.930281  L 86.239907 275.341099  L 89.341702 275.839873  L 90.375634 275.84596  L 94.511361 276.260829  L 111.054268 277.476324  L 119.325721 278.450895  L 122.427516 279.448811  L 123.461448 279.682776  L 124.495379 280.259535  L 125.529311 280.661823  L 126.563243 280.873831  L 127.597174 281.477799  L 129.665038 282.093196  L 131.732901 282.340055  L 133.800764 282.977008  L 135.868628 283.172472  L 137.936491 283.67645  L 138.970423 283.57216  L 140.004354 283.931523  L 141.038286 283.855725  L 142.072218 284.232722  L 143.106149 284.240228  L 144.140081 284.359491  L 145.174013 284.251575  L 146.207944 284.610083  L 147.241876 284.534334  L 149.309739 284.739909  L 153.445466 285.272066  L 154.479398 285.259824  L 156.547261 285.636603  L 157.581193 285.409048  L 158.615124 285.437802  L 160.682988 285.763786  L 164.818715 285.79869  L 166.886578 286.164997  L 168.954441 286.158238  L 169.988373 286.17634  L 172.056236 286.396948  L 173.090168 285.808468  L 174.1241 286.058757  L 175.158031 286.192371  L 176.191963 286.459344  L 178.259826 286.641301  L 181.361621 286.729398  L 186.53128 287.079704  L 187.565211 287.128851  L 188.599143 286.959327  L 191.700938 287.224643  L 192.73487 287.222437  L 193.768801 287.40541  L 196.870596 287.523874  L 198.93846 287.71446  L 201.006323 287.554609  L 202.040255 287.648749  L 203.074186 287.512076  L 208.243845 288.179165  L 209.277776 288.062627  L 210.311708 288.090625  L 211.34564 288.382101  L 214.447435 288.585543  L 215.481367 288.664656  L 216.515298 288.62724  L 217.54923 288.402553  L 218.583162 288.777688  L 221.684957 288.9949  L 222.718888 288.903067  L 223.75282 289.093364  L 224.786752 288.637863  L 225.820683 288.323452  L 226.854615 288.692535  L 228.922478 289.165409  L 229.95641 289.00508  L 230.990342 289.505786  L 233.058205 289.556242  L 234.092137 289.847825  L 236.16 289.804943  L 237.193932 289.96267  L 239.261795 289.712177  L 240.295727 290.172446  L 241.329658 290.124987  L 242.36359 289.17633  L 243.397522 289.981738  L 244.431453 290.292781  L 246.499317 290.451726  L 247.533248 290.461307  L 249.601112 290.734468  L 250.635043 290.695455  L 253.736838 290.939679  L 254.77077 291.186535  L 258.906497 291.346119  L 260.97436 291.55448  L 263.042224 291.07613  L 264.076155 291.65102  L 265.110087 291.727865  L 266.144019 291.650503  L 267.17795 291.857921  L 270.279745 292.017301  L 271.313677 291.938063  L 273.38154 292.199002  L 274.415472 292.017592  L 276.483335 292.218433  L 277.517267 292.167454  L 278.551199 292.470737  L 279.58513 292.363339  L 282.686925 292.890163  L 283.720857 293.131463  L 284.754789 293.052787  L 285.78872 293.191026  L 288.890515 293.231897  L 289.924447 293.337356  L 290.958379 293.228088  L 294.060174 293.412115  L 298.1959 293.496444  L 300.263764 293.639236  L 301.297695 292.910705  L 302.331627 293.275956  L 303.365559 293.478229  L 307.501285 293.776027  L 308.535217 293.849864  L 309.569149 293.767693  L 313.704876 293.939477  L 315.772739 293.955863  L 316.806671 294.145393  L 325.078124 294.438608  L 326.112056 294.589194  L 328.179919 294.606277  L 330.247782 294.535765  L 334.383509 294.705561  L 339.553167 294.822152  L 340.587099 294.846094  L 341.621031 294.72263  L 342.654962 294.73768  L 343.688894 294.877268  L 352.994279 295.002022  L 354.028211 294.875146  L 355.062142 295.106921  L 359.197869 295.149086  L 361.265732 295.147125  L 364.367528 295.208296  L 365.401459 295.050583  L 366.435391 295.17193  L 369.537186 295.168186  L 370.571118 295.272284  L 376.774708 295.316877  L 377.808639 295.420643  L 380.910434 295.30455  L 381.944366 295.401785  L 384.012229 295.240033  L 386.080093 295.448978  L 387.114024 295.322261  L 390.215819 295.441594  L 392.283683 295.423967  L 393.317614 295.277606  L 394.351546 295.461536  L 397.453341 295.227504  L 398.487273 295.345604  L 398.487273 295.345604  " clip-path="url(#p1f95ca8d83)" style="fill: none; stroke: #1f77b4; stroke-width: 1.5; stroke-linecap: square"/>
   </g>
   <g id="line2d_32">
    <path d="M 73.832727 53.568  L 74.866659 59.209201  L 75.900591 70.112324  L 76.934522 76.923533  L 79.002386 87.714998  L 80.036317 90.131919  L 81.070249 91.782471  L 83.138112 93.860481  L 84.172044 94.767713  L 85.205976 95.485092  L 86.239907 96.592069  L 87.273839 96.680696  L 89.341702 97.827519  L 90.375634 97.598295  L 91.409566 98.796093  L 92.443497 98.794474  L 93.477429 99.565852  L 95.545292 99.637291  L 96.579224 99.922751  L 97.613156 100.579923  L 98.647087 100.675346  L 99.681019 100.945928  L 100.714951 101.499727  L 103.816746 101.498438  L 104.850677 102.729546  L 105.884609 102.381661  L 106.918541 103.07162  L 107.952472 102.717367  L 110.020336 103.550358  L 112.088199 104.433009  L 113.122131 105.248055  L 114.156063 105.352033  L 115.189994 106.308141  L 116.223926 106.382044  L 117.257858 107.102396  L 119.325721 109.086289  L 120.359653 109.438619  L 121.393584 111.125102  L 122.427516 112.284125  L 123.461448 113.717494  L 124.495379 116.19732  L 125.529311 116.261473  L 126.563243 119.173347  L 127.597174 120.431681  L 128.631106 122.784839  L 129.665038 122.14989  L 130.698969 123.054631  L 131.732901 123.533463  L 132.766833 126.103714  L 133.800764 126.01446  L 134.834696 126.933447  L 135.868628 126.097415  L 136.902559 127.149625  L 137.936491 129.354965  L 138.970423 129.360383  L 140.004354 130.928622  L 142.072218 130.757998  L 143.106149 128.433534  L 144.140081 132.831169  L 145.174013 131.027579  L 146.207944 123.320576  L 147.241876 130.465024  L 148.275808 132.951091  L 149.309739 133.674497  L 150.343671 133.99199  L 151.377603 132.337572  L 152.411534 134.156843  L 153.445466 135.632535  L 154.479398 136.398121  L 156.547261 136.926457  L 157.581193 134.92164  L 158.615124 133.545728  L 159.649056 136.39222  L 160.682988 136.517332  L 161.71692 137.219344  L 162.750851 137.172918  L 163.784783 138.517645  L 164.818715 135.365109  L 165.852646 138.158579  L 166.886578 138.010627  L 167.92051 136.094165  L 168.954441 136.935746  L 169.988373 138.637965  L 171.022305 138.831531  L 172.056236 139.805348  L 173.090168 134.335856  L 174.1241 137.244286  L 175.158031 139.313415  L 176.191963 140.359192  L 177.225895 139.437469  L 178.259826 140.901701  L 179.293758 139.994328  L 180.32769 140.899362  L 181.361621 140.494253  L 182.395553 140.739947  L 183.429485 141.911173  L 184.463416 139.887133  L 185.497348 140.808717  L 186.53128 142.059749  L 187.565211 137.52487  L 188.599143 139.769262  L 189.633075 140.723127  L 190.667006 140.541722  L 191.700938 140.983525  L 192.73487 141.28062  L 193.768801 141.86777  L 194.802733 141.617615  L 195.836665 143.484618  L 196.870596 143.030793  L 197.904528 142.703985  L 198.93846 140.726986  L 199.972391 142.089664  L 201.006323 139.327399  L 202.040255 142.489239  L 203.074186 137.625764  L 204.108118 142.859577  L 205.14205 144.462579  L 206.175981 144.871374  L 207.209913 143.081817  L 208.243845 144.225487  L 209.277776 140.318576  L 210.311708 144.749705  L 211.34564 145.192484  L 212.379572 145.826182  L 213.413503 144.442315  L 214.447435 145.034167  L 215.481367 144.736611  L 216.515298 141.559664  L 217.54923 144.771881  L 218.583162 145.840424  L 219.617093 145.748543  L 220.651025 144.952753  L 221.684957 147.540213  L 222.718888 146.698583  L 223.75282 146.914381  L 224.786752 141.191718  L 225.820683 137.153468  L 226.854615 139.810208  L 227.888547 146.979677  L 228.922478 147.608196  L 229.95641 147.859064  L 230.990342 147.910043  L 232.024273 149.039849  L 233.058205 148.601369  L 234.092137 147.948396  L 235.126068 149.833793  L 236.16 149.828787  L 237.193932 149.032778  L 238.227863 147.982199  L 239.261795 149.502929  L 240.295727 146.930841  L 241.329658 149.208067  L 242.36359 147.044091  L 243.397522 150.121869  L 244.431453 150.301144  L 245.465385 150.759025  L 246.499317 150.803045  L 247.533248 150.361983  L 248.56718 151.578716  L 249.601112 151.777451  L 250.635043 150.090223  L 251.668975 148.908626  L 252.702907 151.644899  L 253.736838 152.163005  L 254.77077 153.135933  L 256.838633 152.734555  L 257.872565 151.917146  L 258.906497 153.49936  L 259.940428 153.316049  L 260.97436 153.679603  L 262.008292 152.70928  L 263.042224 152.479187  L 264.076155 153.715157  L 265.110087 153.342289  L 266.144019 154.020434  L 267.17795 154.360027  L 268.211882 154.230566  L 269.245814 154.274858  L 270.279745 155.058757  L 272.347609 154.349666  L 274.415472 154.352646  L 275.449404 153.493246  L 276.483335 154.212091  L 277.517267 153.569837  L 278.551199 154.568981  L 279.58513 152.927707  L 280.619062 151.827346  L 281.652994 154.088303  L 282.686925 154.815065  L 283.720857 155.223673  L 284.754789 155.770926  L 286.822652 155.945729  L 287.856584 156.219493  L 288.890515 156.179239  L 289.924447 155.041546  L 290.958379 156.386625  L 291.99231 156.020167  L 293.026242 155.963003  L 294.060174 156.256473  L 296.128037 156.448188  L 297.161969 156.026485  L 298.1959 156.472724  L 299.229832 154.783775  L 300.263764 153.775731  L 301.297695 153.255829  L 302.331627 156.212428  L 303.365559 155.229037  L 304.39949 156.53826  L 305.433422 155.54947  L 306.467354 156.45403  L 307.501285 156.330788  L 308.535217 156.876782  L 311.637012 155.877594  L 312.670944 157.070055  L 313.704876 155.662931  L 314.738807 156.280032  L 315.772739 156.559666  L 316.806671 156.176674  L 317.840602 156.730511  L 318.874534 156.44516  L 319.908466 156.804997  L 320.942397 157.000977  L 321.976329 157.060561  L 323.010261 156.666857  L 324.044192 156.667498  L 325.078124 156.86508  L 326.112056 156.924223  L 327.145987 156.792082  L 328.179919 157.047305  L 329.213851 157.074526  L 330.247782 156.642342  L 331.281714 157.160276  L 332.315646 156.544436  L 333.349577 157.053966  L 335.417441 157.154132  L 336.451372 156.861313  L 337.485304 157.175239  L 338.519236 156.88081  L 339.553167 156.945927  L 340.587099 156.794027  L 341.621031 157.192874  L 342.654962 157.313024  L 343.688894 156.893444  L 344.722826 157.122787  L 345.756757 156.385874  L 346.790689 156.33139  L 347.824621 156.741222  L 349.892484 156.01092  L 350.926416 157.041396  L 351.960347 155.886462  L 352.994279 156.703439  L 354.028211 156.64296  L 355.062142 157.294159  L 356.096074 157.164278  L 357.130006 157.202562  L 358.163937 157.411982  L 359.197869 157.05825  L 360.231801 157.266615  L 361.265732 157.29711  L 362.299664 157.565913  L 363.333596 156.943966  L 364.367528 157.402338  L 365.401459 157.573052  L 366.435391 157.193534  L 367.469323 157.476212  L 368.503254 157.155264  L 370.571118 157.359174  L 373.672913 157.537536  L 374.706844 157.324185  L 377.808639 157.604932  L 378.842571 157.52807  L 379.876503 157.313998  L 380.910434 157.463116  L 382.978298 157.192776  L 384.012229 157.082172  L 385.046161 157.571936  L 386.080093 157.542986  L 387.114024 157.252483  L 389.181888 157.493558  L 390.215819 157.421844  L 391.249751 157.498657  L 392.283683 157.329158  L 393.317614 157.554573  L 394.351546 157.097537  L 396.419409 157.36426  L 397.453341 157.177482  L 398.487273 157.353139  L 398.487273 157.353139  " clip-path="url(#p1f95ca8d83)" style="fill: none; stroke: #ff7f0e; stroke-width: 1.5; stroke-linecap: square"/>
   </g>
   <g id="patch_3">
    <path d="M 57.6 307.584  L 57.6 41.472  " style="fill: none; stroke: #000000; stroke-width: 0.8; stroke-linejoin: miter; stroke-linecap: square"/>
   </g>
   <g id="patch_4">
    <path d="M 414.72 307.584  L 414.72 41.472  " style="fill: none; stroke: #000000; stroke-width: 0.8; stroke-linejoin: miter; stroke-linecap: square"/>
   </g>
   <g id="patch_5">
    <path d="M 57.6 307.584  L 414.72 307.584  " style="fill: none; stroke: #000000; stroke-width: 0.8; stroke-linejoin: miter; stroke-linecap: square"/>
   </g>
   <g id="patch_6">
    <path d="M 57.6 41.472  L 414.72 41.472  " style="fill: none; stroke: #000000; stroke-width: 0.8; stroke-linejoin: miter; stroke-linecap: square"/>
   </g>
   <g id="text_18">
    <!-- Training &amp; Validation Loss -->
    <g transform="translate(159.3 35.472) scale(0.12 -0.12)">
     <defs>
      <path id="DejaVuSans-54" d="M -19 4666  L 3928 4666  L 3928 4134  L 2272 4134  L 2272 0  L 1638 0  L 1638 4134  L -19 4134  L -19 4666  z " transform="scale(0.015625)"/>
      <path id="DejaVuSans-72" d="M 2631 2963  Q 2534 3019 2420 3045  Q 2306 3072 2169 3072  Q 1681 3072 1420 2755  Q 1159 2438 1159 1844  L 1159 0  L 581 0  L 581 3500  L 1159 3500  L 1159 2956  Q 1341 3275 1631 3429  Q 1922 3584 2338 3584  Q 2397 3584 2469 3576  Q 2541 3569 2628 3553  L 2631 2963  z " transform="scale(0.015625)"/>
      <path id="DejaVuSans-61" d="M 2194 1759  Q 1497 1759 1228 1600  Q 959 1441 959 1056  Q 959 750 1161 570  Q 1363 391 1709 391  Q 2188 391 2477 730  Q 2766 1069 2766 1631  L 2766 1759  L 2194 1759  z M 3341 1997  L 3341 0  L 2766 0  L 2766 531  Q 2569 213 2275 61  Q 1981 -91 1556 -91  Q 1019 -91 701 211  Q 384 513 384 1019  Q 384 1609 779 1909  Q 1175 2209 1959 2209  L 2766 2209  L 2766 2266  Q 2766 2663 2505 2880  Q 2244 3097 1772 3097  Q 1472 3097 1187 3025  Q 903 2953 641 2809  L 641 3341  Q 956 3463 1253 3523  Q 1550 3584 1831 3584  Q 2591 3584 2966 3190  Q 3341 2797 3341 1997  z " transform="scale(0.015625)"/>
      <path id="DejaVuSans-69" d="M 603 3500  L 1178 3500  L 1178 0  L 603 0  L 603 3500  z M 603 4863  L 1178 4863  L 1178 4134  L 603 4134  L 603 4863  z " transform="scale(0.015625)"/>
      <path id="DejaVuSans-6e" d="M 3513 2113  L 3513 0  L 2938 0  L 2938 2094  Q 2938 2591 2744 2837  Q 2550 3084 2163 3084  Q 1697 3084 1428 2787  Q 1159 2491 1159 1978  L 1159 0  L 581 0  L 581 3500  L 1159 3500  L 1159 2956  Q 1366 3272 1645 3428  Q 1925 3584 2291 3584  Q 2894 3584 3203 3211  Q 3513 2838 3513 2113  z " transform="scale(0.015625)"/>
      <path id="DejaVuSans-67" d="M 2906 1791  Q 2906 2416 2648 2759  Q 2391 3103 1925 3103  Q 1463 3103 1205 2759  Q 947 2416 947 1791  Q 947 1169 1205 825  Q 1463 481 1925 481  Q 2391 481 2648 825  Q 2906 1169 2906 1791  z M 3481 434  Q 3481 -459 3084 -895  Q 2688 -1331 1869 -1331  Q 1566 -1331 1297 -1286  Q 1028 -1241 775 -1147  L 775 -588  Q 1028 -725 1275 -790  Q 1522 -856 1778 -856  Q 2344 -856 2625 -561  Q 2906 -266 2906 331  L 2906 616  Q 2728 306 2450 153  Q 2172 0 1784 0  Q 1141 0 747 490  Q 353 981 353 1791  Q 353 2603 747 3093  Q 1141 3584 1784 3584  Q 2172 3584 2450 3431  Q 2728 3278 2906 2969  L 2906 3500  L 3481 3500  L 3481 434  z " transform="scale(0.015625)"/>
      <path id="DejaVuSans-20" transform="scale(0.015625)"/>
      <path id="DejaVuSans-26" d="M 1556 2509  Q 1272 2256 1139 2004  Q 1006 1753 1006 1478  Q 1006 1022 1337 719  Q 1669 416 2169 416  Q 2466 416 2725 514  Q 2984 613 3213 813  L 1556 2509  z M 1997 2859  L 3584 1234  Q 3769 1513 3872 1830  Q 3975 2147 3994 2503  L 4575 2503  Q 4538 2091 4375 1687  Q 4213 1284 3922 891  L 4794 0  L 4006 0  L 3559 459  Q 3234 181 2878 45  Q 2522 -91 2113 -91  Q 1359 -91 881 339  Q 403 769 403 1441  Q 403 1841 612 2192  Q 822 2544 1241 2853  Q 1091 3050 1012 3245  Q 934 3441 934 3628  Q 934 4134 1281 4442  Q 1628 4750 2203 4750  Q 2463 4750 2720 4694  Q 2978 4638 3244 4525  L 3244 3956  Q 2972 4103 2725 4179  Q 2478 4256 2266 4256  Q 1938 4256 1733 4082  Q 1528 3909 1528 3634  Q 1528 3475 1620 3314  Q 1713 3153 1997 2859  z " transform="scale(0.015625)"/>
      <path id="DejaVuSans-56" d="M 1831 0  L 50 4666  L 709 4666  L 2188 738  L 3669 4666  L 4325 4666  L 2547 0  L 1831 0  z " transform="scale(0.015625)"/>
      <path id="DejaVuSans-6c" d="M 603 4863  L 1178 4863  L 1178 0  L 603 0  L 603 4863  z " transform="scale(0.015625)"/>
      <path id="DejaVuSans-64" d="M 2906 2969  L 2906 4863  L 3481 4863  L 3481 0  L 2906 0  L 2906 525  Q 2725 213 2448 61  Q 2172 -91 1784 -91  Q 1150 -91 751 415  Q 353 922 353 1747  Q 353 2572 751 3078  Q 1150 3584 1784 3584  Q 2172 3584 2448 3432  Q 2725 3281 2906 2969  z M 947 1747  Q 947 1113 1208 752  Q 1469 391 1925 391  Q 2381 391 2643 752  Q 2906 1113 2906 1747  Q 2906 2381 2643 2742  Q 2381 3103 1925 3103  Q 1469 3103 1208 2742  Q 947 2381 947 1747  z " transform="scale(0.015625)"/>
      <path id="DejaVuSans-74" d="M 1172 4494  L 1172 3500  L 2356 3500  L 2356 3053  L 1172 3053  L 1172 1153  Q 1172 725 1289 603  Q 1406 481 1766 481  L 2356 481  L 2356 0  L 1766 0  Q 1100 0 847 248  Q 594 497 594 1153  L 594 3053  L 172 3053  L 172 3500  L 594 3500  L 594 4494  L 1172 4494  z " transform="scale(0.015625)"/>
     </defs>
     <use xlink:href="#DejaVuSans-54"/>
     <use xlink:href="#DejaVuSans-72" x="46.333984"/>
     <use xlink:href="#DejaVuSans-61" x="87.447266"/>
     <use xlink:href="#DejaVuSans-69" x="148.726562"/>
     <use xlink:href="#DejaVuSans-6e" x="176.509766"/>
     <use xlink:href="#DejaVuSans-69" x="239.888672"/>
     <use xlink:href="#DejaVuSans-6e" x="267.671875"/>
     <use xlink:href="#DejaVuSans-67" x="331.050781"/>
     <use xlink:href="#DejaVuSans-20" x="394.527344"/>
     <use xlink:href="#DejaVuSans-26" x="426.314453"/>
     <use xlink:href="#DejaVuSans-20" x="504.292969"/>
     <use xlink:href="#DejaVuSans-56" x="536.080078"/>
     <use xlink:href="#DejaVuSans-61" x="596.738281"/>
     <use xlink:href="#DejaVuSans-6c" x="658.017578"/>
     <use xlink:href="#DejaVuSans-69" x="685.800781"/>
     <use xlink:href="#DejaVuSans-64" x="713.583984"/>
     <use xlink:href="#DejaVuSans-61" x="777.060547"/>
     <use xlink:href="#DejaVuSans-74" x="838.339844"/>
     <use xlink:href="#DejaVuSans-69" x="877.548828"/>
     <use xlink:href="#DejaVuSans-6f" x="905.332031"/>
     <use xlink:href="#DejaVuSans-6e" x="966.513672"/>
     <use xlink:href="#DejaVuSans-20" x="1029.892578"/>
     <use xlink:href="#DejaVuSans-4c" x="1061.679688"/>
     <use xlink:href="#DejaVuSans-6f" x="1115.642578"/>
     <use xlink:href="#DejaVuSans-73" x="1176.824219"/>
     <use xlink:href="#DejaVuSans-73" x="1228.923828"/>
    </g>
   </g>
   <g id="legend_1">
    <g id="patch_7">
     <path d="M 326.62 78.82825  L 407.72 78.82825  Q 409.72 78.82825 409.72 76.82825  L 409.72 48.472  Q 409.72 46.472 407.72 46.472  L 326.62 46.472  Q 324.62 46.472 324.62 48.472  L 324.62 76.82825  Q 324.62 78.82825 326.62 78.82825  z " style="fill: #ffffff; opacity: 0.8; stroke: #cccccc; stroke-linejoin: miter"/>
    </g>
    <g id="line2d_33">
     <path d="M 328.62 54.570437  L 338.62 54.570437  L 348.62 54.570437  " style="fill: none; stroke: #1f77b4; stroke-width: 1.5; stroke-linecap: square"/>
    </g>
    <g id="text_19">
     <!-- Train Loss -->
     <g transform="translate(356.62 58.070437) scale(0.1 -0.1)">
      <use xlink:href="#DejaVuSans-54"/>
      <use xlink:href="#DejaVuSans-72" x="46.333984"/>
      <use xlink:href="#DejaVuSans-61" x="87.447266"/>
      <use xlink:href="#DejaVuSans-69" x="148.726562"/>
      <use xlink:href="#DejaVuSans-6e" x="176.509766"/>
      <use xlink:href="#DejaVuSans-20" x="239.888672"/>
      <use xlink:href="#DejaVuSans-4c" x="271.675781"/>
      <use xlink:href="#DejaVuSans-6f" x="325.638672"/>
      <use xlink:href="#DejaVuSans-73" x="386.820312"/>
      <use xlink:href="#DejaVuSans-73" x="438.919922"/>
     </g>
    </g>
    <g id="line2d_34">
     <path d="M 328.62 69.248562  L 338.62 69.248562  L 348.62 69.248562  " style="fill: none; stroke: #ff7f0e; stroke-width: 1.5; stroke-linecap: square"/>
    </g>
    <g id="text_20">
     <!-- Val Loss -->
     <g transform="translate(356.62 72.748562) scale(0.1 -0.1)">
      <use xlink:href="#DejaVuSans-56"/>
      <use xlink:href="#DejaVuSans-61" x="60.658203"/>
      <use xlink:href="#DejaVuSans-6c" x="121.9375"/>
      <use xlink:href="#DejaVuSans-20" x="149.720703"/>
      <use xlink:href="#DejaVuSans-4c" x="181.507812"/>
      <use xlink:href="#DejaVuSans-6f" x="235.470703"/>
      <use xlink:href="#DejaVuSans-73" x="296.652344"/>
      <use xlink:href="#DejaVuSans-73" x="348.751953"/>
     </g>
    </g>
   </g>
  </g>
 </g>
 <defs>
  <clipPath id="p1f95ca8d83">
   <rect x="57.6" y="41.472" width="357.12" height="266.112"/>
  </clipPath>
 </defs>
</svg>