<?xml version="1.0" encoding="utf-8" standalone="no"?>
<!DOCTYPE svg PUBLIC "-//W3C//DTD SVG 1.1//EN"
  "http://www.w3.org/Graphics/SVG/1.1/DTD/svg11.dtd">
<svg xmlns:xlink="http://www.w3.org/1999/xlink" width="432pt" height="432pt" viewBox="0 0 432 432" xmlns="http://www.w3.org/2000/svg" version="1.1">
 <metadata>
  <rdf:RDF xmlns:dc="http://purl.org/dc/elements/1.1/" xmlns:cc="http://creativecommons.org/ns#" xmlns:rdf="http://www.w3.org/1999/02/22-rdf-syntax-ns#">
   <cc:Work>
    <dc:type rdf:resource="http://purl.org/dc/dcmitype/StillImage"/>
    <dc:date>2025-06-10T18:10:20.837494</dc:date>
    <dc:format>image/svg+xml</dc:format>
    <dc:creator>
     <cc:Agent>
      <dc:title>Matplotlib v3.10.1, https://matplotlib.org/</dc:title>
     </cc:Agent>
    </dc:creator>
   </cc:Work>
  </rdf:RDF>
 </metadata>
 <defs>
  <style type="text/css">*{stroke-linejoin: round; stroke-linecap: butt}</style>
 </defs>
 <g id="figure_1">
  <g id="patch_1">
   <path d="M 0 432 
L 432 432 
L 432 0 
L 0 0 
z
" style="fill: #ffffff"/>
  </g>
  <g id="axes_1">
   <g id="patch_2">
    <path d="M 30.13 404.075 
L 423.36 404.075 
L 423.36 10.845 
L 30.13 10.845 
z
" style="fill: #ffffff"/>
   </g>
   <g id="matplotlib.axis_1">
    <g id="xtick_1">
     <g id="line2d_1">
      <path d="M 48.004091 404.075 
L 48.004091 10.845 
" clip-path="url(#pbee186be50)" style="fill: none; stroke: #b0b0b0; stroke-width: 0.8; stroke-linecap: square"/>
     </g>
     <g id="line2d_2">
      <defs>
       <path id="m4590b62020" d="M 0 0 
L 0 3.5 
" style="stroke: #000000; stroke-width: 0.8"/>
      </defs>
      <g>
       <use xlink:href="#m4590b62020" x="48.004091" y="404.075" style="stroke: #000000; stroke-width: 0.8"/>
      </g>
     </g>
     <g id="text_1">
      <!-- −2.0 -->
      <g transform="translate(35.862685 418.673438) scale(0.1 -0.1)">
       <defs>
        <path id="DejaVuSans-2212" d="M 678 2272 
L 4684 2272 
L 4684 1741 
L 678 1741 
L 678 2272 
z
" transform="scale(0.015625)"/>
        <path id="DejaVuSans-32" d="M 1228 531 
L 3431 531 
L 3431 0 
L 469 0 
L 469 531 
Q 828 903 1448 1529 
Q 2069 2156 2228 2338 
Q 2531 2678 2651 2914 
Q 2772 3150 2772 3378 
Q 2772 3750 2511 3984 
Q 2250 4219 1831 4219 
Q 1534 4219 1204 4116 
Q 875 4013 500 3803 
L 500 4441 
Q 881 4594 1212 4672 
Q 1544 4750 1819 4750 
Q 2544 4750 2975 4387 
Q 3406 4025 3406 3419 
Q 3406 3131 3298 2873 
Q 3191 2616 2906 2266 
Q 2828 2175 2409 1742 
Q 1991 1309 1228 531 
z
" transform="scale(0.015625)"/>
        <path id="DejaVuSans-2e" d="M 684 794 
L 1344 794 
L 1344 0 
L 684 0 
L 684 794 
z
" transform="scale(0.015625)"/>
        <path id="DejaVuSans-30" d="M 2034 4250 
Q 1547 4250 1301 3770 
Q 1056 3291 1056 2328 
Q 1056 1369 1301 889 
Q 1547 409 2034 409 
Q 2525 409 2770 889 
Q 3016 1369 3016 2328 
Q 3016 3291 2770 3770 
Q 2525 4250 2034 4250 
z
M 2034 4750 
Q 2819 4750 3233 4129 
Q 3647 3509 3647 2328 
Q 3647 1150 3233 529 
Q 2819 -91 2034 -91 
Q 1250 -91 836 529 
Q 422 1150 422 2328 
Q 422 3509 836 4129 
Q 1250 4750 2034 4750 
z
" transform="scale(0.015625)"/>
       </defs>
       <use xlink:href="#DejaVuSans-2212"/>
       <use xlink:href="#DejaVuSans-32" transform="translate(83.789062 0)"/>
       <use xlink:href="#DejaVuSans-2e" transform="translate(147.412109 0)"/>
       <use xlink:href="#DejaVuSans-30" transform="translate(179.199219 0)"/>
      </g>
     </g>
    </g>
    <g id="xtick_2">
     <g id="line2d_3">
      <path d="M 92.689318 404.075 
L 92.689318 10.845 
" clip-path="url(#pbee186be50)" style="fill: none; stroke: #b0b0b0; stroke-width: 0.8; stroke-linecap: square"/>
     </g>
     <g id="line2d_4">
      <g>
       <use xlink:href="#m4590b62020" x="92.689318" y="404.075" style="stroke: #000000; stroke-width: 0.8"/>
      </g>
     </g>
     <g id="text_2">
      <!-- −1.5 -->
      <g transform="translate(80.547912 418.673438) scale(0.1 -0.1)">
       <defs>
        <path id="DejaVuSans-31" d="M 794 531 
L 1825 531 
L 1825 4091 
L 703 3866 
L 703 4441 
L 1819 4666 
L 2450 4666 
L 2450 531 
L 3481 531 
L 3481 0 
L 794 0 
L 794 531 
z
" transform="scale(0.015625)"/>
        <path id="DejaVuSans-35" d="M 691 4666 
L 3169 4666 
L 3169 4134 
L 1269 4134 
L 1269 2991 
Q 1406 3038 1543 3061 
Q 1681 3084 1819 3084 
Q 2600 3084 3056 2656 
Q 3513 2228 3513 1497 
Q 3513 744 3044 326 
Q 2575 -91 1722 -91 
Q 1428 -91 1123 -41 
Q 819 9 494 109 
L 494 744 
Q 775 591 1075 516 
Q 1375 441 1709 441 
Q 2250 441 2565 725 
Q 2881 1009 2881 1497 
Q 2881 1984 2565 2268 
Q 2250 2553 1709 2553 
Q 1456 2553 1204 2497 
Q 953 2441 691 2322 
L 691 4666 
z
" transform="scale(0.015625)"/>
       </defs>
       <use xlink:href="#DejaVuSans-2212"/>
       <use xlink:href="#DejaVuSans-31" transform="translate(83.789062 0)"/>
       <use xlink:href="#DejaVuSans-2e" transform="translate(147.412109 0)"/>
       <use xlink:href="#DejaVuSans-35" transform="translate(179.199219 0)"/>
      </g>
     </g>
    </g>
    <g id="xtick_3">
     <g id="line2d_5">
      <path d="M 137.374545 404.075 
L 137.374545 10.845 
" clip-path="url(#pbee186be50)" style="fill: none; stroke: #b0b0b0; stroke-width: 0.8; stroke-linecap: square"/>
     </g>
     <g id="line2d_6">
      <g>
       <use xlink:href="#m4590b62020" x="137.374545" y="404.075" style="stroke: #000000; stroke-width: 0.8"/>
      </g>
     </g>
     <g id="text_3">
      <!-- −1.0 -->
      <g transform="translate(125.233139 418.673438) scale(0.1 -0.1)">
       <use xlink:href="#DejaVuSans-2212"/>
       <use xlink:href="#DejaVuSans-31" transform="translate(83.789062 0)"/>
       <use xlink:href="#DejaVuSans-2e" transform="translate(147.412109 0)"/>
       <use xlink:href="#DejaVuSans-30" transform="translate(179.199219 0)"/>
      </g>
     </g>
    </g>
    <g id="xtick_4">
     <g id="line2d_7">
      <path d="M 182.059773 404.075 
L 182.059773 10.845 
" clip-path="url(#pbee186be50)" style="fill: none; stroke: #b0b0b0; stroke-width: 0.8; stroke-linecap: square"/>
     </g>
     <g id="line2d_8">
      <g>
       <use xlink:href="#m4590b62020" x="182.059773" y="404.075" style="stroke: #000000; stroke-width: 0.8"/>
      </g>
     </g>
     <g id="text_4">
      <!-- −0.5 -->
      <g transform="translate(169.918366 418.673438) scale(0.1 -0.1)">
       <use xlink:href="#DejaVuSans-2212"/>
       <use xlink:href="#DejaVuSans-30" transform="translate(83.789062 0)"/>
       <use xlink:href="#DejaVuSans-2e" transform="translate(147.412109 0)"/>
       <use xlink:href="#DejaVuSans-35" transform="translate(179.199219 0)"/>
      </g>
     </g>
    </g>
    <g id="xtick_5">
     <g id="line2d_9">
      <path d="M 226.745 404.075 
L 226.745 10.845 
" clip-path="url(#pbee186be50)" style="fill: none; stroke: #b0b0b0; stroke-width: 0.8; stroke-linecap: square"/>
     </g>
     <g id="line2d_10">
      <g>
       <use xlink:href="#m4590b62020" x="226.745" y="404.075" style="stroke: #000000; stroke-width: 0.8"/>
      </g>
     </g>
     <g id="text_5">
      <!-- 0.0 -->
      <g transform="translate(218.793438 418.673438) scale(0.1 -0.1)">
       <use xlink:href="#DejaVuSans-30"/>
       <use xlink:href="#DejaVuSans-2e" transform="translate(63.623047 0)"/>
       <use xlink:href="#DejaVuSans-30" transform="translate(95.410156 0)"/>
      </g>
     </g>
    </g>
    <g id="xtick_6">
     <g id="line2d_11">
      <path d="M 271.430227 404.075 
L 271.430227 10.845 
" clip-path="url(#pbee186be50)" style="fill: none; stroke: #b0b0b0; stroke-width: 0.8; stroke-linecap: square"/>
     </g>
     <g id="line2d_12">
      <g>
       <use xlink:href="#m4590b62020" x="271.430227" y="404.075" style="stroke: #000000; stroke-width: 0.8"/>
      </g>
     </g>
     <g id="text_6">
      <!-- 0.5 -->
      <g transform="translate(263.478665 418.673438) scale(0.1 -0.1)">
       <use xlink:href="#DejaVuSans-30"/>
       <use xlink:href="#DejaVuSans-2e" transform="translate(63.623047 0)"/>
       <use xlink:href="#DejaVuSans-35" transform="translate(95.410156 0)"/>
      </g>
     </g>
    </g>
    <g id="xtick_7">
     <g id="line2d_13">
      <path d="M 316.115455 404.075 
L 316.115455 10.845 
" clip-path="url(#pbee186be50)" style="fill: none; stroke: #b0b0b0; stroke-width: 0.8; stroke-linecap: square"/>
     </g>
     <g id="line2d_14">
      <g>
       <use xlink:href="#m4590b62020" x="316.115455" y="404.075" style="stroke: #000000; stroke-width: 0.8"/>
      </g>
     </g>
     <g id="text_7">
      <!-- 1.0 -->
      <g transform="translate(308.163892 418.673438) scale(0.1 -0.1)">
       <use xlink:href="#DejaVuSans-31"/>
       <use xlink:href="#DejaVuSans-2e" transform="translate(63.623047 0)"/>
       <use xlink:href="#DejaVuSans-30" transform="translate(95.410156 0)"/>
      </g>
     </g>
    </g>
    <g id="xtick_8">
     <g id="line2d_15">
      <path d="M 360.800682 404.075 
L 360.800682 10.845 
" clip-path="url(#pbee186be50)" style="fill: none; stroke: #b0b0b0; stroke-width: 0.8; stroke-linecap: square"/>
     </g>
     <g id="line2d_16">
      <g>
       <use xlink:href="#m4590b62020" x="360.800682" y="404.075" style="stroke: #000000; stroke-width: 0.8"/>
      </g>
     </g>
     <g id="text_8">
      <!-- 1.5 -->
      <g transform="translate(352.849119 418.673438) scale(0.1 -0.1)">
       <use xlink:href="#DejaVuSans-31"/>
       <use xlink:href="#DejaVuSans-2e" transform="translate(63.623047 0)"/>
       <use xlink:href="#DejaVuSans-35" transform="translate(95.410156 0)"/>
      </g>
     </g>
    </g>
    <g id="xtick_9">
     <g id="line2d_17">
      <path d="M 405.485909 404.075 
L 405.485909 10.845 
" clip-path="url(#pbee186be50)" style="fill: none; stroke: #b0b0b0; stroke-width: 0.8; stroke-linecap: square"/>
     </g>
     <g id="line2d_18">
      <g>
       <use xlink:href="#m4590b62020" x="405.485909" y="404.075" style="stroke: #000000; stroke-width: 0.8"/>
      </g>
     </g>
     <g id="text_9">
      <!-- 2.0 -->
      <g transform="translate(397.534347 418.673438) scale(0.1 -0.1)">
       <use xlink:href="#DejaVuSans-32"/>
       <use xlink:href="#DejaVuSans-2e" transform="translate(63.623047 0)"/>
       <use xlink:href="#DejaVuSans-30" transform="translate(95.410156 0)"/>
      </g>
     </g>
    </g>
   </g>
   <g id="matplotlib.axis_2">
    <g id="ytick_1">
     <g id="line2d_19">
      <path d="M 30.13 386.200909 
L 423.36 386.200909 
" clip-path="url(#pbee186be50)" style="fill: none; stroke: #b0b0b0; stroke-width: 0.8; stroke-linecap: square"/>
     </g>
     <g id="line2d_20">
      <defs>
       <path id="m52b5699332" d="M 0 0 
L -3.5 0 
" style="stroke: #000000; stroke-width: 0.8"/>
      </defs>
      <g>
       <use xlink:href="#m52b5699332" x="30.13" y="386.200909" style="stroke: #000000; stroke-width: 0.8"/>
      </g>
     </g>
     <g id="text_10">
      <!-- −2.0 -->
      <g transform="translate(-1.152812 390.000128) scale(0.1 -0.1)">
       <use xlink:href="#DejaVuSans-2212"/>
       <use xlink:href="#DejaVuSans-32" transform="translate(83.789062 0)"/>
       <use xlink:href="#DejaVuSans-2e" transform="translate(147.412109 0)"/>
       <use xlink:href="#DejaVuSans-30" transform="translate(179.199219 0)"/>
      </g>
     </g>
    </g>
    <g id="ytick_2">
     <g id="line2d_21">
      <path d="M 30.13 341.515682 
L 423.36 341.515682 
" clip-path="url(#pbee186be50)" style="fill: none; stroke: #b0b0b0; stroke-width: 0.8; stroke-linecap: square"/>
     </g>
     <g id="line2d_22">
      <g>
       <use xlink:href="#m52b5699332" x="30.13" y="341.515682" style="stroke: #000000; stroke-width: 0.8"/>
      </g>
     </g>
     <g id="text_11">
      <!-- −1.5 -->
      <g transform="translate(-1.152812 345.314901) scale(0.1 -0.1)">
       <use xlink:href="#DejaVuSans-2212"/>
       <use xlink:href="#DejaVuSans-31" transform="translate(83.789062 0)"/>
       <use xlink:href="#DejaVuSans-2e" transform="translate(147.412109 0)"/>
       <use xlink:href="#DejaVuSans-35" transform="translate(179.199219 0)"/>
      </g>
     </g>
    </g>
    <g id="ytick_3">
     <g id="line2d_23">
      <path d="M 30.13 296.830455 
L 423.36 296.830455 
" clip-path="url(#pbee186be50)" style="fill: none; stroke: #b0b0b0; stroke-width: 0.8; stroke-linecap: square"/>
     </g>
     <g id="line2d_24">
      <g>
       <use xlink:href="#m52b5699332" x="30.13" y="296.830455" style="stroke: #000000; stroke-width: 0.8"/>
      </g>
     </g>
     <g id="text_12">
      <!-- −1.0 -->
      <g transform="translate(-1.152812 300.629673) scale(0.1 -0.1)">
       <use xlink:href="#DejaVuSans-2212"/>
       <use xlink:href="#DejaVuSans-31" transform="translate(83.789062 0)"/>
       <use xlink:href="#DejaVuSans-2e" transform="translate(147.412109 0)"/>
       <use xlink:href="#DejaVuSans-30" transform="translate(179.199219 0)"/>
      </g>
     </g>
    </g>
    <g id="ytick_4">
     <g id="line2d_25">
      <path d="M 30.13 252.145227 
L 423.36 252.145227 
" clip-path="url(#pbee186be50)" style="fill: none; stroke: #b0b0b0; stroke-width: 0.8; stroke-linecap: square"/>
     </g>
     <g id="line2d_26">
      <g>
       <use xlink:href="#m52b5699332" x="30.13" y="252.145227" style="stroke: #000000; stroke-width: 0.8"/>
      </g>
     </g>
     <g id="text_13">
      <!-- −0.5 -->
      <g transform="translate(-1.152812 255.944446) scale(0.1 -0.1)">
       <use xlink:href="#DejaVuSans-2212"/>
       <use xlink:href="#DejaVuSans-30" transform="translate(83.789062 0)"/>
       <use xlink:href="#DejaVuSans-2e" transform="translate(147.412109 0)"/>
       <use xlink:href="#DejaVuSans-35" transform="translate(179.199219 0)"/>
      </g>
     </g>
    </g>
    <g id="ytick_5">
     <g id="line2d_27">
      <path d="M 30.13 207.46 
L 423.36 207.46 
" clip-path="url(#pbee186be50)" style="fill: none; stroke: #b0b0b0; stroke-width: 0.8; stroke-linecap: square"/>
     </g>
     <g id="line2d_28">
      <g>
       <use xlink:href="#m52b5699332" x="30.13" y="207.46" style="stroke: #000000; stroke-width: 0.8"/>
      </g>
     </g>
     <g id="text_14">
      <!-- 0.0 -->
      <g transform="translate(7.226875 211.259219) scale(0.1 -0.1)">
       <use xlink:href="#DejaVuSans-30"/>
       <use xlink:href="#DejaVuSans-2e" transform="translate(63.623047 0)"/>
       <use xlink:href="#DejaVuSans-30" transform="translate(95.410156 0)"/>
      </g>
     </g>
    </g>
    <g id="ytick_6">
     <g id="line2d_29">
      <path d="M 30.13 162.774773 
L 423.36 162.774773 
" clip-path="url(#pbee186be50)" style="fill: none; stroke: #b0b0b0; stroke-width: 0.8; stroke-linecap: square"/>
     </g>
     <g id="line2d_30">
      <g>
       <use xlink:href="#m52b5699332" x="30.13" y="162.774773" style="stroke: #000000; stroke-width: 0.8"/>
      </g>
     </g>
     <g id="text_15">
      <!-- 0.5 -->
      <g transform="translate(7.226875 166.573991) scale(0.1 -0.1)">
       <use xlink:href="#DejaVuSans-30"/>
       <use xlink:href="#DejaVuSans-2e" transform="translate(63.623047 0)"/>
       <use xlink:href="#DejaVuSans-35" transform="translate(95.410156 0)"/>
      </g>
     </g>
    </g>
    <g id="ytick_7">
     <g id="line2d_31">
      <path d="M 30.13 118.089545 
L 423.36 118.089545 
" clip-path="url(#pbee186be50)" style="fill: none; stroke: #b0b0b0; stroke-width: 0.8; stroke-linecap: square"/>
     </g>
     <g id="line2d_32">
      <g>
       <use xlink:href="#m52b5699332" x="30.13" y="118.089545" style="stroke: #000000; stroke-width: 0.8"/>
      </g>
     </g>
     <g id="text_16">
      <!-- 1.0 -->
      <g transform="translate(7.226875 121.888764) scale(0.1 -0.1)">
       <use xlink:href="#DejaVuSans-31"/>
       <use xlink:href="#DejaVuSans-2e" transform="translate(63.623047 0)"/>
       <use xlink:href="#DejaVuSans-30" transform="translate(95.410156 0)"/>
      </g>
     </g>
    </g>
    <g id="ytick_8">
     <g id="line2d_33">
      <path d="M 30.13 73.404318 
L 423.36 73.404318 
" clip-path="url(#pbee186be50)" style="fill: none; stroke: #b0b0b0; stroke-width: 0.8; stroke-linecap: square"/>
     </g>
     <g id="line2d_34">
      <g>
       <use xlink:href="#m52b5699332" x="30.13" y="73.404318" style="stroke: #000000; stroke-width: 0.8"/>
      </g>
     </g>
     <g id="text_17">
      <!-- 1.5 -->
      <g transform="translate(7.226875 77.203537) scale(0.1 -0.1)">
       <use xlink:href="#DejaVuSans-31"/>
       <use xlink:href="#DejaVuSans-2e" transform="translate(63.623047 0)"/>
       <use xlink:href="#DejaVuSans-35" transform="translate(95.410156 0)"/>
      </g>
     </g>
    </g>
    <g id="ytick_9">
     <g id="line2d_35">
      <path d="M 30.13 28.719091 
L 423.36 28.719091 
" clip-path="url(#pbee186be50)" style="fill: none; stroke: #b0b0b0; stroke-width: 0.8; stroke-linecap: square"/>
     </g>
     <g id="line2d_36">
      <g>
       <use xlink:href="#m52b5699332" x="30.13" y="28.719091" style="stroke: #000000; stroke-width: 0.8"/>
      </g>
     </g>
     <g id="text_18">
      <!-- 2.0 -->
      <g transform="translate(7.226875 32.51831) scale(0.1 -0.1)">
       <use xlink:href="#DejaVuSans-32"/>
       <use xlink:href="#DejaVuSans-2e" transform="translate(63.623047 0)"/>
       <use xlink:href="#DejaVuSans-30" transform="translate(95.410156 0)"/>
      </g>
     </g>
    </g>
   </g>
   <g id="patch_3">
    <path d="M 226.745 207.46 
L 381.539168 118.089545 
L 353.133909 81.071091 
z
" clip-path="url(#pbee186be50)" style="fill: #66a8ff; opacity: 0.5; stroke: #000000; stroke-linejoin: miter"/>
   </g>
   <g id="patch_4">
    <path d="M 30.13 404.075 
L 30.13 10.845 
" style="fill: none; stroke: #000000; stroke-width: 0.8; stroke-linejoin: miter; stroke-linecap: square"/>
   </g>
   <g id="patch_5">
    <path d="M 423.36 404.075 
L 423.36 10.845 
" style="fill: none; stroke: #000000; stroke-width: 0.8; stroke-linejoin: miter; stroke-linecap: square"/>
   </g>
   <g id="patch_6">
    <path d="M 30.13 404.075 
L 423.36 404.075 
" style="fill: none; stroke: #000000; stroke-width: 0.8; stroke-linejoin: miter; stroke-linecap: square"/>
   </g>
   <g id="patch_7">
    <path d="M 30.13 10.845 
L 423.36 10.845 
" style="fill: none; stroke: #000000; stroke-width: 0.8; stroke-linejoin: miter; stroke-linecap: square"/>
   </g>
   <g id="text_19">
    <!-- A -->
    <g transform="translate(382.779827 107.995227) scale(0.12 -0.12)">
     <defs>
      <path id="DejaVuSans-41" d="M 2188 4044 
L 1331 1722 
L 3047 1722 
L 2188 4044 
z
M 1831 4666 
L 2547 4666 
L 4325 0 
L 3669 0 
L 3244 1197 
L 1141 1197 
L 716 0 
L 50 0 
L 1831 4666 
z
" transform="scale(0.015625)"/>
     </defs>
     <use xlink:href="#DejaVuSans-41"/>
    </g>
   </g>
   <g id="text_20">
    <!-- B -->
    <g transform="translate(354.570115 65.424005) scale(0.12 -0.12)">
     <defs>
      <path id="DejaVuSans-42" d="M 1259 2228 
L 1259 519 
L 2272 519 
Q 2781 519 3026 730 
Q 3272 941 3272 1375 
Q 3272 1813 3026 2020 
Q 2781 2228 2272 2228 
L 1259 2228 
z
M 1259 4147 
L 1259 2741 
L 2194 2741 
Q 2656 2741 2882 2914 
Q 3109 3088 3109 3444 
Q 3109 3797 2882 3972 
Q 2656 4147 2194 4147 
L 1259 4147 
z
M 628 4666 
L 2241 4666 
Q 2963 4666 3353 4366 
Q 3744 4066 3744 3513 
Q 3744 3084 3544 2831 
Q 3344 2578 2956 2516 
Q 3422 2416 3680 2098 
Q 3938 1781 3938 1306 
Q 3938 681 3513 340 
Q 3088 0 2303 0 
L 628 0 
L 628 4666 
z
" transform="scale(0.015625)"/>
     </defs>
     <use xlink:href="#DejaVuSans-42"/>
    </g>
   </g>
   <g id="patch_8">
    <path d="M 226.745 207.46 
L 304.142084 162.774773 
L 289.939454 144.265546 
z
" clip-path="url(#pbee186be50)" style="fill: #ff858d; opacity: 0.5; stroke: #000000; stroke-linejoin: miter"/>
   </g>
   <g id="patch_9">
    <path d="M 316.115455 207.46 
L 313.07023 184.329224 
L 304.142084 162.774773 
L 289.939454 144.265546 
L 271.430227 130.062916 
L 249.875776 121.13477 
L 226.745 118.089545 
L 203.614224 121.13477 
L 182.059773 130.062916 
L 163.550546 144.265546 
L 149.347916 162.774773 
L 140.41977 184.329224 
L 137.374545 207.46 
L 140.41977 230.590776 
L 149.347916 252.145227 
L 163.550546 270.654454 
L 182.059773 284.857084 
L 203.614224 293.78523 
L 226.745 296.830455 
L 249.875776 293.78523 
L 271.430227 284.857084 
L 289.939454 270.654454 
L 304.142084 252.145227 
L 313.07023 230.590776 
L 316.115455 207.46 
z
" clip-path="url(#pbee186be50)" style="fill: none; stroke: #000000; stroke-linejoin: miter"/>
   </g>
   <g id="patch_10">
    <path d="M 405.485909 207.46 
L 399.39546 161.198449 
L 381.539168 118.089545 
L 353.133909 81.071091 
L 316.115455 52.665832 
L 273.006551 34.80954 
L 226.745 28.719091 
L 180.483449 34.80954 
L 137.374545 52.665832 
L 100.356091 81.071091 
L 71.950832 118.089545 
L 54.09454 161.198449 
L 48.004091 207.46 
L 54.09454 253.721551 
L 71.950832 296.830455 
L 100.356091 333.848909 
L 137.374545 362.254168 
L 180.483449 380.11046 
L 226.745 386.200909 
L 273.006551 380.11046 
L 316.115455 362.254168 
L 353.133909 333.848909 
L 381.539168 296.830455 
L 399.39546 253.721551 
L 405.485909 207.46 
z
" clip-path="url(#pbee186be50)" style="fill: none; stroke: #000000; stroke-linejoin: miter"/>
   </g>
   <g id="line2d_37">
    <defs>
     <path id="made9e21b57" d="M 0 1.5 
C 0.397805 1.5 0.77937 1.341951 1.06066 1.06066 
C 1.341951 0.77937 1.5 0.397805 1.5 0 
C 1.5 -0.397805 1.341951 -0.77937 1.06066 -1.06066 
C 0.77937 -1.341951 0.397805 -1.5 0 -1.5 
C -0.397805 -1.5 -0.77937 -1.341951 -1.06066 -1.06066 
C -1.341951 -0.77937 -1.5 -0.397805 -1.5 0 
C -1.5 0.397805 -1.341951 0.77937 -1.06066 1.06066 
C -0.77937 1.341951 -0.397805 1.5 0 1.5 
z
" style="stroke: #000000"/>
    </defs>
    <g clip-path="url(#pbee186be50)">
     <use xlink:href="#made9e21b57" x="316.115455" y="207.46" style="stroke: #000000"/>
     <use xlink:href="#made9e21b57" x="313.07023" y="184.329224" style="stroke: #000000"/>
     <use xlink:href="#made9e21b57" x="304.142084" y="162.774773" style="stroke: #000000"/>
     <use xlink:href="#made9e21b57" x="289.939454" y="144.265546" style="stroke: #000000"/>
     <use xlink:href="#made9e21b57" x="271.430227" y="130.062916" style="stroke: #000000"/>
     <use xlink:href="#made9e21b57" x="249.875776" y="121.13477" style="stroke: #000000"/>
     <use xlink:href="#made9e21b57" x="226.745" y="118.089545" style="stroke: #000000"/>
     <use xlink:href="#made9e21b57" x="203.614224" y="121.13477" style="stroke: #000000"/>
     <use xlink:href="#made9e21b57" x="182.059773" y="130.062916" style="stroke: #000000"/>
     <use xlink:href="#made9e21b57" x="163.550546" y="144.265546" style="stroke: #000000"/>
     <use xlink:href="#made9e21b57" x="149.347916" y="162.774773" style="stroke: #000000"/>
     <use xlink:href="#made9e21b57" x="140.41977" y="184.329224" style="stroke: #000000"/>
     <use xlink:href="#made9e21b57" x="137.374545" y="207.46" style="stroke: #000000"/>
     <use xlink:href="#made9e21b57" x="140.41977" y="230.590776" style="stroke: #000000"/>
     <use xlink:href="#made9e21b57" x="149.347916" y="252.145227" style="stroke: #000000"/>
     <use xlink:href="#made9e21b57" x="163.550546" y="270.654454" style="stroke: #000000"/>
     <use xlink:href="#made9e21b57" x="182.059773" y="284.857084" style="stroke: #000000"/>
     <use xlink:href="#made9e21b57" x="203.614224" y="293.78523" style="stroke: #000000"/>
     <use xlink:href="#made9e21b57" x="226.745" y="296.830455" style="stroke: #000000"/>
     <use xlink:href="#made9e21b57" x="249.875776" y="293.78523" style="stroke: #000000"/>
     <use xlink:href="#made9e21b57" x="271.430227" y="284.857084" style="stroke: #000000"/>
     <use xlink:href="#made9e21b57" x="289.939454" y="270.654454" style="stroke: #000000"/>
     <use xlink:href="#made9e21b57" x="304.142084" y="252.145227" style="stroke: #000000"/>
     <use xlink:href="#made9e21b57" x="313.07023" y="230.590776" style="stroke: #000000"/>
    </g>
   </g>
   <g id="line2d_38">
    <g clip-path="url(#pbee186be50)">
     <use xlink:href="#made9e21b57" x="405.485909" y="207.46" style="stroke: #000000"/>
     <use xlink:href="#made9e21b57" x="399.39546" y="161.198449" style="stroke: #000000"/>
     <use xlink:href="#made9e21b57" x="381.539168" y="118.089545" style="stroke: #000000"/>
     <use xlink:href="#made9e21b57" x="353.133909" y="81.071091" style="stroke: #000000"/>
     <use xlink:href="#made9e21b57" x="316.115455" y="52.665832" style="stroke: #000000"/>
     <use xlink:href="#made9e21b57" x="273.006551" y="34.80954" style="stroke: #000000"/>
     <use xlink:href="#made9e21b57" x="226.745" y="28.719091" style="stroke: #000000"/>
     <use xlink:href="#made9e21b57" x="180.483449" y="34.80954" style="stroke: #000000"/>
     <use xlink:href="#made9e21b57" x="137.374545" y="52.665832" style="stroke: #000000"/>
     <use xlink:href="#made9e21b57" x="100.356091" y="81.071091" style="stroke: #000000"/>
     <use xlink:href="#made9e21b57" x="71.950832" y="118.089545" style="stroke: #000000"/>
     <use xlink:href="#made9e21b57" x="54.09454" y="161.198449" style="stroke: #000000"/>
     <use xlink:href="#made9e21b57" x="48.004091" y="207.46" style="stroke: #000000"/>
     <use xlink:href="#made9e21b57" x="54.09454" y="253.721551" style="stroke: #000000"/>
     <use xlink:href="#made9e21b57" x="71.950832" y="296.830455" style="stroke: #000000"/>
     <use xlink:href="#made9e21b57" x="100.356091" y="333.848909" style="stroke: #000000"/>
     <use xlink:href="#made9e21b57" x="137.374545" y="362.254168" style="stroke: #000000"/>
     <use xlink:href="#made9e21b57" x="180.483449" y="380.11046" style="stroke: #000000"/>
     <use xlink:href="#made9e21b57" x="226.745" y="386.200909" style="stroke: #000000"/>
     <use xlink:href="#made9e21b57" x="273.006551" y="380.11046" style="stroke: #000000"/>
     <use xlink:href="#made9e21b57" x="316.115455" y="362.254168" style="stroke: #000000"/>
     <use xlink:href="#made9e21b57" x="353.133909" y="333.848909" style="stroke: #000000"/>
     <use xlink:href="#made9e21b57" x="381.539168" y="296.830455" style="stroke: #000000"/>
     <use xlink:href="#made9e21b57" x="399.39546" y="253.721551" style="stroke: #000000"/>
    </g>
   </g>
   <g id="line2d_39">
    <defs>
     <path id="m3be6b7fcbe" d="M 0 2 
C 0.530406 2 1.03916 1.789267 1.414214 1.414214 
C 1.789267 1.03916 2 0.530406 2 0 
C 2 -0.530406 1.789267 -1.03916 1.414214 -1.414214 
C 1.03916 -1.789267 0.530406 -2 0 -2 
C -0.530406 -2 -1.03916 -1.789267 -1.414214 -1.414214 
C -1.789267 -1.03916 -2 -0.530406 -2 0 
C -2 0.530406 -1.789267 1.03916 -1.414214 1.414214 
C -1.03916 1.789267 -0.530406 2 0 2 
z
" style="stroke: #000000"/>
    </defs>
    <g clip-path="url(#pbee186be50)">
     <use xlink:href="#m3be6b7fcbe" x="226.745" y="207.46" style="stroke: #000000"/>
    </g>
   </g>
   <g id="line2d_40">
    <path d="M 226.745 207.46 
L 433 88.37862 
" clip-path="url(#pbee186be50)" style="fill: none; stroke: #000000; stroke-width: 1.5; stroke-linecap: square"/>
   </g>
   <g id="line2d_41">
    <path d="M 226.745 207.46 
L 433 1.205 
" clip-path="url(#pbee186be50)" style="fill: none; stroke: #000000; stroke-width: 1.5; stroke-linecap: square"/>
   </g>
  </g>
 </g>
 <defs>
  <clipPath id="pbee186be50">
   <rect x="30.13" y="10.845" width="393.23" height="393.23"/>
  </clipPath>
 </defs>
</svg>
